<svg id="Capa_1" data-name="Capa 1" xmlns="http://www.w3.org/2000/svg" viewBox="0 0 383.84 296.41"><path d="M208.09,642.34c16.52-29.77,40.7-49.79,74.37-57.17,18.64-4.08,37.24-1.85,55.68,2.2,21.57,4.72,42.29,12.41,63.65,17.84,12.26,3.11,24.6,5.5,37.36,4.27,14.28-1.39,26.29-8.11,37.58-16.29,3.87-2.81,3.76-7.2,3.22-11.61-1.27-10.47-1.26-20.9,1.82-31.12a23.62,23.62,0,0,1,1.76-4.5c2.59-4.72,6.87-5,10.14-.78,2.29,3,3.53,6.56,5.23,9.87,1.48,2.86,2.91,5.74,4.62,9.13a104.67,104.67,0,0,0,11.84-25.9c1.35-4.26,1.95-8.75,3.33-13,1.09-3.33-.27-4.47-3.09-5.67a62.86,62.86,0,0,1-22.17-15.56A46.67,46.67,0,0,1,482,482.11c-1.37-6.37,3.52-10.93,9.67-8.91a31.74,31.74,0,0,0,10.61,2c13.41-.32,24.71,4.08,33.56,14.54,9.43-11.86,21.67-17.41,36.47-17.67a19.63,19.63,0,0,0,8-1.7c5.6-2.59,9.06-1.21,11.61,4.4v7.48c-1.49,1.36-1.3,3.36-1.89,5.05-4.46,12.53-13.61,20.92-24.45,27.82a51,51,0,0,1-9.17,5c-3.44,1.3-4.42,3.12-4.33,6.83,1.42,56.23-18.36,104.63-54.85,146.78a187.8,187.8,0,0,1-24.93,24.23c-1.63,1.3-1.54,2.29-.8,4A132.18,132.18,0,0,1,480.34,729c1.71,8.55-5.36,15.61-14,14.71-15.21-1.58-29.44-5.75-42.12-14.52a3.77,3.77,0,0,0-3.44-.37c-6.95,1.68-11.65,4.65-10.92,13.07.37,4.23-.9,8.64-1.65,12.93-1.61,9.18-10.6,13.36-18.79,8.81a88.85,88.85,0,0,1-24-18.86,4.76,4.76,0,0,0-4.47-1.7c-36.33,2-71.08-3.24-102-23.79a124.72,124.72,0,0,1-50.12-65c-.1-.29-.46-.49-.7-.73Zm281.13-89.13c-3.05,9.22-3,18.5-1.76,27.78,1.19,8.83-1.49,15.67-9.16,20.43-.95.59-1.85,1.28-2.8,1.87-13.09,8.15-26.85,14.34-42.71,14.12-10.92-.14-21.58-2.06-32.14-4.74-21.39-5.42-42.12-13.13-63.7-17.88-15.94-3.51-32-5.43-48.31-3-23.37,3.45-42.25,15.06-58.17,32a89.33,89.33,0,0,0-9.31,11.15c5.74-.23,10.82-.51,15.89.34,11.17,1.85,20.36,7.59,29,14.44,9.17,7.27,18.2,14.74,28.61,20.26,13.93,7.39,28.94,11,44.54,11.94a175.73,175.73,0,0,0,24.71-.21c2.67-.22,3.55-.73,2.54-3.75a29.64,29.64,0,0,1-.36-16.6c.65-2.7,1.73-4.93,5-4.11,3.07.76,2.94,3.17,2.4,5.71-2.52,11.78,1.41,22,12.06,27.1,12.09,5.76,21.79,14.28,31.25,23.31A80.42,80.42,0,0,0,465,735.82c6.86.74,8.74-1.4,7.16-8a120.69,120.69,0,0,0-5.46-17.37c-9-22.07-21.34-41.36-43.51-52.57-2.26-1.15-3.05-3.09-1.91-5.3s3.19-2.45,5.44-1.33A72.59,72.59,0,0,1,445.05,664c2,2,3.54,1.82,5.78.67a167.7,167.7,0,0,0,35.7-24.47c24-21.59,40.75-48.21,53.67-77.48a45.67,45.67,0,0,0,4-16.15c.49-8.48.55-17,.24-25.42-.09-2.72.76-4.4,3.43-5.45a72.2,72.2,0,0,0,9.44-4.5c9.55-5.41,18.24-11.81,23.56-21.79a26.36,26.36,0,0,0,3.36-12.66c-5.4,2.88-11,2.57-16.42,3.14-11.76,1.21-21.05,6.58-27.37,16.69-3.08,4.93-5.2,5.08-8.47.44-5.44-7.71-12.67-12.84-22.14-13.88-6.64-.72-13.39-.52-20.32-2.59a36.57,36.57,0,0,0,9.55,18.68c6.54,7.15,14.69,11.9,23.67,15.27,3.25,1.23,4.7,3,4.17,6.75a121.49,121.49,0,0,1-17.06,47c-1.06,1.74-1.58,3-.3,5,1.69,2.67.14,5.69-2.66,5.85-2,.11-3.1-1.22-4.16-2.7A177.7,177.7,0,0,1,489.22,553.21ZM404.71,712.85c-2.36-2.11-4.18-3.6-5.85-5.26-2.23-2.22-4.56-2.56-7.74-2-20.34,3.78-40.8,5.48-61.46,2.67-41-5.57-71.62-25.85-90.59-62.9a4,4,0,0,0-3.25-2.49,28.57,28.57,0,0,0-8.25-.41,22.86,22.86,0,0,0,.8,2.26c13.26,29,33.86,50.9,63,64.15C328.22,725.62,365.9,722.71,404.71,712.85Zm10.57,9.94c-2.23-3.27-4.42-4-8.1-3-27.45,7.49-55.28,11.31-83.67,6.47-48.72-8.32-82.5-35.84-102.82-80.44-.41-.91-.06-2.74-2.14-2.4a3.12,3.12,0,0,0-2.87,3.25,20.6,20.6,0,0,0,1.74,9.07c20.74,52.07,65.81,75.31,113.25,79.43a182.79,182.79,0,0,0,37.34-.65A201,201,0,0,0,415.28,722.79ZM249.8,648.28c-.23.34-.35.47-.33.51.35.66.7,1.32,1.08,2a100.69,100.69,0,0,0,38.55,37.17c22.65,12.29,47.12,15.43,72.44,13.93A158.18,158.18,0,0,0,385.08,699c-5-2.63-9.3-5.33-12.59-9.3a2.23,2.23,0,0,0-2.27-.79,178.07,178.07,0,0,1-32.08.71c-15.5-1.17-30.26-4.6-44.28-11.33-12.34-5.92-22.75-14.61-33.41-22.95C257.1,652.69,253.77,650,249.8,648.28Zm284.67-57c-19.6,34.54-45.37,62.65-81.31,80.58,1.76,2.27,3.4,4.15,4.76,6.23,1.18,1.8,2.09,1.71,3.79.54,19.42-13.46,37.72-28.23,54.17-45.23a21.82,21.82,0,0,0,3.62-4.7,194.77,194.77,0,0,0,14.8-33.59C534.66,594,535.51,592.93,534.47,591.26ZM373,742a84.62,84.62,0,0,0,20.67,15.4c2.88,1.53,6.2.19,6.86-2.86A102,102,0,0,0,403,735.3,249.62,249.62,0,0,1,373,742ZM495,664.16l-.75-.65c-9.46,7.67-19.24,14.91-29.2,21.93-3,2.13.75,3.67,1.31,5.43.7,2.19,1.9.32,2.66-.31a213.73,213.73,0,0,0,20.12-19.46C491.17,668.88,493,666.47,495,664.16Z" transform="translate(-208.09 -469.07)" fill="#040505"/><path d="M362.92,551.52a11.82,11.82,0,0,1-8,11.48c-8.65,3.12-17.6,5.42-25.61,10.18a4.82,4.82,0,0,1-6.75-5.91c4.11-9.51,9.4-18.15,18.26-24,3-2,6.3-3.54,10.08-3.53A12,12,0,0,1,362.92,551.52Zm-29.61,11c6.51-2.22,12.21-4.14,17.91-6.12,3.51-1.22,4.9-3.63,3.77-6.41-1.06-2.6-3.66-3.42-6.95-2C341.47,550.7,337.37,556,333.31,562.47Z" transform="translate(-208.09 -469.07)" fill="#040506"/><path d="M298.15,532.36c3.76,0,6.68,1.86,9.15,4.46,7.07,7.46,9.26,16.83,10.2,26.64a4.36,4.36,0,0,1-2.85,4.43,4.31,4.31,0,0,1-5.21-.79c-5.48-6.08-12.27-10.55-18.57-15.63a10.57,10.57,0,0,1-2.95-12.23A11.07,11.07,0,0,1,298.15,532.36Zm10,22.78c-.91-6.23-3.35-10.63-7.41-14.15-1.76-1.52-3.69-1.68-5.22.22s-.9,3.75.92,5.14C300,549.13,303.68,551.83,308.1,555.14Z" transform="translate(-208.09 -469.07)" fill="#050606"/><path d="M319.46,535.77c.17-8.11,1.2-15.19,6.26-21a9.75,9.75,0,0,1,10.51-3.15c4.08,1.11,6.49,4,7.24,8.22a9.46,9.46,0,0,1-2.3,8c-4.41,5.25-9.13,10.23-12.62,16.2a4.3,4.3,0,0,1-5.18,2,4.53,4.53,0,0,1-3.54-4.29C319.61,539.48,319.55,537.24,319.46,535.77Zm7.8-3.28c2.88-3.34,5.19-6,7.54-8.72,1.29-1.46,2-3,.18-4.44s-3.25-.35-4.35,1.25A19.86,19.86,0,0,0,327.26,532.49Z" transform="translate(-208.09 -469.07)" fill="#040505"/><path d="M489.22,553.21a177.7,177.7,0,0,0,13.54,23.24c1.06,1.48,2.16,2.81,4.16,2.7,2.8-.16,4.35-3.18,2.66-5.85-1.28-2-.76-3.27.3-5a121.49,121.49,0,0,0,17.06-47c.53-3.77-.92-5.52-4.17-6.75-9-3.37-17.13-8.12-23.67-15.27a36.57,36.57,0,0,1-9.55-18.68c6.93,2.07,13.68,1.87,20.32,2.59,9.47,1,16.7,6.17,22.14,13.88,3.27,4.64,5.39,4.49,8.47-.44,6.32-10.11,15.61-15.48,27.37-16.69,5.44-.57,11-.26,16.42-3.14a26.36,26.36,0,0,1-3.36,12.66c-5.32,10-14,16.38-23.56,21.79a72.2,72.2,0,0,1-9.44,4.5c-2.67,1-3.52,2.73-3.43,5.45.31,8.47.25,16.94-.24,25.42a45.67,45.67,0,0,1-4,16.15c-12.92,29.27-29.64,55.89-53.67,77.48a167.7,167.7,0,0,1-35.7,24.47c-2.24,1.15-3.75,1.29-5.78-.67a72.59,72.59,0,0,0-18.38-12.75c-2.25-1.12-4.27-.94-5.44,1.33s-.35,4.15,1.91,5.3c22.17,11.21,34.55,30.5,43.51,52.57a120.69,120.69,0,0,1,5.46,17.37c1.58,6.6-.3,8.74-7.16,8a80.42,80.42,0,0,1-48.14-22.48c-9.46-9-19.16-17.55-31.25-23.31C374.91,685,371,674.71,373.5,662.93c.54-2.54.67-4.95-2.4-5.71-3.27-.82-4.35,1.41-5,4.11a29.64,29.64,0,0,0,.36,16.6c1,3,.13,3.53-2.54,3.75a175.73,175.73,0,0,1-24.71.21c-15.6-.94-30.61-4.55-44.54-11.94-10.41-5.52-19.44-13-28.61-20.26-8.65-6.85-17.84-12.59-29-14.44-5.07-.85-10.15-.57-15.89-.34a89.33,89.33,0,0,1,9.31-11.15c15.92-16.94,34.8-28.55,58.17-32,16.31-2.4,32.37-.48,48.31,3,21.58,4.75,42.31,12.46,63.7,17.88,10.56,2.68,21.22,4.6,32.14,4.74,15.86.22,29.62-6,42.71-14.12.95-.59,1.85-1.28,2.8-1.87,7.67-4.76,10.35-11.6,9.16-20.43C486.21,571.71,486.17,562.43,489.22,553.21Zm-157,95a12.47,12.47,0,0,0-10.74-12.35c-5.51-.86-11.26,2.85-13.13,8.29-.83,2.41-.36,4.29,1.92,5.3s4.12-.11,5-2.4c1.05-2.64,2.77-4.22,5.7-3.54s3.8,2.83,3.54,5.69c-.22,2.43.8,4.22,3.43,4.4s3.81-1.42,4.08-3.86C332.08,649.12,332.16,648.51,332.19,648.21Z" transform="translate(-208.09 -469.07)" fill="#45b8f7"/><path d="M404.71,712.85c-38.81,9.86-76.49,12.77-113.31-4-29.17-13.25-49.77-35.19-63-64.15a22.86,22.86,0,0,1-.8-2.26,28.57,28.57,0,0,1,8.25.41,4,4,0,0,1,3.25,2.49c19,37.05,49.64,57.33,90.59,62.9,20.66,2.81,41.12,1.11,61.46-2.67,3.18-.59,5.51-.25,7.74,2C400.53,709.25,402.35,710.74,404.71,712.85Z" transform="translate(-208.09 -469.07)" fill="#d5eefa"/><path d="M415.28,722.79A201,201,0,0,1,368,734.49a182.79,182.79,0,0,1-37.34.65c-47.44-4.12-92.51-27.36-113.25-79.43a20.6,20.6,0,0,1-1.74-9.07,3.12,3.12,0,0,1,2.87-3.25c2.08-.34,1.73,1.49,2.14,2.4,20.32,44.6,54.1,72.12,102.82,80.44,28.39,4.84,56.22,1,83.67-6.47C410.86,718.75,413.05,719.52,415.28,722.79Z" transform="translate(-208.09 -469.07)" fill="#d4edf9"/><path d="M249.8,648.28c4,1.68,7.3,4.41,10.65,7,10.66,8.34,21.07,17,33.41,22.95,14,6.73,28.78,10.16,44.28,11.33a178.07,178.07,0,0,0,32.08-.71,2.23,2.23,0,0,1,2.27.79c3.29,4,7.57,6.67,12.59,9.3a158.18,158.18,0,0,1-23.54,2.86c-25.32,1.5-49.79-1.64-72.44-13.93a100.69,100.69,0,0,1-38.55-37.17c-.38-.63-.73-1.29-1.08-2C249.45,648.75,249.57,648.62,249.8,648.28Z" transform="translate(-208.09 -469.07)" fill="#d5effa"/><path d="M534.47,591.26c1,1.67.19,2.72-.17,3.83a194.77,194.77,0,0,1-14.8,33.59,21.82,21.82,0,0,1-3.62,4.7c-16.45,17-34.75,31.77-54.17,45.23-1.7,1.17-2.61,1.26-3.79-.54-1.36-2.08-3-4-4.76-6.23C489.1,653.91,514.87,625.8,534.47,591.26Z" transform="translate(-208.09 -469.07)" fill="#d3edf8"/><path d="M373,742a249.62,249.62,0,0,0,30-6.7,102,102,0,0,1-2.44,19.24c-.66,3.05-4,4.39-6.86,2.86A84.62,84.62,0,0,1,373,742Z" transform="translate(-208.09 -469.07)" fill="#45b6f4"/><path d="M495,664.16c-2,2.31-3.8,4.72-5.86,6.94A213.73,213.73,0,0,1,469,690.56c-.76.63-2,2.5-2.66.31-.56-1.76-4.35-3.3-1.31-5.43,10-7,19.74-14.26,29.2-21.93Z" transform="translate(-208.09 -469.07)" fill="#d1eaf5"/><path d="M333.31,562.47c4.06-6.5,8.16-11.77,14.73-14.55,3.29-1.4,5.89-.58,6.95,2,1.13,2.78-.26,5.19-3.77,6.41C345.52,558.33,339.82,560.25,333.31,562.47Z" transform="translate(-208.09 -469.07)" fill="#44b4f0"/><path d="M308.1,555.14c-4.42-3.31-8.09-6-11.71-8.79-1.82-1.39-2.45-3.24-.92-5.14s3.46-1.74,5.22-.22C304.75,544.51,307.19,548.91,308.1,555.14Z" transform="translate(-208.09 -469.07)" fill="#43b2ee"/><path d="M327.26,532.49a19.86,19.86,0,0,1,3.37-11.91c1.1-1.6,2.57-2.58,4.35-1.25s1.11,3-.18,4.44C332.45,526.44,330.14,529.15,327.26,532.49Z" transform="translate(-208.09 -469.07)" fill="#43b2ee"/><path d="M332.19,648.21c0,.3-.11.91-.18,1.53-.27,2.44-1.47,4-4.08,3.86s-3.65-2-3.43-4.4c.26-2.86-.6-5-3.54-5.69s-4.65.9-5.7,3.54c-.9,2.29-2.64,3.45-5,2.4s-2.75-2.89-1.92-5.3c1.87-5.44,7.62-9.15,13.13-8.29A12.47,12.47,0,0,1,332.19,648.21Z" transform="translate(-208.09 -469.07)" fill="#020608"/></svg>