<svg id="Capa_1" data-name="Capa 1" xmlns="http://www.w3.org/2000/svg" viewBox="0 0 401.13 509.83"><path d="M345.41,821.4c-6.2,6.41-10,13.89-10.42,22.94-.26,5.35-3.28,8.45-7.85,8.26s-7.17-3.43-7.06-9c.21-10.86,4.6-20.18,10.89-28.75-6.47-3.84-7-3.73-11.23,2a28.25,28.25,0,0,0-5.49,19.14c.39,6-2,9.41-6.56,9.82s-7.91-3-8.36-9a41.18,41.18,0,0,1,9.07-29.66c1.7-2.14,1.57-2.94-.7-4.34a90.56,90.56,0,0,1-27.27-25.75c-1.66-2.4-3.9-2.8-6.27-3.38-20.19-5-37.89-14-49.86-31.79-11-16.41-13.79-34.86-12.37-54.15,1.57-21.36,7.42-41.64,16.15-61.1,1.66-3.68,1.7-6.21-.77-9.69-16.64-23.52-23-50.25-23.75-78.64-.14-5.36,3.05-7.67,7.73-8.71,5.58,1.37,7.25,5.1,7.39,10.6.24,9.87,1.17,19.71,4,29.26,5.6,25.6,18.86,46.46,39.38,62.61,24.26,19.1,52.67,28.14,82.62,33a382.34,382.34,0,0,0,113.48.86c27.12-3.75,53.2-11.07,76.65-25.81,26.81-16.84,44.25-40.44,51-71.62a125.08,125.08,0,0,0,3.9-34.48c-.53-45-15-85.74-38.89-123.42-4.6-7.25-4.56-8.85,1.45-15a130.18,130.18,0,0,0,19.94-25.75c-112.15,34.83-223.85,34.78-336.1,0a132.52,132.52,0,0,0,20.34,26.17c5.27,5.31,5.46,7.66,1.44,13.85C238.75,439.33,226,471.22,220.63,506c-.79,5.18-3.09,8.21-8.32,8.87-6.31-2.58-7.59-4.78-6.55-11.38a255.47,255.47,0,0,1,35.65-95.56c1.69-2.74,1.64-4.27-.58-6.65a138.44,138.44,0,0,1-26.22-40.13c-3.08-7.17-2.67-8.65,2.89-13.66h6c.43,1.54,2,1.47,3.05,1.92a356.38,356.38,0,0,0,52.79,17c42.4,10.25,85.44,14.49,129.05,14.2,49.49-.33,98.06-6.51,145.41-21.19,10.63-3.29,21.37-6.42,31.17-11.92h6c5.3,5.44,5.56,6.77,2.32,14.27a140.25,140.25,0,0,1-26,39.66c-2,2.2-2.28,3.61-.64,6.27,20,32.23,33,67,36.89,104.85,3.91,38.22-1,74.74-24.3,106.89-1.38,1.92-.85,3.26-.08,4.94A210.31,210.31,0,0,1,587.86,647c2.07,6.25,1.24,8.46-4.32,11.94-5.28.48-8.28-1.94-9.83-7a108,108,0,0,0-7-17.91,139.1,139.1,0,0,1-25.64,19.82c-2.31,1.38-1.32,3.14-.88,4.77a225.37,225.37,0,0,1,4.93,23.27,173.82,173.82,0,0,1,.08,52.91l-5.64,20.45c0,.39,0,.77,0,1.16l.64-.54c22.18-5.66,39.51-27,40.53-49.91,1.19-7.35.78-14.73,0-22-.55-5.06,1-8.56,5.48-10.84,5.07.18,8.72,2.21,9.31,7.68,1.68,15.64,1.47,31.17-4.06,46.15-9.17,24.84-28.24,38.55-52.76,45.45-6.35,1.79-11.1,4.38-15,9.85-5.62,7.87-13.05,14.15-21.23,19.32-3.53,2.22-4.63,3.52-1.58,7.47,6.64,8.6,9,18.67,7.56,29.52-.67,4.94-4,7.85-8.23,7.36s-7.07-4.08-6.57-9a27.71,27.71,0,0,0-5.41-20.12c-4.11-5.56-4.39-5.6-11.14-1.88,5.58,7.55,9.63,15.76,10.69,25.21a33.31,33.31,0,0,1,.33,4.45c-.08,4.66-2.93,7.85-7.07,8.06-4.51.23-7.56-2.6-7.8-7.69-.43-8.86-4.1-16.26-9.72-22.87a11.65,11.65,0,0,0-1.4-1.41c-.21-.18-.59-.17-1.45-.39,1.46,4.49,3.41,8.51,4.19,12.9,1.05,6,1.15,11.88-.68,17.7-1.48,4.73-5.33,7.21-9.31,6.21-4.34-1.08-6.57-5.19-5.11-10.22a23.35,23.35,0,0,0,.66-9.35A27,27,0,0,0,445.9,825c-3.32-4.68-7.89-1-11.76-.71-22.4,1.83-44.74,2-67-1.13-3.11-.44-4.46.44-5.69,3.06-3.19,6.75-5.21,13.53-3,21.08,1.32,4.41-.8,8.3-4.73,9.6s-7.95-.81-9.48-5.08c-2.79-7.81-2.19-15.65.2-23.44.58-1.89,1.23-3.77,1.84-5.65a1.28,1.28,0,0,0,.42-1.94C346.23,820.25,345.69,820.83,345.41,821.4Zm-82.49-86.7c-.38-2.78-.72-5.57-1.13-8.35-1.1-7.49-.22-9.2,6.51-12.44,5.29.83,7.92,3.79,8.26,9.26.24,3.89,1.26,7.73,1.93,11.59a76.51,76.51,0,0,0,6.4,20.26c12.18,26.35,33.94,41,61,48.38,35,9.6,70.43,9.6,105.79,2.71,22.31-4.34,42.73-13.22,58.3-30.71a77.59,77.59,0,0,0,19.23-39.63,17.08,17.08,0,0,0,.79-2.35c4.33-22.93,2.17-45.51-3.49-67.94-.9-3.57-2.57-2.53-4.66-1.61a196.35,196.35,0,0,1-29,10.2c-34.93,9.27-70.5,11.53-106.47,10.09-34.69-1.39-68.57-6.54-100.61-20.63-2.93-1.29-3.65-.35-4.22,2.17a204.09,204.09,0,0,0-4.38,24.42c-.64,6.47-2.64,8.41-8.88,9.14-5-1.34-6.8-4.6-6.23-9.69a207.85,207.85,0,0,1,5.87-30.7c.5-1.85,1.46-3.68-1-5.17a126.71,126.71,0,0,1-23.64-18.1c-1.58-1.55-2.31-1.27-3,.75-1.7,4.84-3.77,9.55-5.32,14.43-5.87,18.58-10.34,37.37-7.27,57.1,1.9,22.57,23.62,47.82,41,47.33A174.59,174.59,0,0,1,262.92,734.7Z" transform="translate(-203.56 -347.45)" fill="#040302"/><path d="M222.64,569.48c-2.79-9.55-3.72-19.39-4-29.26-.14-5.5-1.81-9.23-7.39-10.6.19-4.94.08-9.9,1-14.79,5.23-.66,7.53-3.69,8.32-8.87,5.33-34.74,18.12-66.63,37.2-96.06,4-6.19,3.83-8.54-1.44-13.85a132.52,132.52,0,0,1-20.34-26.17c112.25,34.76,224,34.81,336.1,0a130.18,130.18,0,0,1-19.94,25.75c-6,6.12-6.05,7.72-1.45,15C574.68,448.26,589.12,489,589.65,534a125.08,125.08,0,0,1-3.9,34.48c-2.08.28-2.36,2.16-3,3.58a104.35,104.35,0,0,1-16.58,24.59c-14.26,16-31.86,27.29-51.57,35.3-30.68,12.47-63,16.89-95.78,18-25.44.91-50.83-.26-76-4.72-24.76-4.39-48.7-11-70.4-24-17.68-10.64-32.48-24.3-43.27-42.15C227.12,575.84,226.55,571.47,222.64,569.48Zm23.64-37.56a108,108,0,0,0,1.14,15c2.32,18.46,7,36.19,18.41,51.32,25.86,34.36,76.92,40,111.88,12.44,3.15-2.48,4.58-2.61,7.25.65,9.74,11.94,23.23,13.51,34,4.3,2.71-2.31,5.2-7,7.7-6.92,3.15.07,6.14,4,9.31,6.08,40.91,27,96.34,12.17,115-32,16.12-38.08,15.27-76.81-2.93-114.13-17.47-35.79-57.05-53.61-95.6-44.44-18.15,4.31-33.13,14.05-45.79,27.49-2.15,2.29-3.18,2.28-5.28,0a112.61,112.61,0,0,0-10.56-9.8,85.39,85.39,0,0,0-130.29,25.33C250.26,486.44,246.5,507.33,246.28,531.92Z" transform="translate(-203.56 -347.45)" fill="#db8757"/><path d="M545.24,734.77a173.82,173.82,0,0,0-.08-52.91,225.37,225.37,0,0,0-4.93-23.27c-.44-1.63-1.43-3.39.88-4.77A139.1,139.1,0,0,0,566.75,634a108,108,0,0,1,7,17.91c1.55,5.05,4.55,7.47,9.83,7,.81,4.73,2.61,9.27,2.72,14.14-4.47,2.28-6,5.78-5.48,10.84.81,7.32,1.22,14.7,0,22a72.9,72.9,0,0,1-13.61,16.19C560.67,727.68,553.78,732.67,545.24,734.77Z" transform="translate(-203.56 -347.45)" fill="#db8757"/><path d="M278.49,734.76c-.67-3.86-1.69-7.7-1.93-11.59-.34-5.47-3-8.43-8.26-9.26q0-7.32-.08-14.65c6.24-.73,8.24-2.67,8.88-9.14a204.09,204.09,0,0,1,4.38-24.42c.57-2.52,1.29-3.46,4.22-2.17,32,14.09,65.92,19.24,100.61,20.63,36,1.44,71.54-.82,106.47-10.09a196.35,196.35,0,0,0,29-10.2c2.09-.92,3.76-2,4.66,1.61,5.66,22.43,7.82,45,3.49,67.94a17.08,17.08,0,0,1-.79,2.35c-1.92.05-2.22,1.73-3,3A94.64,94.64,0,0,1,486.64,775c-19.42,9.71-40.26,13.87-61.54,15.27a283.72,283.72,0,0,1-47.88-.64c-16.85-1.73-33.34-4.83-48.89-11.55-19.38-8.38-35.86-20.44-46.25-39.51C281.26,737.1,280.57,735.2,278.49,734.76Z" transform="translate(-203.56 -347.45)" fill="#ac5d2e"/><path d="M222.64,569.48c3.91,2,4.48,6.36,6.45,9.62,10.79,17.85,25.59,31.51,43.27,42.15,21.7,13.07,45.64,19.64,70.4,24,25.2,4.46,50.59,5.63,76,4.72,32.76-1.16,65.1-5.58,95.78-18,19.71-8,37.31-19.33,51.57-35.3a104.35,104.35,0,0,0,16.58-24.59c.67-1.42.95-3.3,3-3.58-6.73,31.18-24.17,54.78-51,71.62-23.45,14.74-49.53,22.06-76.65,25.81a382.34,382.34,0,0,1-113.48-.86c-29.95-4.82-58.36-13.86-82.62-33C241.5,615.94,228.24,595.08,222.64,569.48Z" transform="translate(-203.56 -347.45)" fill="#d67e49"/><path d="M278.49,734.76c2.08.44,2.77,2.34,3.59,3.84,10.39,19.07,26.87,31.13,46.25,39.51,15.55,6.72,32,9.82,48.89,11.55a283.72,283.72,0,0,0,47.88.64c21.28-1.4,42.12-5.56,61.54-15.27a94.64,94.64,0,0,0,39.56-36.3c.75-1.23,1-2.91,3-3a77.59,77.59,0,0,1-19.23,39.63c-15.57,17.49-36,26.37-58.3,30.71C416.28,813,380.81,813,345.85,803.4c-27-7.43-48.78-22-61-48.38A76.51,76.51,0,0,1,278.49,734.76Z" transform="translate(-203.56 -347.45)" fill="#9e5428"/><path d="M268.22,699.26q0,7.32.08,14.65c-6.73,3.24-7.61,5-6.51,12.44.41,2.78.75,5.57,1.13,8.35-13.19-4.08-23.5-12.09-31.65-23.1-1-1.38-1.53-3.4-3.68-3.72-3.07-19.73,1.4-38.52,7.27-57.1,1.55-4.88,3.62-9.59,5.32-14.43.72-2,1.45-2.3,3-.75a126.71,126.71,0,0,0,23.64,18.1c2.47,1.49,1.51,3.32,1,5.17a207.85,207.85,0,0,0-5.87,30.7C261.42,694.66,263.19,697.92,268.22,699.26Z" transform="translate(-203.56 -347.45)" fill="#da8657"/><path d="M545.24,734.77c8.54-2.1,15.43-7.09,22-12.65a72.9,72.9,0,0,0,13.61-16.19c-1,22.9-18.35,44.25-40.53,49.91a4.5,4.5,0,0,0-.69-.62Q542.42,745,545.24,734.77Z" transform="translate(-203.56 -347.45)" fill="#d47c48"/><path d="M227.59,707.88c2.15.32,2.65,2.34,3.68,3.72,8.15,11,18.46,19,31.65,23.1a174.59,174.59,0,0,0,5.64,20.51C251.21,755.7,229.49,730.45,227.59,707.88Z" transform="translate(-203.56 -347.45)" fill="#d47c48"/><path d="M540.28,755.84l-.64.54c0-.39,0-.77,0-1.16A5,5,0,0,1,540.28,755.84Z" transform="translate(-203.56 -347.45)" fill="#d47c48"/><path d="M246.28,531.92c.22-24.59,4-45.48,14.31-64.76a85.39,85.39,0,0,1,130.29-25.33,112.61,112.61,0,0,1,10.56,9.8c2.1,2.27,3.13,2.28,5.28,0,12.66-13.44,27.64-23.18,45.79-27.49,38.55-9.17,78.13,8.65,95.6,44.44,18.2,37.32,19,76.05,2.93,114.13-18.71,44.21-74.14,59.09-115,32-3.17-2.09-6.16-6-9.31-6.08-2.5-.06-5,4.61-7.7,6.92-10.79,9.21-24.28,7.64-34-4.3-2.67-3.26-4.1-3.13-7.25-.65-35,27.58-86,21.92-111.88-12.44-11.39-15.13-16.09-32.86-18.41-51.32A108,108,0,0,1,246.28,531.92Zm174.18,44.56c.49-1.63-.71-3-.66-4.67.14-5.52-3.77-10.39-9.08-12.24-12.93-4.51-23.31,3.15-22.89,16.9A36.29,36.29,0,0,0,396,601.35q8.07,10.33,16.25,0A37.65,37.65,0,0,0,420.46,576.48Zm123.59-21.93c5.52-27.64,3.42-54.53-9.53-79.79-14.6-28.47-44.88-42.84-76.29-36.59-19.58,3.9-34.57,15.31-46.69,30.77-5.33,6.81-9.68,6.83-15-.1A90.36,90.36,0,0,0,380.88,453C348.46,427.16,301.72,432.74,279,466c-18.39,27-20.89,57.22-14.93,88.61,2,13.49,6.58,26,15.24,36.57,21,25.72,60.83,29.22,88.67,8.3,5.14-3.87,8.24-7.61,5.35-14.24-.76-1.74-.59-3.89-.85-5.85.11-2.65.13-5.3.35-7.94,1.28-15.31,12.31-26.43,27.51-27.76,16.79-1.48,29.75,6.93,33.86,22a53.42,53.42,0,0,1,1.48,12.79c-.66,3.91-1.2,7.84-2,11.71-.45,2.15-.2,3.68,1.58,5.21C455.35,612.68,478,618,503.14,609,528.46,600,539.85,579.8,544.05,554.55Z" transform="translate(-203.56 -347.45)" fill="#040302"/><path d="M435.72,578.46a53.42,53.42,0,0,0-1.48-12.79c-4.11-15-17.07-23.45-33.86-22-15.2,1.33-26.23,12.45-27.51,27.76-.22,2.64-.24,5.29-.35,7.94a16.79,16.79,0,0,0-3.16,1.35A72.58,72.58,0,0,1,324,593.46c-17.19-.76-31.87-7.11-44.74-18.35-6.61-5.77-10.48-13.41-15.19-20.49-6-31.39-3.46-61.65,14.93-88.61,22.68-33.27,69.42-38.85,101.84-13.06a90.36,90.36,0,0,1,15.68,15.89c5.3,6.93,9.65,6.91,15,.1,12.12-15.46,27.11-26.87,46.69-30.77,31.41-6.25,61.69,8.12,76.29,36.59,13,25.26,15.05,52.15,9.53,79.79a24.76,24.76,0,0,0-1.64,2.44c-6.4,12.41-15.62,22.24-28.17,28.34C486.82,598.66,460.54,596.26,435.72,578.46ZM347,522.86c-.11-7.46-2-14.37-6.85-20.21-7.69-9.2-20.2-9.26-28-.21-9.29,10.74-9.35,30.08-.12,40.91,8,9.44,20.39,9.39,28.28-.18C345.14,537.3,346.94,530.37,347,522.86Zm156.09,0c-.38-7.23-1.92-13.92-6.45-19.63-7.85-9.91-20.49-10.17-28.7-.59-9.14,10.68-9,30.5.33,41,7.77,8.79,19.51,8.89,27.4.16C501.09,537.9,502.77,530.56,503.1,522.91Z" transform="translate(-203.56 -347.45)" fill="#fde7c7"/><path d="M264.11,554.62c4.71,7.08,8.58,14.72,15.19,20.49,12.87,11.24,27.55,17.59,44.74,18.35a72.58,72.58,0,0,0,45.32-12.71,16.79,16.79,0,0,1,3.16-1.35c.26,2,.09,4.11.85,5.85,2.89,6.63-.21,10.37-5.35,14.24-27.84,20.92-67.65,17.42-88.67-8.3C270.69,580.59,266.08,568.11,264.11,554.62Z" transform="translate(-203.56 -347.45)" fill="#fbd9a5"/><path d="M435.72,578.46c24.82,17.8,51.1,20.2,78.52,6.87,12.55-6.1,21.77-15.93,28.17-28.34a24.76,24.76,0,0,1,1.64-2.44C539.85,579.8,528.46,600,503.14,609c-25.1,9-47.79,3.65-67.87-13.65-1.78-1.53-2-3.06-1.58-5.21C434.52,586.3,435.06,582.37,435.72,578.46Z" transform="translate(-203.56 -347.45)" fill="#fcd9a5"/><path d="M387.83,576.47c-.42-13.75,10-21.41,22.89-16.9,5.31,1.85,9.22,6.72,9.08,12.24-.05,1.71,1.15,3,.66,4.67-1.31.61-1.66,2-2.46,3-6.13,7.84-15,9.73-22.59,4.7C392.36,582.19,390.11,579.29,387.83,576.47Z" transform="translate(-203.56 -347.45)" fill="#fca612"/><path d="M387.83,576.47c2.28,2.82,4.53,5.72,7.58,7.73,7.62,5,16.46,3.14,22.59-4.7.8-1,1.15-2.41,2.46-3a37.65,37.65,0,0,1-8.26,24.88q-8.2,10.33-16.25,0A36.29,36.29,0,0,1,387.83,576.47Z" transform="translate(-203.56 -347.45)" fill="#fa9700"/><path d="M347,522.86c-.07,7.51-1.87,14.44-6.72,20.31-7.89,9.57-20.24,9.62-28.28.18-9.23-10.83-9.17-30.17.12-40.91,7.83-9.05,20.34-9,28,.21C345,508.49,346.9,515.4,347,522.86Z" transform="translate(-203.56 -347.45)" fill="#030202"/><path d="M503.1,522.91c-.33,7.65-2,15-7.42,21-7.89,8.73-19.63,8.63-27.4-.16-9.31-10.53-9.47-30.35-.33-41,8.21-9.58,20.85-9.32,28.7.59C501.18,509,502.72,515.68,503.1,522.91Z" transform="translate(-203.56 -347.45)" fill="#030202"/></svg>