<svg id="Capa_1" data-name="Capa 1" xmlns="http://www.w3.org/2000/svg" viewBox="0 0 262.5 383.18"><path d="M369,857.93c-2.28-1.83-5.25-1.89-7.8-3-11.71-5.3-20.51-14-28.35-23.85a126,126,0,0,1-11.47-17c-1.16-2.06-1.93-2.52-3.92-.74A156.06,156.06,0,0,1,279,838.09c-14.46,6.72-28.5-1.07-30.59-16.82-4-30-5.86-60.06-3.75-90.28,2.27-32.51,8.26-64.15,23.19-93.55,8.33-16.4,19.14-30.91,33.3-42.79a4.53,4.53,0,0,0,1.79-5.09,52.72,52.72,0,0,1,2.3-30.48c.76-2.06.79-3.39-.91-5.17a23.6,23.6,0,0,1-.51-32.51,24,24,0,0,1,32.52-2.91,3,3,0,0,1,.57.48c1.55,2,3.22,1,4.39-.18,1.35-1.42-.6-2.09-1.29-2.81-9.37-9.86-18.82-19.65-28.24-29.46a21.73,21.73,0,0,1-2.51-2.76c-1.64-2.46-1.64-5,.47-7.16s4.84-2.4,7.43-.55a18.35,18.35,0,0,1,2.41,2.34c10.47,10.89,21,21.76,31.35,32.72,1.39,1.46,2.57,2.08,4.42,1,.95-.57,2.09-.81,3.08-1.34,12.24-6.52,24.25-4.78,36.08,1.12,2.15,1.07,3.39.75,5-1,10.19-10.79,20.53-21.46,30.83-32.16a22.76,22.76,0,0,1,2.67-2.62c2.57-1.91,5.2-1.77,7.43.49s2.16,4.7.49,7.15a27.77,27.77,0,0,1-3,3.34c-9.17,9.54-18.37,19.05-27.49,28.63-.79.82-2.83,1.55-1.53,3.08,1.11,1.3,2.52,1.64,4.41.18,10.51-8.1,24.16-7.05,32.78,2.27s8.42,23.15-.69,33.12c-1,1.09-1.54,1.81-.9,3.49,4.07,10.6,5.2,21.49,2.56,32.64a3.16,3.16,0,0,0,1.18,3.56c27,22.88,41.41,53.05,49.64,86.63,7.53,30.75,9.25,62,8,93.55-.64,15.7-2.18,31.32-4.19,46.91-2.05,15.93-16.29,23.76-30.83,16.89a160.45,160.45,0,0,1-38.47-24.9c-1.71-1.52-2.35-1.22-3.48.63-2.9,4.78-5.85,9.57-9.19,14.06-10.4,14-22.37,26-40.19,30.13Zm67.22-287.71c-1.4.55-2.44.92-3.46,1.36-15.9,6.79-31.82,13.54-47.69,20.4-6,2.59-12,3.23-18.14.73Q360.2,590,353.54,587c-3.71-1.64-5.06-4.66-3.63-7.78,1.34-2.93,4.41-4,7.91-2.58,4.27,1.73,8.5,3.56,12.71,5.4a10.21,10.21,0,0,0,8.36.29c17.42-7.37,34.79-14.83,52.22-22.19,1.64-.69,1.6-1.36.88-2.73a59.62,59.62,0,0,0-8.16-12C411.1,531,394.7,522.75,376.51,517.57a6.57,6.57,0,0,0-3.67.23,109.84,109.84,0,0,0-26.43,11.09c-11.64,7-21.46,15.75-28,27.88-1.12,2.08-.83,2.82,1.35,3.62,3.73,1.38,7.32,3.11,11,4.69,5,2.15,6.67,4.8,5.28,8.27s-4.59,4.22-9.55,2.11c-3-1.27-6-2.4-8.9-3.88s-4.19-1.32-4.44,2.43c-.45,6.56-.75,13.38,2.73,18.88,3.76,6,8.17,11.59,12.35,17.32a4.37,4.37,0,0,0,4,2q42.7-.06,85.41,0A4.6,4.6,0,0,0,422,610c3.29-4.84,6.73-9.57,10.11-14.36,1.2-1.69,2.95-2.95,3.48-5.17C437.14,583.87,438,577.25,436.22,570.22Zm-28.06,78.39c-4.83,7-9.56,13.71-14.05,20.57a12.81,12.81,0,0,0-1.78,5.63c-2.55,28.69,1.48,56.37,12.91,82.91.88,2,1.67,2.54,3.77,1.37,7.72-4.31,15.5-8.52,23.37-12.56,2.09-1.07,2.31-2.29,2.15-4.4a287.27,287.27,0,0,0-7.9-48.61c-1-4.12.29-6.88,3.56-7.78,3.49-1,6.15.75,7.23,5,1.64,6.51,3.09,13.06,4.69,19.88,5.44-2.72,10.85-5.49,16.33-8.12,1.43-.69,1.22-1.57,1-2.73-4.34-20.83-10.9-40.83-22-59.16a113.73,113.73,0,0,0-11.79-16.45c-3.08,4.34-5.87,8.47-8.88,12.43-1.18,1.56-1.13,2.64-.11,4.24A156.24,156.24,0,0,1,428,662.7c.7,1.61,1.44,3.26.79,5a5.44,5.44,0,0,1-4.91,4A5.5,5.5,0,0,1,418,668,147.35,147.35,0,0,0,408.16,648.61Zm9.5,162.18c-12.83,0-24.82,0-36.8,0-4.39,0-6.91-2.07-6.93-5.56s2.52-5.64,6.87-5.65c11.36,0,22.73,0,34.1,0,1,0,2.2.48,3.24-.52a142.87,142.87,0,0,1-21.49-33.1c-.86-1.87-2.24-1.6-3.7-1.6-11.86,0-23.73.1-35.6-.08-2.6,0-3.68.93-4.7,3.08a141,141,0,0,1-19.13,29.77c-.56.68-1.72,1.14-1.32,2.49,6.88,0,13.75-.07,20.62,0,3.71,0,6.08,2.45,6,5.74s-2.37,5.31-5.9,5.44c-2.12.08-4.25,0-6.37,0H332.41c8.31,12.8,16.76,24.28,29.47,31.87,8.74,5.21,17.47,5.27,26.2.1C400.89,835.16,409.42,823.64,417.66,810.79Zm-75.8-162.13c-.84,1.36-1.48,2.24-2,3.2-2.25,4.43-4.64,8.8-6.63,13.34-10.92,24.91-15.8,51.21-17.95,78.13-.15,1.85.85,2.36,2.08,3,7.69,4.09,15.45,8,23,12.38,2.79,1.6,3.56.85,4.68-1.74,10.32-24,14.23-49.1,13.19-75.06-.18-4.43.06-9.12-2.52-13C351.32,662.15,346.63,655.58,341.86,648.66Zm153,92.51c-1.32-26.09-4.82-51.79-13.38-76.6-7.92-22.93-19.67-43.45-38-59.85-1.86-1.68-2.88-2.22-4.35.33a54.7,54.7,0,0,1-5.19,7.31c-1.37,1.66-1.28,2.73.14,4.4A149.87,149.87,0,0,1,459,659c12.35,31.1,16.73,63.62,17.39,96.81.16,7.84.14,7.86,7.29,4.28,3.76-1.89,9.12-2.73,10.79-6.05S494.86,745.53,494.86,741.17ZM255.06,741c0,3.74.1,7.48-.05,11.22a3.08,3.08,0,0,0,2.1,3.38c4.29,2,8.47,4.21,12.71,6.32,3.64,1.81,3.68,1.8,3.71-2.27.18-23.49,2.41-46.76,7.78-69.68,6-25.6,15.71-49.52,32.21-70.34,4-5.07,4-5.06.29-10.29-5-7.08-5-7-11.17-1-17.33,17-28.28,37.73-35.58,60.57C259.59,692.34,256.38,716.48,255.06,741Zm82.7-117.34c8.59,12.1,16.77,23.66,25,35.19A31.63,31.63,0,0,1,369,674.19a207.69,207.69,0,0,1,.69,23.14c0,2.8-1.92,6.53.09,8.11,1.8,1.41,5.5.3,8.34.53,2.34.2,3-.52,2.75-2.89-.86-6.82-.47-13.69-.47-20.54a42.27,42.27,0,0,1,9.06-27c6.59-8.43,12.48-17.4,18.68-26.13,1.27-1.79,2.54-3.57,4.1-5.78Zm-49.49,89.81c-.36,2.39-.7,4.35-.94,6.32-4,32.69-3.09,65.34.65,98,.32,2.85,1.3,2.33,2.92,1.21,3.89-2.69,7.75-5.43,11.71-8a4.13,4.13,0,0,0,2-4.36c-.85-10.68-1.44-21.37-1.51-32.08a360.78,360.78,0,0,1,2.83-49.17c.21-1.57.56-3-1.58-4C299,719,293.87,716.22,288.27,713.43Zm173.51,0c-5.26,2.64-9.94,5.24-14.84,7.34-2.75,1.18-3.19,2.72-2.84,5.44a354.84,354.84,0,0,1,1.49,76.12c-.44,5.17.49,8.76,5.27,11.23a77.74,77.74,0,0,1,8.11,5.35c1.83,1.24,2.89,1.61,3.08-1.4.36-6,1.2-11.9,1.68-17.86C466,771,466,742.37,461.78,713.41ZM324.24,624c-.44.64-.69,1.08-1,1.46-17.82,21.9-27.07,47.55-32.76,74.74a1.77,1.77,0,0,0,1.15,2.33c5.45,2.64,10.85,5.37,16.27,8.07a4.2,4.2,0,0,0,.3-.6c4.77-24.7,12.15-48.44,25.61-70a2,2,0,0,0,0-2.65C330.65,633.11,327.59,628.74,324.24,624Zm-69.15,143.1c.14,3,.25,5.42.35,7.86.64,14.82,2.1,29.55,4,44.25,1.2,9.08,7,12.34,15.38,8.46,2.11-1,3-2,2.64-4.45a399.65,399.65,0,0,1-3.75-44.65c0-1.12.05-2.22-1.23-2.85C266.86,773,261.22,770.15,255.09,767.12Zm239.8,0c-6,3-11.66,5.78-17.32,8.55a2.37,2.37,0,0,0-1.32,2.42,452.39,452.39,0,0,1-3.72,45.78c-.12.88-.68,2.06.55,2.67,3.44,1.71,6.73,3.88,10.93,2.31,4-1.49,5.85-4.44,6.36-8.44.71-5.55,1.4-11.11,2-16.68C493.73,791.77,494.4,779.73,494.89,767.15Zm-120-14.07c4.49,0,9-.08,13.47,0,2.2.06,2.84-.29,2-2.67a170.9,170.9,0,0,1-6.21-22.24c-.79-3.6.14-8.77-2.45-10.45-2.74-1.78-7.47-.42-11.31-.63-2.09-.11-2.66.67-2.95,2.67a157.35,157.35,0,0,1-7.65,30.69c-.91,2.52,0,2.67,2,2.63C366.1,753,370.47,753.08,374.84,753.08Zm-59.51,46.81a131.55,131.55,0,0,0,22.09-28c.54-.9,1-1.63-.37-2.34-7.41-3.91-14.79-7.9-22.49-12A416.46,416.46,0,0,0,315.33,799.89Zm120-42.23C428,761.57,421.07,765.37,414,769c-2.19,1.11-2.05,2-.92,3.87a133.44,133.44,0,0,0,19.2,24.74c.63.63,1,1.78,2.47,1.49C435.42,785.42,436.09,771.81,435.36,757.66ZM311.84,545.59a80.81,80.81,0,0,1,15.6-17c1.8-1.42,1-2-.52-2.78a13,13,0,0,0-15,3.27C308,533.63,307.82,539.73,311.84,545.59Zm126.33-.18c3.89-5.28,3.89-11.44.21-16a12.83,12.83,0,0,0-15.16-3.61c-.9.44-2.92.77-.91,2.4A85.8,85.8,0,0,1,438.17,545.41Z" transform="translate(-243.73 -474.75)" fill="#040404"/><path d="M436.22,570.22c1.73,7,.92,13.65-.66,20.26-.53,2.22-2.28,3.48-3.48,5.17-3.38,4.79-6.82,9.52-10.11,14.36a4.6,4.6,0,0,1-4.32,2.2q-42.7-.09-85.41,0a4.37,4.37,0,0,1-4-2c-4.18-5.73-8.59-11.37-12.35-17.32-3.48-5.5-3.18-12.32-2.73-18.88.25-3.75,1.49-4,4.44-2.43s5.92,2.61,8.9,3.88q7.44,3.16,9.55-2.11c1.39-3.47-.3-6.12-5.28-8.27-3.65-1.58-7.24-3.31-11-4.69-2.18-.8-2.47-1.54-1.35-3.62,6.54-12.13,16.36-20.92,28-27.88a109.84,109.84,0,0,1,26.43-11.09,6.57,6.57,0,0,1,3.67-.23c18.19,5.18,34.59,13.4,47.32,27.82a59.62,59.62,0,0,1,8.16,12c.72,1.37.76,2-.88,2.73-17.43,7.36-34.8,14.82-52.22,22.19a10.21,10.21,0,0,1-8.36-.29c-4.21-1.84-8.44-3.67-12.71-5.4-3.5-1.42-6.57-.35-7.91,2.58-1.43,3.12-.08,6.14,3.63,7.78q6.65,3,13.39,5.71c6.14,2.5,12.14,1.86,18.14-.73,15.87-6.86,31.79-13.61,47.69-20.4C433.78,571.14,434.82,570.77,436.22,570.22Z" transform="translate(-243.73 -474.75)" fill="#877c77"/><path d="M408.16,648.61A147.35,147.35,0,0,1,418,668a5.5,5.5,0,0,0,5.86,3.72,5.44,5.44,0,0,0,4.91-4c.65-1.78-.09-3.43-.79-5a156.24,156.24,0,0,0-11.31-21.84c-1-1.6-1.07-2.68.11-4.24,3-4,5.8-8.09,8.88-12.43a113.73,113.73,0,0,1,11.79,16.45c11.09,18.33,17.65,38.33,22,59.16.24,1.16.45,2-1,2.73-5.48,2.63-10.89,5.4-16.33,8.12-1.6-6.82-3.05-13.37-4.69-19.88-1.08-4.28-3.74-6-7.23-5-3.27.9-4.6,3.66-3.56,7.78a287.27,287.27,0,0,1,7.9,48.61c.16,2.11-.06,3.33-2.15,4.4-7.87,4-15.65,8.25-23.37,12.56-2.1,1.17-2.89.68-3.77-1.37-11.43-26.54-15.46-54.22-12.91-82.91a12.81,12.81,0,0,1,1.78-5.63C398.6,662.32,403.33,655.63,408.16,648.61Z" transform="translate(-243.73 -474.75)" fill="#4db55c"/><path d="M417.66,810.79c-8.24,12.85-16.77,24.37-29.58,32-8.73,5.17-17.46,5.11-26.2-.1-12.71-7.59-21.16-19.07-29.47-31.87h14.13c2.12,0,4.25.06,6.37,0,3.53-.13,5.82-2.29,5.9-5.44s-2.28-5.69-6-5.74c-6.87-.09-13.74,0-20.62,0-.4-1.35.76-1.81,1.32-2.49a141,141,0,0,0,19.13-29.77c1-2.15,2.1-3.12,4.7-3.08,11.87.18,23.74.08,35.6.08,1.46,0,2.84-.27,3.7,1.6A142.87,142.87,0,0,0,418.14,799c-1,1-2.21.52-3.24.52-11.37.05-22.74,0-34.1,0-4.35,0-6.89,2.15-6.87,5.65s2.54,5.56,6.93,5.56C392.84,810.8,404.83,810.79,417.66,810.79Z" transform="translate(-243.73 -474.75)" fill="#d57e49"/><path d="M341.86,648.66c4.77,6.92,9.46,13.49,13.88,20.23,2.58,3.92,2.34,8.61,2.52,13,1,26-2.87,51.06-13.19,75.06-1.12,2.59-1.89,3.34-4.68,1.74-7.55-4.34-15.31-8.29-23-12.38-1.23-.66-2.23-1.17-2.08-3,2.15-26.92,7-53.22,17.95-78.13,2-4.54,4.38-8.91,6.63-13.34C340.38,650.9,341,650,341.86,648.66Z" transform="translate(-243.73 -474.75)" fill="#4db55c"/><path d="M494.86,741.17c0,4.36,1.36,9.4-.39,12.87s-7,4.16-10.79,6.05c-7.15,3.58-7.13,3.56-7.29-4.28-.66-33.19-5-65.71-17.39-96.81a149.87,149.87,0,0,0-24.9-42.24c-1.42-1.67-1.51-2.74-.14-4.4a54.7,54.7,0,0,0,5.19-7.31c1.47-2.55,2.49-2,4.35-.33,18.31,16.4,30.06,36.92,38,59.85C490,689.38,493.54,715.08,494.86,741.17Z" transform="translate(-243.73 -474.75)" fill="#4db55c"/><path d="M255.06,741c1.32-24.48,4.53-48.62,12-72.05,7.3-22.84,18.25-43.57,35.58-60.57,6.18-6.06,6.13-6.12,11.17,1,3.73,5.23,3.72,5.22-.29,10.29-16.5,20.82-26.2,44.74-32.21,70.34-5.37,22.92-7.6,46.19-7.78,69.68,0,4.07-.07,4.08-3.71,2.27-4.24-2.11-8.42-4.32-12.71-6.32a3.08,3.08,0,0,1-2.1-3.38C255.16,748.44,255.06,744.7,255.06,741Z" transform="translate(-243.73 -474.75)" fill="#4db55c"/><path d="M337.76,623.62h74.46c-1.56,2.21-2.83,4-4.1,5.78-6.2,8.73-12.09,17.7-18.68,26.13a42.27,42.27,0,0,0-9.06,27c0,6.85-.39,13.72.47,20.54.3,2.37-.41,3.09-2.75,2.89-2.84-.23-6.54.88-8.34-.53-2-1.58-.13-5.31-.09-8.11a207.69,207.69,0,0,0-.69-23.14,31.63,31.63,0,0,0-6.21-15.38C354.53,647.28,346.35,635.72,337.76,623.62Z" transform="translate(-243.73 -474.75)" fill="#d57e49"/><path d="M288.27,713.43c5.6,2.79,10.76,5.53,16.06,7.94,2.14,1,1.79,2.4,1.58,4a360.78,360.78,0,0,0-2.83,49.17c.07,10.71.66,21.4,1.51,32.08a4.13,4.13,0,0,1-2,4.36c-4,2.57-7.82,5.31-11.71,8-1.62,1.12-2.6,1.64-2.92-1.21-3.74-32.65-4.62-65.3-.65-98C287.57,717.78,287.91,715.82,288.27,713.43Z" transform="translate(-243.73 -474.75)" fill="#4db55c"/><path d="M461.78,713.41c4.2,29,4.26,57.57,2,86.22-.48,6-1.32,11.89-1.68,17.86-.19,3-1.25,2.64-3.08,1.4a77.74,77.74,0,0,0-8.11-5.35c-4.78-2.47-5.71-6.06-5.27-11.23a354.84,354.84,0,0,0-1.49-76.12c-.35-2.72.09-4.26,2.84-5.44C451.84,718.65,456.52,716.05,461.78,713.41Z" transform="translate(-243.73 -474.75)" fill="#4db55c"/><path d="M324.24,624c3.35,4.72,6.41,9.09,9.55,13.39a2,2,0,0,1,0,2.65c-13.46,21.52-20.84,45.26-25.61,70a4.2,4.2,0,0,1-.3.6c-5.42-2.7-10.82-5.43-16.27-8.07a1.77,1.77,0,0,1-1.15-2.33c5.69-27.19,14.94-52.84,32.76-74.74C323.55,625.1,323.8,624.66,324.24,624Z" transform="translate(-243.73 -474.75)" fill="#4db55c"/><path d="M255.09,767.12c6.13,3,11.77,5.85,17.43,8.62,1.28.63,1.19,1.73,1.23,2.85a399.65,399.65,0,0,0,3.75,44.65c.34,2.44-.53,3.47-2.64,4.45-8.35,3.88-14.18.62-15.38-8.46-1.94-14.7-3.4-29.43-4-44.25C255.34,772.54,255.23,770.1,255.09,767.12Z" transform="translate(-243.73 -474.75)" fill="#4db55c"/><path d="M494.89,767.15c-.49,12.58-1.16,24.62-2.5,36.61-.62,5.57-1.31,11.13-2,16.68-.51,4-2.39,6.95-6.36,8.44-4.2,1.57-7.49-.6-10.93-2.31-1.23-.61-.67-1.79-.55-2.67a452.39,452.39,0,0,0,3.72-45.78,2.37,2.37,0,0,1,1.32-2.42C483.23,772.93,488.87,770.12,494.89,767.15Z" transform="translate(-243.73 -474.75)" fill="#4db55c"/><path d="M374.84,753.08c-4.37,0-8.74-.06-13.1,0-2.05,0-2.95-.11-2-2.63a157.35,157.35,0,0,0,7.65-30.69c.29-2,.86-2.78,2.95-2.67,3.84.21,8.57-1.15,11.31.63,2.59,1.68,1.66,6.85,2.45,10.45a170.9,170.9,0,0,0,6.21,22.24c.88,2.38.24,2.73-2,2.67C383.82,753,379.33,753.08,374.84,753.08Z" transform="translate(-243.73 -474.75)" fill="#d57e49"/><path d="M315.33,799.89a416.46,416.46,0,0,1-.77-42.32c7.7,4.12,15.08,8.11,22.49,12,1.36.71.91,1.44.37,2.34A131.55,131.55,0,0,1,315.33,799.89Z" transform="translate(-243.73 -474.75)" fill="#4db55c"/><path d="M435.36,757.66c.73,14.15.06,27.76-.6,41.39-1.45.29-1.84-.86-2.47-1.49a133.44,133.44,0,0,1-19.2-24.74c-1.13-1.84-1.27-2.76.92-3.87C421.07,765.37,428,761.57,435.36,757.66Z" transform="translate(-243.73 -474.75)" fill="#4db55c"/><path d="M311.84,545.59c-4-5.86-3.88-12,.09-16.49a13,13,0,0,1,15-3.27c1.53.74,2.32,1.36.52,2.78A80.81,80.81,0,0,0,311.84,545.59Z" transform="translate(-243.73 -474.75)" fill="#494442"/><path d="M438.17,545.41a85.8,85.8,0,0,0-15.86-17.18c-2-1.63,0-2,.91-2.4a12.83,12.83,0,0,1,15.16,3.61C442.06,534,442.06,540.13,438.17,545.41Z" transform="translate(-243.73 -474.75)" fill="#494442"/></svg>