<svg id="Capa_1" data-name="Capa 1" xmlns="http://www.w3.org/2000/svg" viewBox="0 0 383.88 383.17"><path d="M533.2,708.7c0-12.84-.06-25.67,0-38.5,0-2.26-.53-3-2.89-2.93-10.36.14-20.72.12-31.08,0-2.33,0-3.25.45-3.24,3.06q.16,38.11,0,76.24c0,2.37.74,2.89,3,2.86,10.36-.11,20.72-.16,31.08,0,2.81,0,3.17-1,3.14-3.4C533.14,733.61,533.2,721.16,533.2,708.7Z" transform="translate(-183.06 -474.79)" fill="none"/><path d="M205.55,726.25V615.13a20.16,20.16,0,0,0-.1-3.73c-.57-3.08-2.44-4.92-5.67-4.86-3.05.06-4.8,1.88-5.37,4.78a17.08,17.08,0,0,0-.1,3.36V838.41a18.75,18.75,0,0,0,.09,3.36c.58,3.1,2.49,5,5.67,4.88,3-.06,4.83-1.88,5.37-4.8a20.1,20.1,0,0,0,.11-3.73Z" transform="translate(-183.06 -474.79)" fill="#020202"/><path d="M235.12,780.15c5.48,0,11-.06,16.45,0,1.8,0,2.38-.52,2.34-2.32q-.15-7.47,0-14.93c0-1.76-.48-2.37-2.32-2.35q-16.26.1-32.53,0c-1.82,0-2.33.57-2.29,2.33.1,5,.15,10,0,14.92-.07,2.18.91,2.37,2.66,2.34C224.65,780.1,229.88,780.15,235.12,780.15Z" transform="translate(-183.06 -474.79)" fill="#020202"/><path d="M514.84,780.15c5.36,0,10.72-.06,16.08,0,1.78,0,2.35-.5,2.31-2.3-.11-5-.09-9.95,0-14.93,0-1.7-.36-2.39-2.24-2.38q-16.28.13-32.53,0c-1.76,0-2.41.49-2.37,2.31.1,5,.14,10,0,14.92-.07,2.16.94,2.38,2.68,2.36C504.12,780.11,509.48,780.15,514.84,780.15Z" transform="translate(-183.06 -474.79)" fill="#020202"/><path d="M282.87,760.62c-5.12,0-10.24.06-15.35,0-1.72,0-2.46.43-2.42,2.28.1,5,.09,10,0,15,0,1.75.48,2.39,2.32,2.37,10.11-.07,20.22-.1,30.33,0,2.19,0,2.37-.94,2.34-2.67-.08-4.73-.19-9.48,0-14.2.11-2.52-.93-2.82-3-2.76C292.36,760.71,287.61,760.62,282.87,760.62Z" transform="translate(-183.06 -474.79)" fill="#020202"/><path d="M328.87,760.62c-5.1,0-10.21,0-15.32,0-1.44,0-2.31.19-2.27,2,.09,5.22.07,10.45,0,15.67,0,1.45.49,1.93,1.93,1.93q15.51-.06,31,0c1.63,0,2.16-.55,2.13-2.16-.07-5-.11-9.95,0-14.92.05-2-.64-2.56-2.57-2.52C338.84,760.69,333.86,760.62,328.87,760.62Z" transform="translate(-183.06 -474.79)" fill="#020202"/><path d="M420.73,780.16c5.11,0,10.22,0,15.33,0,1.72,0,2.75-.15,2.68-2.34-.16-5-.12-10,0-14.92,0-1.76-.49-2.36-2.3-2.34q-15.14.1-30.28,0c-1.95,0-2.59.58-2.54,2.54q.19,7.27,0,14.55c-.05,2,.6,2.57,2.55,2.53C411,780.08,415.87,780.16,420.73,780.16Z" transform="translate(-183.06 -474.79)" fill="#020202"/><path d="M467.53,780.16c5,0,10-.06,15,0,1.75,0,2.44-.45,2.4-2.3-.1-5-.09-10,0-14.94,0-1.77-.53-2.38-2.34-2.36q-15.17.1-30.33,0c-1.79,0-2.37.5-2.33,2.3.11,5,.15,10,0,15-.07,2.17.9,2.38,2.66,2.35C457.54,780.1,462.54,780.16,467.53,780.16Z" transform="translate(-183.06 -474.79)" fill="#020202"/><path d="M375.19,760.62c-5,0-10,.11-14.95,0-2.15-.07-2.74.64-2.68,2.73.14,4.84.11,9.69,0,14.54,0,1.76.47,2.36,2.29,2.34q15.13-.12,30.27,0c1.82,0,2.34-.58,2.3-2.34-.1-5-.14-10,0-14.91.07-2.19-.95-2.37-2.69-2.34C384.91,760.68,380.05,760.62,375.19,760.62Z" transform="translate(-183.06 -474.79)" fill="#020202"/><path d="M353.67,568.54c1.8,4.53,1.39,6.08-2.44,9a158.29,158.29,0,0,1-25.58,15.37,11.74,11.74,0,0,1-11.07-.08c-21.51-10.57-40.23-24.43-53.73-44.6-10.09-15.08-13.24-31.22-7.32-48.67,7.48-22,27.48-30.4,48.5-20.42A60.19,60.19,0,0,1,316.94,489c2.31,2.11,3.77,2.42,6.32.12a58.07,58.07,0,0,1,21.46-12.55c15-4.73,29.56.28,37.61,13.78,10.58,17.74,9.8,35.74-.26,53.53A92.53,92.53,0,0,1,373,557c-2.94,3.58-4.68,4-9.07,2.08-2.51-3.08-2.35-6.06.22-9.06a73.39,73.39,0,0,0,8.09-11.62c8.19-14.33,9-28.8,0-43-5.12-8.09-13.61-11-22-8.47a10.4,10.4,0,0,0-4.3,1.12c-7.13,2.68-13,7.27-18.62,12.25-4.88,4.34-9.34,4.28-14.31,0-2.36-2-4.7-4.12-7.24-5.9a60.62,60.62,0,0,0-8.61-5.23c-14.83-7.09-27.65-1.71-33,13.86-5.16,14.95-1.46,28.39,7.39,40.87,12.05,17,28.23,29,46.72,38.12,2.13,1.05,3.52.24,5-.93,7.7-3,14.44-7.71,21-12.57C347.58,566.15,350.55,565.67,353.67,568.54Z" transform="translate(-183.06 -474.79)" fill="#040304"/><path d="M263.17,639.34c1.21,4.48,2.52,5.48,7.47,5.48H377.07q75.71,0,151.4-.08c3.55,0,5.08.51,4.84,4.58-.4,6.71-.1,6.72-6.71,6.72q-152.52,0-305,0c-5.39,0-4.72.63-4.75-4.82,0-6.39,0-6.39,6.56-6.39,6.12,0,12.24-.06,18.36,0,3.87,0,6.12-1.68,6.7-5.52Z" transform="translate(-183.06 -474.79)" fill="#94634a"/><path d="M498.91,544c.17,11.09-5.35,19.73-12.23,27.66C479,580.51,469.4,587,458.83,592c-2.33,1.11-4.73,1.6-7.21.45-16.1-7.47-29.75-17.73-37.88-34-5-10-4.84-20.22.37-30.12,5.57-10.56,16.41-14.51,27.67-10.44a31.93,31.93,0,0,1,10,5.65c2,1.74,3.31,1.92,5.52.12a30.7,30.7,0,0,1,15.42-7.08c8.93-1.18,15.86,2.1,20.93,9.39A29.9,29.9,0,0,1,498.91,544Zm-28-15.18c-3.91,1.21-7,3.76-10,6.37-4.55,3.93-8,4-12.57.1-3.15-2.66-6.34-5.23-10.28-6.68-6.3-2.33-11.46-.43-14.35,5.57a21.23,21.23,0,0,0,.2,19.78c6.39,12.35,16.89,20.33,28.87,26.74,2,1.05,3.3.22,4.7-.92,11.46-5.6,20.75-13.55,27.15-24.71a23,23,0,0,0,2.7-14.76C486.14,530.22,479.34,525.51,471,528.79Z" transform="translate(-183.06 -474.79)" fill="#040303"/><path d="M353.67,568.54c-3.12-2.87-6.09-2.39-9.35,0-6.6,4.86-13.34,9.53-21,12.57-.1-1.47,1-2.2,1.89-3,11.42-11.19,21.45-23.48,29.14-37.51,8.7-15.87,9.22-31.88-.27-47.73-1.2-2-3.2-3.49-3.82-5.87,8.36-2.56,16.85.38,22,8.47,9,14.21,8.19,28.68,0,43a73.39,73.39,0,0,1-8.09,11.62c-2.57,3-2.73,6-.22,9.06Z" transform="translate(-183.06 -474.79)" fill="#cc537d"/><path d="M449.62,808.72a68.73,68.73,0,0,0-15.24-.12c-.67-4.6-2.32-6-7.31-6H336.75c-38.48,0-77-.07-115.43.11-4,0-4.76-1.17-4.6-4.78.29-6.54.08-6.55,6.46-6.55q152.73,0,305.45-.09c3.84,0,4.84,1,4.66,4.71-.32,6.59-.09,6.6-6.79,6.6q-34.86,0-69.71,0C451.81,802.61,450.41,803.84,449.62,808.72Z" transform="translate(-183.06 -474.79)" fill="#97644c"/><path d="M561.15,665.84c2.74-.13,4.37-1.88,5.79-3.94V608c-.61-.08-.64-.57-.81-1-3.24-8.46-10.78-13-19-11.55s-13.83,8.49-13.89,17.42c0,5.61-.21,11.22.08,16.82.16,3.2-.62,4.08-4,4.07-44.07-.14-88.14-.09-132.21-.09H270.87c-5.13,0-6.52,1.06-7.7,5.69,1.21,4.48,2.52,5.48,7.47,5.48H377.07q75.71,0,151.4-.08c3.55,0,5.08.51,4.84,4.58-.4,6.71-.1,6.72-6.71,6.72q-152.52,0-305,0c-5.39,0-4.72.63-4.75-4.82,0-6.39,0-6.39,6.56-6.39,6.12,0,12.24-.06,18.36,0,3.87,0,6.12-1.68,6.7-5.52-1.08-4.37-2.56-5.63-7-5.66-7,0-14-.22-21,.08-3.29.14-3.86-1-3.75-3.93.23-6.11.17-12.22,0-18.33a16.86,16.86,0,0,0-11.23-15.34,17.08,17.08,0,0,0-18.64,5.21c-1.73,2-2.3,4.6-3.83,6.67V845.23A22.52,22.52,0,0,0,195.81,858h7.49c10.15-3.45,14.31-10.65,13.55-21.14-.29-4.09,0-8.22,0-12.33,0-2.74.12-5.49,0-8.22-.12-2,.56-2.73,2.51-2.45a16.72,16.72,0,0,0,2.24,0H426.75c5.11,0,6.42-.91,7.63-5.23-.67-4.6-2.32-6-7.31-6H336.75c-38.48,0-77-.07-115.43.11-4,0-4.76-1.17-4.6-4.78.29-6.54.08-6.55,6.46-6.55q152.73,0,305.45-.09c3.84,0,4.84,1,4.66,4.71-.32,6.59-.09,6.6-6.79,6.6q-34.86,0-69.71,0c-5,0-6.38,1.23-7.17,6.11.7,3.93,3.26,5.15,7,5.14,24.34-.05,48.68,0,73-.1,3,0,3.7.78,3.62,3.66-.21,7.47,0,15-.08,22.43-.06,8.44,3.8,14.19,11.65,17.28.47.18,1,.25,1.11.83h7.49c6.58-2.05,10.88-6.5,13.5-12.73V684.35c-1.49-2-3.24-3.53-5.81-3.86-4.31,1-5.5,3.86-5.49,8q.12,74.6.05,149.18a35.86,35.86,0,0,1-.05,3.74,5.53,5.53,0,0,1-5.75,5.24c-3.16-.24-5-2.09-5.39-5.22a22.77,22.77,0,0,1,0-3V614.89c0-.75,0-1.49,0-2.24.16-3.78,2.33-6.15,5.61-6.15s5.58,2.38,5.59,6.16c.06,13.83,0,27.67,0,41.5,0,1.5.06,3,0,4.49C555.48,662.6,557.16,665.09,561.15,665.84ZM250.41,749.46c-10.23-.17-20.47-.13-30.71,0-2.2,0-3-.38-3-2.81q.15-38.31,0-76.62c0-2.09.53-2.75,2.69-2.73,10.48.11,21,.15,31.45,0,2.68,0,3,1,3,3.26-.08,12.59,0,25.17,0,37.75s-.1,25.17.08,37.75C254,748.93,253.13,749.5,250.41,749.46Zm45.81,0c-9.24-.2-18.49-.16-27.73,0-2.49,0-3.43-.44-3.42-3.2q.17-37.77,0-75.55c0-2.92.9-3.49,3.61-3.44q14.06.25,28.11,0c2.57,0,3.37.58,3.34,3.26-.15,12.59-.06,25.18-.06,37.77s-.13,24.94.08,37.41C300.21,748.93,299.23,749.54,296.22,749.47Zm46.8,0q-14.24-.21-28.46,0c-2.59,0-3.35-.58-3.32-3.25.15-12.71.07-25.42.07-38.12,0-12.46.1-24.92-.08-37.38,0-2.87.8-3.5,3.55-3.45,9.48.17,19,.14,28.45,0,2.42,0,3.18.59,3.18,3.1q-.15,37.93,0,75.87C346.43,749,345.52,749.49,343,749.45Zm46.27,0c-9.6-.18-19.22-.14-28.82,0-2.3,0-2.93-.56-2.93-2.88q.13-38.12,0-76.23c0-2.55.8-3.09,3.18-3.06q14.42.18,28.82,0c2.34,0,2.94.66,2.92,2.94-.1,12.71-.05,25.41-.05,38.11s-.06,25.16.06,37.74C392.48,748.51,392.09,749.52,389.29,749.46Zm49.45-3.16c0,2.33-.44,3.21-3,3.16-9.74-.16-19.48-.14-29.21,0-2.32,0-2.94-.62-2.92-2.93.11-12.7,0-25.41,0-38.12s.07-25.16,0-37.75c0-2.52.53-3.44,3.26-3.39,9.6.17,19.22.15,28.83,0,2.54,0,3.06.78,3.06,3.17Q438.62,708.37,438.74,746.3Zm46.17.52c0,2.25-.85,2.63-2.84,2.62-9.75-.09-19.49-.16-29.23,0-2.7,0-3-1-2.95-3.22.09-12.59,0-25.18,0-37.78s.11-25.18-.07-37.77c0-2.89.81-3.49,3.55-3.44,9.49.17,19,.13,28.48,0,2.21,0,3,.49,3,2.86Q484.79,708.48,484.91,746.82Zm45.2,2.65c-10.36-.19-20.72-.14-31.08,0-2.24,0-3-.49-3-2.86q.13-38.12,0-76.24c0-2.61.91-3.08,3.24-3.06,10.36.11,20.72.13,31.08,0,2.36,0,2.91.67,2.89,2.93-.11,12.83,0,25.66,0,38.5,0,12.46-.06,24.91,0,37.37C533.28,748.5,532.92,749.52,530.11,749.47Z" transform="translate(-183.06 -474.79)" fill="#020202"/><path d="M561.15,665.84q0,7.32,0,14.65c-4.31,1-5.5,3.86-5.49,8q.12,74.6.05,149.18a35.86,35.86,0,0,1-.05,3.74,5.53,5.53,0,0,1-5.75,5.24c-3.16-.24-5-2.09-5.39-5.22a22.77,22.77,0,0,1,0-3V614.89c0-.75,0-1.49,0-2.24.16-3.78,2.33-6.15,5.61-6.15s5.58,2.38,5.59,6.16c.06,13.83,0,27.67,0,41.5,0,1.5.06,3,0,4.49C555.48,662.6,557.16,665.09,561.15,665.84Z" transform="translate(-183.06 -474.79)" fill="#b67d5a"/><path d="M205.55,726.25V838.12a20.1,20.1,0,0,1-.11,3.73c-.54,2.92-2.37,4.74-5.37,4.8-3.18.07-5.09-1.78-5.67-4.88a18.75,18.75,0,0,1-.09-3.36V614.68a17.08,17.08,0,0,1,.1-3.36c.57-2.9,2.32-4.72,5.37-4.78,3.23-.06,5.1,1.78,5.67,4.86a20.16,20.16,0,0,1,.1,3.73Z" transform="translate(-183.06 -474.79)" fill="#b67d5a"/><path d="M235.12,780.15c-5.24,0-10.47,0-15.71,0-1.75,0-2.73-.16-2.66-2.34.17-5,.12-10,0-14.92,0-1.76.47-2.35,2.29-2.33q16.26.1,32.53,0c1.84,0,2.35.59,2.32,2.35q-.15,7.47,0,14.93c0,1.8-.54,2.36-2.34,2.32C246.09,780.09,240.6,780.15,235.12,780.15Z" transform="translate(-183.06 -474.79)" fill="#95dac1"/><path d="M514.84,780.15c-5.36,0-10.72,0-16.08,0-1.74,0-2.75-.2-2.68-2.36.15-5,.11-10,0-14.92,0-1.82.61-2.32,2.37-2.31q16.26.1,32.53,0c1.88,0,2.27.68,2.24,2.38-.09,5-.11,10,0,14.93,0,1.8-.53,2.34-2.31,2.3C525.56,780.09,520.2,780.15,514.84,780.15Z" transform="translate(-183.06 -474.79)" fill="#95dac1"/><path d="M282.87,760.62c4.74,0,9.49.09,14.22,0,2.11-.06,3.15.24,3,2.76-.23,4.72-.12,9.47,0,14.2,0,1.73-.15,2.69-2.34,2.67-10.11-.12-20.22-.09-30.33,0-1.84,0-2.35-.62-2.32-2.37.09-5,.1-10,0-15,0-1.85.7-2.31,2.42-2.28C272.63,760.68,277.75,760.62,282.87,760.62Z" transform="translate(-183.06 -474.79)" fill="#95dac1"/><path d="M328.87,760.62c5,0,10,.07,14.95,0,1.93,0,2.62.53,2.57,2.52-.13,5-.09,9.95,0,14.92,0,1.61-.5,2.17-2.13,2.16q-15.51-.07-31,0c-1.44,0-2-.48-1.93-1.93.06-5.22.08-10.45,0-15.67,0-1.79.83-2,2.27-2C318.66,760.65,323.77,760.62,328.87,760.62Z" transform="translate(-183.06 -474.79)" fill="#95dac1"/><path d="M420.73,780.16c-4.86,0-9.72-.08-14.57,0-2,0-2.6-.56-2.55-2.53q.19-7.27,0-14.55c-.05-2,.59-2.55,2.54-2.54q15.14.12,30.28,0c1.81,0,2.33.58,2.3,2.34-.11,5-.15,10,0,14.92.07,2.19-1,2.36-2.68,2.34C431,780.11,425.84,780.16,420.73,780.16Z" transform="translate(-183.06 -474.79)" fill="#95dac1"/><path d="M467.53,780.16c-5,0-10-.06-15,0-1.76,0-2.73-.18-2.66-2.35.16-5,.12-10,0-15,0-1.8.54-2.32,2.33-2.3q15.16.1,30.33,0c1.81,0,2.37.59,2.34,2.36-.09,5-.1,10,0,14.94,0,1.85-.65,2.33-2.4,2.3C477.51,780.1,472.52,780.16,467.53,780.16Z" transform="translate(-183.06 -474.79)" fill="#95dac1"/><path d="M375.19,760.62c4.86,0,9.72.06,14.57,0,1.74,0,2.76.15,2.69,2.34-.16,5-.12,9.94,0,14.91,0,1.76-.48,2.36-2.3,2.34q-15.13-.12-30.27,0c-1.82,0-2.33-.58-2.29-2.34.1-4.85.13-9.7,0-14.54-.06-2.09.53-2.8,2.68-2.73C365.22,760.73,370.21,760.62,375.19,760.62Z" transform="translate(-183.06 -474.79)" fill="#95dac1"/><path d="M350.22,487c.62,2.38,2.62,3.87,3.82,5.87,9.49,15.85,9,31.86.27,47.73-7.69,14-17.72,26.32-29.14,37.51-.86.85-2,1.58-1.89,3-1.52,1.17-2.91,2-5,.93-18.49-9.16-34.67-21.11-46.72-38.12-8.85-12.48-12.55-25.92-7.39-40.87,5.36-15.57,18.18-20.95,33-13.86a60.62,60.62,0,0,1,8.61,5.23c2.54,1.78,4.88,3.87,7.24,5.9,5,4.28,9.43,4.34,14.31,0,5.62-5,11.49-9.57,18.62-12.25A10.4,10.4,0,0,1,350.22,487Z" transform="translate(-183.06 -474.79)" fill="#fd6f96"/><path d="M457.56,579.75c-1.4,1.14-2.74,2-4.7.92-12-6.41-22.48-14.39-28.87-26.74a21.23,21.23,0,0,1-.2-19.78c2.89-6,8-7.9,14.35-5.57,3.94,1.45,7.13,4,10.28,6.68,4.58,3.89,8,3.83,12.57-.1,3-2.61,6.06-5.16,10-6.37a32.54,32.54,0,0,1,3.73,15C475,554.45,470,563.06,464,571.35,461.94,574.22,458.44,576,457.56,579.75Z" transform="translate(-183.06 -474.79)" fill="#fd6f96"/><path d="M457.56,579.75c.88-3.76,4.38-5.53,6.46-8.4,6-8.29,10.94-16.9,10.67-27.55a32.54,32.54,0,0,0-3.73-15c8.38-3.28,15.18,1.43,16.45,11.49a23,23,0,0,1-2.7,14.76C478.31,566.2,469,574.15,457.56,579.75Z" transform="translate(-183.06 -474.79)" fill="#cc537d"/></svg>