<svg id="Capa_1" data-name="Capa 1" xmlns="http://www.w3.org/2000/svg" viewBox="0 0 408.7 384.33"><path d="M579.52,522.73c-2.31,3.57-1.86,7.81-2.8,11.71A212.84,212.84,0,0,1,563.21,573a7.29,7.29,0,0,0,.23,7c12.22,25.25,16.16,51.52,8.95,79-4.1,15.59-12,29.11-22.84,41-3,3.33-5.58,3.3-9.75.24-1.77-3.23-1.15-6.08,1.3-8.71,1.26-1.36,2.43-2.82,3.59-4.27,10.88-13.63,17.46-29.08,18.84-46.49,2.45-30.79-7.94-57.6-27.29-80.85-30-36-69.31-54.88-115.49-59.38-40.37-3.94-78.14,4.76-112.61,26.42-12.63,7.94-24.22,17.24-33.64,29a15.26,15.26,0,0,0-1.45,1.32c-17.38,20.51-28.48,43.63-29.7,70.93-.94,21.1,4.78,40.1,17.53,57C275,703.85,294,715.91,315.34,724.6c28.33,11.55,58.06,15.73,88.43,15.86,10.47,0,21-.27,31.34-2.07,1.19-.06,2.39,0,3.57-.19,28.31-3.84,55.24-11.69,79.54-27.26,5.29-3.39,6.89-3.19,10.82.58,1.43,4.25-.3,6.93-3.92,9.27-20.44,13.25-42.87,21.4-66.6,26.17-3.46.7-4.82,1.79-5.12,5.69a84.6,84.6,0,0,1-9.78,32.54A14.37,14.37,0,0,0,442,792c-.13,14.49.88,29-.49,43.45-1.21,12.76-13.25,23-26.44,22.89-13.47-.09-25.15-10.44-26.35-23.45-.32-3.43-.33-6.89-.47-10.34-.05-1.28.34-2.9-1.89-2.46-1.45.29-3.36-.15-3.33,2.38a76.29,76.29,0,0,1-.4,10.35,26.67,26.67,0,0,1-53-.47c-.09-.92-.26-1.84-.33-2.77-.58-7-.58-7-7.53-7.14-5.71-.14-11.43-.36-17.13-.81-2.53-.2-3.16.54-3.06,3,.33,8.15-1,15.83-6.54,22.34a27,27,0,0,1-28.17,8.15,26.34,26.34,0,0,1-18.64-22.54c-1-10.22-.23-20.47-.42-30.7-.1-5.16-.43-5.6-5.6-5.92-29.07-1.81-51.63-14.72-67.22-39.46-5-7.93-5.6-16.26-1.07-24.55s11.8-12.5,21.21-12.36A22.22,22.22,0,0,1,214.2,732c5.09,7.75,11.28,14.06,20.47,16.76l.38.14c6.72,2.23,6.68,2.2,8.73-4.48,4-12.88,10.75-23.94,21.45-32.33,2.1-1.64,2.17-2.52.17-4.31-11.29-10.17-20.32-22-26.24-36.12-10.62-25.3-10.27-50.9-1.78-76.65a92.66,92.66,0,0,1,6.46-15.38,6.29,6.29,0,0,0,.18-6.29c-7-15.38-12.74-31.18-15.25-48-1.56-10.45-2.15-20.86,1.8-31.05s11.38-16.08,21.67-18.68c12.07-3,24-1.41,35.88,1.37a209.72,209.72,0,0,1,49,18.52,10.84,10.84,0,0,0,9,.89,190.1,190.1,0,0,1,73.19-8.14,186.94,186.94,0,0,1,42.49,8.31,8.57,8.57,0,0,0,7.15-.56c18.6-9.56,37.91-17.22,58.63-20.74,10.43-1.77,20.89-2.17,31.09,1.55s16.45,11.21,19.27,21.66c.46,1.7.18,3.66,1.59,5.07ZM250,556.25c.86,2.36,1.73,4.72,2.84,7.75a160.44,160.44,0,0,1,25.38-29.25c4.86-4.39,4.83-4.43-1.17-7.93-11.28-8-23.82-13-37.63-16.27C239.9,526.76,243.85,541.75,250,556.25Zm280.09-29.42-5.87,3.73A167.92,167.92,0,0,1,554.36,564c1.09-3.06,1.92-5.41,2.75-7.77,6.1-14.51,10.16-29.47,10.55-45.74C553.89,513.92,541.32,518.85,530.05,526.83Zm-43.2-26a18.74,18.74,0,0,0-5.79,2.67c5.18,2.65,9.94,4.9,14.52,7.47s9.31,5.53,13.84,8.49c5.32,3.49,5.27,3.57,10.47-.65,12.2-8.13,25.13-14.68,39.37-18.48,6.9-1.83,7.16-3,2.08-8.17a17.18,17.18,0,0,0-6-3.82,32.76,32.76,0,0,0-12.85-2.31C522.76,486.49,504.55,492.73,486.85,500.88Zm-166.65,0a157.88,157.88,0,0,0-36.33-12.49c-8.85-1.91-17.75-3.32-26.82-1.57-6.11,1.18-11.24,3.8-14.34,9.58-1,1.76-.69,2.52,1.26,3,15.66,3.69,29.91,10.53,43.21,19.48,5.22,4.24,5.21,4.22,10.47.63a176.56,176.56,0,0,1,23.72-13.56c1.47-.7,3.29-.94,4.4-2.81ZM235.51,785.2c.52.08,1,.17,1.56.23,4.51.55,4.5.54,3.71-4.07a72.57,72.57,0,0,1-.52-13.82c.12-5.65.16-5.65-5.54-6.1-9.33-2.43-17.54-6.82-24-14.11-2.52-2.87-4.49-6.22-6.87-9.24a11.47,11.47,0,0,0-15.64-2.69,11.32,11.32,0,0,0-3.86,15.35C195.9,770.36,212.91,782,235.51,785.2Zm22.3-4.47c2.77,2.19,2.7,5.12,2.45,8.29-1.13,14.19-.62,28.41-.35,42.61.17,8.91,6.86,14.89,15.07,14.7s14.41-6.4,14.57-15.32c.22-12.88.18-25.77,0-38.66-.11-7.85-4.23-12.93-11.78-15-3.08-.84-5.27-2.38-6-5.63,1-5.11,3.28-7,7.74-6.3,10.68,1.68,20.13,11.46,21.55,22.28.93,7,.36,14.08.45,21.11,0,1.89.28,2.87,2.54,2.91,7.45.14,14.89.44,22.32.85,2.34.12,2.84-.68,2.85-2.89,0-6.91-.37-13.82.31-20.73a26.69,26.69,0,0,1,53-.77c.86,6.5.31,13,.45,19.52,0,1.65,0,2.8,2.29,2.39,13-2.32,25.35-6.05,35.51-14.89,12.48-10.87,17.53-25.53,20.63-41.18.88-4.44-1.47-4-4.28-3.68a279.6,279.6,0,0,1-59.69.81c-35.13-3.27-68.34-12.28-98-32.12a2.82,2.82,0,0,0-3.84.08,55,55,0,0,0-12.16,12c-9.21,12.67-11.11,27.25-11.36,42.35C252,777.75,252.52,780.93,257.81,780.73ZM371,812.06h0c0-6.51.13-13,0-19.54-.2-8.38-5.32-14.38-12.82-15.32-9.77-1.24-16.88,5.5-17,16.31-.11,12.1,0,24.2,0,36.3a19.65,19.65,0,0,0,1,6.67,14.68,14.68,0,0,0,16.42,9.61c7.11-1.05,12.13-6.9,12.4-14.88C371.2,824.83,371,818.45,371,812.06Zm59-9a81.67,81.67,0,0,1-20.24,12.67c-3.2,1.47-8.18.69-9.36,4.6-1.07,3.53-.42,7.66-.13,11.49.68,8.7,6.88,14.57,15,14.47s14.37-6.09,14.68-14.78C430.31,822.43,430.06,813.28,430.06,803.1Z" transform="translate(-170.82 -473.99)" fill="#040404"/><path d="M529,711.52c-3.93-3.77-5.53-4-10.82-.58-24.3,15.57-51.23,23.42-79.54,27.26-1.18.16-2.38.13-3.57.19a2.32,2.32,0,0,0-2.05-.95c-6.19-.52-12.37-1.09-18.55-1.58a275.55,275.55,0,0,1-37.15-5.63c-28.81-6.31-55.83-16.53-78.71-35.85A99.4,99.4,0,0,1,272,660.12a105.52,105.52,0,0,1-9.52-56.37,161.4,161.4,0,0,1,7.91-35.48c1.39-4.09,4.31-7.72,4.09-12.34,9.42-11.74,21-21,33.64-29,34.47-21.66,72.24-30.36,112.61-26.42,46.18,4.5,85.52,23.36,115.49,59.38C555.59,583.16,566,610,563.53,640.76c-1.38,17.41-8,32.86-18.84,46.49-1.16,1.45-2.33,2.91-3.59,4.27-2.45,2.63-3.07,5.48-1.3,8.71a33.88,33.88,0,0,1-8.17,8.42A7.29,7.29,0,0,0,529,711.52ZM409.42,615.36c2.77-1.26,5.58-2.43,8.29-3.81s5.35-2.86,5.42-6.62a8,8,0,0,0-5-7.91,36.52,36.52,0,0,0-29.18,0,8,8,0,0,0-5,7.9c.06,3.77,2.68,5.24,5.41,6.63s5.52,2.55,8.29,3.81c0,3.85-.32,7.73,0,11.56.26,3.27-1.21,4.86-3.94,6-6.81,2.79-12.64,1.28-17.93-3.63-3.18-2.95-6.78-2.92-9.14-.29s-2.06,5.92,1.18,9.08c9,8.79,22,10.82,32.61,4.77,2.39-1.37,3.93-1.34,6.31,0a27.46,27.46,0,0,0,33.47-5.62c2.41-2.73,2.52-5.77.28-8.25s-5.44-2.57-8.23-.46c-1,.71-1.77,1.61-2.7,2.36A15.71,15.71,0,0,1,411.62,632a4,4,0,0,1-2.15-3.86C409.6,623.87,409.45,619.61,409.42,615.36Zm-68-10.6c1.93-1.51,3.44-3.27,3.44-5.91,0-3.18.12-6.37,0-9.54-.18-3.93-2.78-6.44-6.22-6.29s-5.59,2.58-5.7,6.37,0,7.68,0,11.51a36.68,36.68,0,0,0-21.85,0c-11.89,3.8-19.15,13.37-18.07,23.1-5.67,1.81-11.6,2.65-17.19,4.8-4.11,1.57-6,4.29-5,7.74s4.09,4.85,8.33,3.61c6.35-1.87,12.68-3.77,19.27-4.63a6,6,0,0,0,.83,1.33c11.19,10.67,31.63,11.43,43.51,1.62,9.07-7.48,10.71-19.45,3.79-28.2C345,608.3,343.11,606.59,341.39,604.76Zm132.79-3.85c0-3.84.1-7.68,0-11.51s-2.34-6.24-5.67-6.38-6,2.34-6.24,6.28c-.15,2.64.07,5.3-.07,7.94a8,8,0,0,0,3.48,7.51c-.9,1-1.77,2-2.71,2.9-9.41,9.4-9,22.63,1.41,30.77,8.5,6.66,18.36,8.49,28.87,6,6-1.4,11.59-3.67,15.4-8.93,6.6.83,12.93,2.76,19.28,4.63,4.24,1.24,7.35-.17,8.34-3.61s-.83-6.16-5-7.74c-5.59-2.15-11.53-3-17.21-4.8.51-8.88-3.68-15.19-10.92-19.74C494.07,598.54,484.31,598.08,474.18,600.91ZM331.37,652.33c.08-4.79-4.56-7.41-9.45-5A139.64,139.64,0,0,0,289,670.12c-2.87,2.6-3,5.93-.77,8.51s5.56,2.92,8.5.38a153.21,153.21,0,0,1,31.39-21.56A5.57,5.57,0,0,0,331.37,652.33Zm189,22.67a6.62,6.62,0,0,0-2.09-4.73c-10.17-9.2-21.15-17.28-33.59-23.19-3.68-1.75-6.94-.52-8.44,2.68-1.4,3-.26,5.93,3.19,8,3.66,2.14,7.44,4.07,11,6.32a147.53,147.53,0,0,1,19.66,14.85c1.89,1.68,4.06,2.45,6.6,1.29A6.31,6.31,0,0,0,520.33,675Z" transform="translate(-170.82 -473.99)" fill="#edeceb"/><path d="M257.81,780.73c-5.29.2-5.77-3-5.7-7.3.25-15.1,2.15-29.68,11.36-42.35a55,55,0,0,1,12.16-12,2.82,2.82,0,0,1,3.84-.08c29.67,19.84,62.88,28.85,98,32.12a279.6,279.6,0,0,0,59.69-.81c2.81-.34,5.16-.76,4.28,3.68-3.1,15.65-8.15,30.31-20.63,41.18-10.16,8.84-22.55,12.57-35.51,14.89-2.28.41-2.25-.74-2.29-2.39-.14-6.51.41-13-.45-19.52a26.69,26.69,0,0,0-53,.77c-.68,6.91-.28,13.82-.31,20.73,0,2.21-.51,3-2.85,2.89-7.43-.41-14.87-.71-22.32-.85-2.26,0-2.51-1-2.54-2.91-.09-7,.48-14.09-.45-21.11-1.42-10.82-10.87-20.6-21.55-22.28-4.46-.7-6.78,1.19-7.74,6.3C265.48,772.13,260.54,774.72,257.81,780.73Z" transform="translate(-170.82 -473.99)" fill="#ececeb"/><path d="M274.5,555.93c.22,4.62-2.7,8.25-4.09,12.34a161.4,161.4,0,0,0-7.91,35.48A105.52,105.52,0,0,0,272,660.12a99.4,99.4,0,0,0,26.63,34.26c22.88,19.32,49.9,29.54,78.71,35.85a275.55,275.55,0,0,0,37.15,5.63c6.18.49,12.36,1.06,18.55,1.58a2.32,2.32,0,0,1,2.05.95c-10.37,1.8-20.87,2.12-31.34,2.07-30.37-.13-60.1-4.31-88.43-15.86C294,715.91,275,703.85,260.88,685.14c-12.75-16.86-18.47-35.86-17.53-57,1.22-27.3,12.32-50.42,29.7-70.93A15.26,15.26,0,0,1,274.5,555.93Z" transform="translate(-170.82 -473.99)" fill="#e0dfde"/><path d="M257.81,780.73c2.73-6,7.67-8.6,14-9,.7,3.25,2.89,4.79,6,5.63,7.55,2.07,11.67,7.15,11.78,15,.17,12.89.21,25.78,0,38.66-.16,8.92-6.33,15.13-14.57,15.32s-14.9-5.79-15.07-14.7c-.27-14.2-.78-28.42.35-42.61C260.51,785.85,260.58,782.92,257.81,780.73Z" transform="translate(-170.82 -473.99)" fill="#dededd"/><path d="M371,812.06c0,6.39.17,12.77,0,19.15-.27,8-5.29,13.83-12.4,14.88a14.68,14.68,0,0,1-16.42-9.61,19.65,19.65,0,0,1-1-6.67c0-12.1-.1-24.2,0-36.3.1-10.81,7.21-17.55,17-16.31,7.5.94,12.62,6.94,12.82,15.32.16,6.51,0,13,0,19.54Z" transform="translate(-170.82 -473.99)" fill="#dedddc"/><path d="M235.51,785.2c-22.6-3.24-39.61-14.84-51.12-34.45a11.32,11.32,0,0,1,3.86-15.35,11.47,11.47,0,0,1,15.64,2.69c2.38,3,4.35,6.37,6.87,9.24,6.42,7.29,14.63,11.68,24,14.11C234.83,769.36,234.38,777.31,235.51,785.2Z" transform="translate(-170.82 -473.99)" fill="#daad87"/><path d="M287.18,518.85c-13.3-9-27.55-15.79-43.21-19.48-1.95-.45-2.21-1.21-1.26-3,3.1-5.78,8.23-8.4,14.34-9.58,9.07-1.75,18-.34,26.82,1.57a157.88,157.88,0,0,1,36.33,12.49c-7.28,2.48-13.73,6.54-20.25,10.48C295.72,513.91,292.21,517.68,287.18,518.85Z" transform="translate(-170.82 -473.99)" fill="#daad87"/><path d="M486.85,500.88c17.7-8.15,35.91-14.39,55.65-14.8a32.76,32.76,0,0,1,12.85,2.31,17.18,17.18,0,0,1,6,3.82c5.08,5.17,4.82,6.34-2.08,8.17-14.24,3.8-27.17,10.35-39.37,18.48-2.51-.31-4.27-2-6.25-3.34C505.12,509.9,496.51,504.43,486.85,500.88Z" transform="translate(-170.82 -473.99)" fill="#daad87"/><path d="M430.06,803.1c0,10.18.25,19.33-.08,28.45-.31,8.69-6.58,14.69-14.68,14.78s-14.29-5.77-15-14.47c-.29-3.83-.94-8,.13-11.49,1.18-3.91,6.16-3.13,9.36-4.6A81.67,81.67,0,0,0,430.06,803.1Z" transform="translate(-170.82 -473.99)" fill="#dedddc"/><path d="M530.05,526.83c11.27-8,23.84-12.91,37.61-16.32-.39,16.27-4.45,31.23-10.55,45.74a3.06,3.06,0,0,1-2.61-1.56c-6.29-9.09-14.3-16.62-22.06-24.37C531.44,529.32,530.07,528.52,530.05,526.83Z" transform="translate(-170.82 -473.99)" fill="#f2c7c0"/><path d="M250,556.25c-6.11-14.5-10.06-29.49-10.58-45.7,13.81,3.31,26.35,8.31,37.63,16.27,0,1.69-1.4,2.47-2.38,3.5-5.77,6-12,11.56-17.3,18C255.06,551.14,253.72,554.85,250,556.25Z" transform="translate(-170.82 -473.99)" fill="#f2c7c0"/><path d="M250,556.25c3.76-1.4,5.1-5.11,7.37-7.89,5.29-6.48,11.53-12,17.3-18,1-1,2.36-1.81,2.38-3.5,6,3.5,6,3.54,1.17,7.93A160.44,160.44,0,0,0,252.8,564C251.69,561,250.82,558.61,250,556.25Z" transform="translate(-170.82 -473.99)" fill="#dfb5ae"/><path d="M530.05,526.83c0,1.69,1.39,2.49,2.39,3.49,7.76,7.75,15.77,15.28,22.06,24.37a3.06,3.06,0,0,0,2.61,1.56c-.83,2.36-1.66,4.71-2.75,7.77a167.92,167.92,0,0,0-30.18-33.46Z" transform="translate(-170.82 -473.99)" fill="#dfb5ae"/><path d="M486.85,500.88c9.66,3.55,18.27,9,26.79,14.64,2,1.3,3.74,3,6.25,3.34-5.2,4.22-5.15,4.14-10.47.65-4.53-3-9.13-5.84-13.84-8.49s-9.34-4.82-14.52-7.47A18.74,18.74,0,0,1,486.85,500.88Z" transform="translate(-170.82 -473.99)" fill="#c49c7a"/><path d="M287.18,518.85c5-1.17,8.54-4.94,12.77-7.49,6.52-3.94,13-8,20.25-10.48l5.57,2.23c-1.11,1.87-2.93,2.11-4.4,2.81a176.56,176.56,0,0,0-23.72,13.56C292.39,523.07,292.4,523.09,287.18,518.85Z" transform="translate(-170.82 -473.99)" fill="#c49c7a"/><path d="M235.51,785.2c-1.13-7.89-.68-15.84-.79-23.76,5.7.45,5.66.45,5.54,6.1a72.57,72.57,0,0,0,.52,13.82c.79,4.61.8,4.62-3.71,4.07C236.55,785.37,236,785.28,235.51,785.2Z" transform="translate(-170.82 -473.99)" fill="#c49c7a"/><path d="M508.65,635.52c-3.81,5.26-9.41,7.53-15.4,8.93-10.51,2.46-20.37.63-28.87-6-10.4-8.14-10.82-21.37-1.41-30.77.94-.94,1.81-1.93,2.71-2.9,3.86,1,6.68-.32,8.5-3.84,10.13-2.83,19.89-2.37,29,3.35,7.24,4.55,11.43,10.86,10.92,19.74-.91-.1-1.84-.15-2.75-.31-6.55-1.12-13.07-2.43-19.77-2.15a5.58,5.58,0,0,0-5.73,4.57,5.48,5.48,0,0,0,2.48,6.19c1.71,1.19,3.75,1.27,5.74,1.3A66.92,66.92,0,0,1,508.65,635.52Z" transform="translate(-170.82 -473.99)" fill="#e98d99"/><path d="M293,624c-1.08-9.73,6.18-19.3,18.07-23.1a36.6,36.6,0,0,1,21.85,0c1.83,3.5,4.65,4.82,8.51,3.85,1.72,1.83,3.6,3.54,5.15,5.51,6.92,8.75,5.28,20.72-3.79,28.2-11.88,9.81-32.32,9-43.51-1.62a6,6,0,0,1-.83-1.33,85.59,85.59,0,0,1,16.18-2c4.42-.25,7-2.78,6.9-6.2-.1-3.66-2.86-5.66-7.59-5.77C306.79,621.35,300,623.3,293,624Z" transform="translate(-170.82 -473.99)" fill="#e98d99"/><path d="M409.42,615.36c0,4.25.18,8.51.05,12.76a4,4,0,0,0,2.15,3.86,15.71,15.71,0,0,0,17.91-1.11c.93-.75,1.75-1.65,2.7-2.36,2.79-2.11,6.11-1.89,8.23.46s2.13,5.52-.28,8.25a27.46,27.46,0,0,1-33.47,5.62c-2.38-1.35-3.92-1.38-6.31,0-10.57,6-23.61,4-32.61-4.77-3.24-3.16-3.66-6.32-1.18-9.08s6-2.66,9.14.29c5.29,4.91,11.12,6.42,17.93,3.63,2.73-1.12,4.2-2.71,3.94-6-.31-3.83,0-7.71,0-11.56A15.44,15.44,0,0,0,409.42,615.36Z" transform="translate(-170.82 -473.99)" fill="#040404"/><path d="M409.42,615.36a15.44,15.44,0,0,1-11.79,0c-2.77-1.26-5.58-2.44-8.29-3.81s-5.35-2.86-5.41-6.63a8,8,0,0,1,5-7.9,36.52,36.52,0,0,1,29.18,0,8,8,0,0,1,5,7.91c-.07,3.76-2.69,5.23-5.42,6.62S412.19,614.1,409.42,615.36Z" transform="translate(-170.82 -473.99)" fill="#f4c8c1"/><path d="M331.37,652.33a5.57,5.57,0,0,1-3.21,5.12A153.21,153.21,0,0,0,296.77,679c-2.94,2.54-6.27,2.2-8.5-.38s-2.1-5.91.77-8.51a139.64,139.64,0,0,1,32.88-22.83C326.81,644.92,331.45,647.54,331.37,652.33Z" transform="translate(-170.82 -473.99)" fill="#050505"/><path d="M520.33,675a6.31,6.31,0,0,1-3.64,5.17c-2.54,1.16-4.71.39-6.6-1.29A147.53,147.53,0,0,0,490.43,664c-3.59-2.25-7.37-4.18-11-6.32-3.45-2-4.59-5-3.19-8,1.5-3.2,4.76-4.43,8.44-2.68,12.44,5.91,23.42,14,33.59,23.19A6.62,6.62,0,0,1,520.33,675Z" transform="translate(-170.82 -473.99)" fill="#050505"/><path d="M293,624c7-.7,13.83-2.65,20.94-2.49,4.73.11,7.49,2.11,7.59,5.77.1,3.42-2.48,6-6.9,6.2a85.59,85.59,0,0,0-16.18,2c-6.59.86-12.92,2.76-19.27,4.63-4.24,1.24-7.33-.16-8.33-3.61s.85-6.17,5-7.74C281.36,626.65,287.29,625.81,293,624Z" transform="translate(-170.82 -473.99)" fill="#040304"/><path d="M508.65,635.52a66.92,66.92,0,0,0-14.58-1.92c-2,0-4-.11-5.74-1.3a5.48,5.48,0,0,1-2.48-6.19,5.58,5.58,0,0,1,5.73-4.57c6.7-.28,13.22,1,19.77,2.15.91.16,1.84.21,2.75.31,5.68,1.8,11.62,2.65,17.21,4.8,4.13,1.58,6,4.27,5,7.74s-4.1,4.85-8.34,3.61C521.58,638.28,515.25,636.35,508.65,635.52Z" transform="translate(-170.82 -473.99)" fill="#040304"/><path d="M341.39,604.76c-3.86,1-6.68-.35-8.51-3.85,0-3.84-.1-7.68,0-11.52s2.39-6.23,5.7-6.37,6,2.36,6.22,6.29c.15,3.17,0,6.36,0,9.54C344.83,601.49,343.32,603.25,341.39,604.76Z" transform="translate(-170.82 -473.99)" fill="#040404"/><path d="M474.18,600.91c-1.82,3.52-4.64,4.81-8.5,3.84a8,8,0,0,1-3.48-7.51c.14-2.64-.08-5.3.07-7.94.22-3.94,2.79-6.43,6.24-6.28s5.57,2.55,5.67,6.38S474.19,597.07,474.18,600.91Z" transform="translate(-170.82 -473.99)" fill="#040404"/></svg>