<svg id="Capa_1" data-name="Capa 1" xmlns="http://www.w3.org/2000/svg" viewBox="0 0 382.94 303.36"><path d="M229.15,446.14c-4.51,2.25-5.73,2-9-1.72a237,237,0,0,1-34.43-52.14c-.63-1.28-.85-2.84-2.19-3.72v-4.49c4.58-4.13,5.54-4.2,11.24-.82q58.72,34.85,117.46,69.66a61.16,61.16,0,0,1,18.86,17.23c12.37,17.18,24.93,34.22,37.42,51.31.73,1,1.52,1.94,2.44,3.11,11-15.07,22.18-29.72,32.61-44.89,8.08-11.77,18.21-20.65,30.56-27.83,40.85-23.77,81.35-48.13,122-72.26,1.6-.95,3.14-2.11,5.13-2,4.28.23,6.51,4.57,4.46,8.9a268.55,268.55,0,0,1-26.82,44.74C525,450,508.08,465.79,490.66,481.13c-7.2,6.34-14.24,12.88-21.47,19.18a41.59,41.59,0,0,0-13.09,20.87c-4.1,15-8.13,30-12.41,44.93-.82,2.83-.06,3.2,2.49,3.64q38.83,6.6,77.61,13.51c11.62,2.09,19.36,10.66,20.84,22.37.67,5.33-1.64,8-7.06,8.06-8.85,0-17.74.57-26.54-.12-11.92-.94-20.62,4-28,12.73a43.32,43.32,0,0,1-22.06,14,44.1,44.1,0,0,1-10.31,1.54c-4.44.17-5.85-1-6.9-5.54.37-4.45,3.29-5.63,7.2-5.79a31.58,31.58,0,0,0,22.65-10.53,106.7,106.7,0,0,1,13.1-12c7.4-4.42,15.42-5.84,24-5.47,7,.3,14.07.06,21.28.06-2.23-5-5.16-7.16-10.62-8.19-28.24-5.33-56.58-10.06-84.92-14.82-4.73-.8-5.8-2-6.22-6.81q7.61-27.46,15.2-54.92a51.25,51.25,0,0,1,15.43-25c3-2.67,6-5.28,8.9-8,15.3-14.07,31.56-27.11,45.5-42.62,10.07-11.21,19.39-23,26.86-36.14.31-.14.65-.36.35-.68-.13-.15-.59,0-.9,0-3.87,2.91-7.76,5.79-11.6,8.74q-22.14,17-44.24,34c-14.58,11.09-29.13,22.21-43.74,33.23a53.41,53.41,0,0,0-12.24,13c-14.08,20.84-28.26,41.61-42.35,62.45-5.57,8.25-13.19,12.2-23.16,11.52-14.18-1-28.35-2.1-42.54-2.74-9.18-.41-18.46-2.3-27.58-.3-12.89,2.84-22.15,10.31-26.72,23-.68,1.88-.77,2.86,1.87,3.37a14.15,14.15,0,0,1,10.69,9c3.13,7.64,1.17,14.12-5,19.48,7.28,7.8,16.33,10.6,26.65,10.58,38.65-.07,77.31,0,116-.07,3.79,0,6.63.85,7.67,4.87l0,.75c-1.37,4.75-2.42,5.63-7.34,5.65-10.85.05-21.7.08-32.55,0-2.36,0-3.51.52-3.12,3.06a20.64,20.64,0,0,1,0,2.61c0,7.69,2.41,10.13,10,10.14,6.23,0,12.47,0,18.7,0,5.56,0,7.38,1.85,7.42,7.39,0,3.24.07,6.48,0,9.72-.11,3.86-2.24,6.11-5.62,6.13s-5.46-2.26-5.59-6.07c-.21-5.94-.22-5.67-6.16-6-3.84-.24-5.09.93-4.58,4.67.28,2.09.14,4.33-1.65,5.89a5.71,5.71,0,0,1-6.28,1c-2.59-1.06-3.19-3.2-3.27-5.75-.19-5.73-.23-5.73-6-5.73-3.62,0-7.23.09-10.85,0-11.37-.34-19.09-8.16-19.31-19.5-.16-7.49-.16-7.43-7.55-7.51-15.71-.16-31.46.94-47.11-.51-12.51-1.15-23.68-5.86-30.79-17.17-1.09-1.73-2.49-1.32-3.89-1.32-13.22,0-26.43,0-39.65,0-6,0-7.79-1.94-7.43-7.92.72-12.13,11.31-22.91,23.48-23.61,5.47-.32,11-.24,16.45-.13,2,0,2.74-.54,3.24-2.48,5.08-19.69,18.38-30.57,37.72-34.93,1.14-.26,3.25.39,2.43-2.4-3.2-11-5.54-22.21-10.17-32.73a107.24,107.24,0,0,0-27.07-37.15q-8.24-7.33-16.44-14.71c-3.91-3.51-4.14-4.73-1.79-9.33,4.21-2.53,5.51-2.42,9.23.89q8.24,7.33,16.42,14.72a117.4,117.4,0,0,1,34.57,53.61c2.35,7.59,4.25,15.33,6.42,23,.41,1.45.43,3.21,2.82,3.23,12.22.14,24.36,1.4,36.51,2.6a2.69,2.69,0,0,0,2.83-1.26c2.09-3.09,4.27-6.11,6.41-9.15,2.18-2.86,4.25-5.82,6.58-8.55,1.53-1.8,1.15-3.1-.11-4.81q-20.91-28.46-41.7-57A39.23,39.23,0,0,0,308.7,464Q258,433.83,207.25,403.73c-.78-.46-1.55-1.42-2.92-.47,2.38,3.88,4.53,7.9,7.41,11.47,4.87,7.95,10.77,15.12,16.78,22.21C231.65,440.63,231.75,442.16,229.15,446.14ZM473,442.28q-20.13,11.81-40.25,23.58a49,49,0,0,0-15.07,13.74q-27,37.17-54.18,74.28c-.62.85-1.63,1.55-1.51,3,7,1,12.49-.77,16.67-7,13.95-20.94,28.2-41.67,42.3-62.51A60.4,60.4,0,0,1,434.44,473c13.08-10,26.09-20,39.12-30.06l.84-1A.89.89,0,0,0,473,442.28ZM246.38,611.63h0c6.36,0,12.72,0,19.08,0,2.94,0,4.79-1.59,4.81-4.56s-1.78-4.6-4.74-4.61c-9.48,0-18.95-.09-28.42.12-4.67.11-8.19,2.69-10.83,6.45-.47.67-1.38,1.46-.67,2.28.35.41,1.36.34,2.07.34C233.92,611.64,240.15,611.63,246.38,611.63Zm119.46,30.24c-5.58,0-5.58,0-5.57,5.41,0,.74,0,1.49,0,2.24.26,5.1,3.1,7.89,8.26,8.19,2.48.15,4.45.3,3.08-3.41-.79-2.12-.5-4.67-.53-7C371,641.87,371.06,641.87,365.84,641.87Z" transform="translate(-183.53 -377.57)" fill="#040404"/><path d="M229.15,446.14c2.6-4,2.5-5.51-.63-9.2-6-7.09-11.91-14.26-16.78-22.21a5.21,5.21,0,0,1,2.82.72c6.8,4.11,13.64,8.16,20.47,12.21,15.38,9.12,30.73,18.28,46.17,27.3,8.18,4.78,15.9,9.8,21.63,17.77C320.25,497,338.05,521,355.7,545.09c-2.14,3-4.32,6.06-6.41,9.15a2.69,2.69,0,0,1-2.83,1.26c-12.15-1.2-24.29-2.46-36.51-2.6-2.39,0-2.41-1.78-2.82-3.23-2.17-7.65-4.07-15.39-6.42-23a117.4,117.4,0,0,0-34.57-53.61q-8.2-7.36-16.42-14.72c-3.72-3.31-5-3.42-9.23-.89Z" transform="translate(-183.53 -377.57)" fill="#7090ee"/><path d="M425.27,636.24l0-.75a11.86,11.86,0,0,0,4.75-.7c6.65-2.29,12.63-5.5,17.61-10.69,3.92-4.1,7.49-8.65,12.46-11.67,8.31-5,17.49-4.83,26.69-4.55a106.7,106.7,0,0,0-13.1,12A31.58,31.58,0,0,1,451,630.46c-3.91.16-6.83,1.34-7.2,5.79Z" transform="translate(-183.53 -377.57)" fill="#d5ecf7"/><path d="M486.75,607.88c-9.2-.28-18.38-.49-26.69,4.55-5,3-8.54,7.57-12.46,11.67-5,5.19-11,8.4-17.61,10.69a11.86,11.86,0,0,1-4.75.7c-1-4-3.88-4.88-7.67-4.87-38.66.07-77.32,0-116,.07-10.32,0-19.37-2.78-26.65-10.58,6.19-5.36,8.15-11.84,5-19.48a14.15,14.15,0,0,0-10.69-9c-2.64-.51-2.55-1.49-1.87-3.37,4.57-12.72,13.83-20.19,26.72-23,9.12-2,18.4-.11,27.58.3,14.19.64,28.36,1.79,42.54,2.74,10,.68,17.59-3.27,23.16-11.52,14.09-20.84,28.27-41.61,42.35-62.45a53.41,53.41,0,0,1,12.24-13c14.61-11,29.16-22.14,43.74-33.23.1,2.08-1.1,3.5-2.49,4.79q-14.62,13.51-29.28,27c-5.11,4.68-10.11,9.54-15.55,13.84-8.87,7-14.93,15.72-17.74,26.73-1.81,7.08-4,14.07-5.92,21.11-2.35,8.47-4.6,17-7,25.43-.48,1.71-.61,3.08,1.49,3.34,7,.84,14,1.57,21,2.34.42,4.79,1.49,6,6.22,6.81,28.34,4.76,56.68,9.49,84.92,14.82,5.46,1,8.39,3.23,10.62,8.19-7.21,0-14.26.24-21.28-.06C502.17,602,494.15,603.46,486.75,607.88ZM293.56,594.34a5.17,5.17,0,0,0,5.34-5.4c.08-3.4-2.14-5.8-5.35-5.79a5.28,5.28,0,0,0-5.35,5.43C288.12,592,290.32,594.35,293.56,594.34Z" transform="translate(-183.53 -377.57)" fill="#e8f6fc"/><path d="M430.24,572.65c-7-.77-14-1.5-21-2.34-2.1-.26-2-1.63-1.49-3.34,2.4-8.46,4.65-17,7-25.43,2-7,4.11-14,5.92-21.11,2.81-11,8.87-19.7,17.74-26.73,5.44-4.3,10.44-9.16,15.55-13.84q14.68-13.46,29.28-27c1.39-1.29,2.59-2.71,2.49-4.79q22.11-17,44.24-34c3.84-2.95,7.73-5.83,11.6-8.74l.55.66c-7.47,13.15-16.79,24.93-26.86,36.14-13.94,15.51-30.2,28.55-45.5,42.62-2.93,2.7-5.94,5.31-8.9,8a51.25,51.25,0,0,0-15.43,25Q437.85,545.19,430.24,572.65Z" transform="translate(-183.53 -377.57)" fill="#d5ecf7"/><path d="M355.7,545.09C338.05,521,320.25,497,302.83,472.73c-5.73-8-13.45-13-21.63-17.77-15.44-9-30.79-18.18-46.17-27.3-6.83-4.05-13.67-8.1-20.47-12.21a5.21,5.21,0,0,0-2.82-.72c-2.88-3.57-5-7.59-7.41-11.47,1.37-.95,2.14,0,2.92.47Q258,433.82,308.7,464a39.23,39.23,0,0,1,11.77,10.78q20.82,28.5,41.7,57c1.26,1.71,1.64,3,.11,4.81C360,539.27,357.88,542.23,355.7,545.09Z" transform="translate(-183.53 -377.57)" fill="#5f82ec"/><path d="M473.56,442.92c-13,10-26,20.08-39.12,30.05a60.4,60.4,0,0,0-13.51,14.35c-14.1,20.84-28.35,41.57-42.3,62.51-4.18,6.26-9.66,8-16.67,7-.12-1.43.89-2.13,1.51-3q27.07-37.15,54.18-74.28a49,49,0,0,1,15.07-13.74q20.14-11.75,40.25-23.58Z" transform="translate(-183.53 -377.57)" fill="#6e8de9"/><path d="M246.38,611.63c-6.23,0-12.46,0-18.7,0-.71,0-1.72.07-2.07-.34-.71-.82.2-1.61.67-2.28,2.64-3.76,6.16-6.34,10.83-6.45,9.47-.21,18.94-.14,28.42-.12,3,0,4.76,1.63,4.74,4.61s-1.87,4.53-4.81,4.56c-6.36,0-12.72,0-19.08,0Z" transform="translate(-183.53 -377.57)" fill="#fce63f"/><path d="M473,442.28a.89.89,0,0,1,1.43-.33l-.84,1Z" transform="translate(-183.53 -377.57)" fill="#6e8de9"/><path d="M541.58,405.29c.31,0,.77-.17.9,0,.3.32,0,.54-.35.68Z" transform="translate(-183.53 -377.57)" fill="#d5ecf7"/><path d="M293.56,594.34c-3.24,0-5.44-2.36-5.36-5.76a5.28,5.28,0,0,1,5.35-5.43c3.21,0,5.43,2.39,5.35,5.79A5.17,5.17,0,0,1,293.56,594.34Z" transform="translate(-183.53 -377.57)" fill="#080909"/></svg>