<svg id="Capa_1" data-name="Capa 1" xmlns="http://www.w3.org/2000/svg" viewBox="0 0 242.26 408.6"><path d="M435.6,472.23c3.53-.69,6,.83,7.46,3.91,21.62,45.34,47.75,88.45,66.84,135,10.46,25.53,18.2,51.75,19.4,79.63,2.34,54.42-34,105.54-86.2,120.87-49.32,14.48-101.4-3.1-132.08-44.56-19.7-26.61-26.62-56.47-22.91-89.11,3.65-32.09,15.28-61.64,28.78-90.55,17.33-37.13,37.82-72.67,55.54-109.61,8.84-18.42,16.9-37.16,22.85-56.73,1.73-5.67,4.16-10.42,9.73-13h5.58c5.46,1.88,8.38,5.83,10,11.3a294.64,294.64,0,0,0,10.4,29.2c1.47,3.62,1.29,6.71-2.07,9.16-4.93,1.27-7,.26-8.95-4.45-1.46-3.51-2.9-7-4.34-10.56L408.33,421a17.37,17.37,0,0,0-.9,1.75c-9.41,31.15-23.74,60.17-38.46,89-17.48,34.27-36.59,67.74-51.25,103.4-9.94,24.18-17.64,49-18.54,75.38-.84,24.4,5.38,46.85,19.56,66.81,18.47,26,43.39,41.83,75.08,46.34a100.09,100.09,0,0,0,52-5.91,28.05,28.05,0,0,0,3.42-1c32.25-14,53.87-37.59,63.87-71.36,6.84-23.11,4.74-46.31-.86-69.32-7-28.92-19.31-55.82-32.66-82.24-15.36-30.42-31.7-60.34-46.62-91C430.31,477.31,430.86,475.1,435.6,472.23Z" transform="translate(-287.15 -408.08)" fill="#030404"/><path d="M435.6,472.23c-4.74,2.87-5.29,5.08-2.61,10.59,14.92,30.65,31.26,60.57,46.62,91,13.35,26.42,25.63,53.32,32.66,82.24,5.6,23,7.7,46.21.86,69.32-10,33.77-31.62,57.39-63.87,71.36a28.05,28.05,0,0,1-3.42,1,86.77,86.77,0,0,1-24.4-2.87c-35-9.2-60.15-30.77-76.43-62.6-11.55-22.6-15.39-46.84-12.79-72.21a256,256,0,0,1,10.16-49.3c10.4-33.76,26.08-65.28,41.36-97,8.42-17.48,17.11-34.83,25.59-52.28,2.9-6,5.57-12.06,6.25-18.79,1.44,3.52,2.88,7,4.34,10.56,2,4.71,4,5.72,8.95,4.45C430.43,462.88,431.78,468.13,435.6,472.23Zm59.52,242.9c-.16-3.13-1.58-5.28-4.46-6a5.37,5.37,0,0,0-6.67,3,45.22,45.22,0,0,0-2.27,6.35,75.5,75.5,0,0,1-22.36,34.63c-9.44,8.53-20.44,14.06-32.64,17.45-4.27,1.19-5.93,4.14-5,7.73.89,3.33,4.22,4.89,8.37,3.73q44.14-12.33,61.4-54.81A66,66,0,0,0,495.12,715.13Z" transform="translate(-287.15 -408.08)" fill="#b1ecfe"/><path d="M415.58,442.73c-.68,6.73-3.35,12.82-6.25,18.79-8.48,17.45-17.17,34.8-25.59,52.28-15.28,31.68-31,63.2-41.36,97a256,256,0,0,0-10.16,49.3c-2.6,25.37,1.24,49.61,12.79,72.21,16.28,31.83,41.45,53.4,76.43,62.6a86.77,86.77,0,0,0,24.4,2.87,100.09,100.09,0,0,1-52,5.91c-31.69-4.51-56.61-20.36-75.08-46.34-14.18-20-20.4-42.41-19.56-66.81.9-26.41,8.6-51.2,18.54-75.38C332.38,579.46,351.49,546,369,511.72c14.72-28.85,29-57.87,38.46-89a17.37,17.37,0,0,1,.9-1.75Z" transform="translate(-287.15 -408.08)" fill="#59d6fd"/><path d="M495.12,715.13a66,66,0,0,1-3.59,12q-17.26,42.45-61.4,54.81c-4.15,1.16-7.48-.4-8.37-3.73-1-3.59.69-6.54,5-7.73,12.2-3.39,23.2-8.92,32.64-17.45a75.5,75.5,0,0,0,22.36-34.63,45.22,45.22,0,0,1,2.27-6.35,5.37,5.37,0,0,1,6.67-3C493.54,709.85,495,712,495.12,715.13Z" transform="translate(-287.15 -408.08)" fill="#030404"/></svg>