<svg id="Capa_1" data-name="Capa 1" xmlns="http://www.w3.org/2000/svg" viewBox="0 0 408.72 248.88"><path d="M579.52,703.91c-2.22,3.12-5.41,3.78-9,3.92-13.11.51-26.21,1.18-40.28,1.83,3.55,3,6.45,5.39,9.3,7.85,4.86,4.19,4.48,8.56-1.06,11.71a210.37,210.37,0,0,1-33.54,15.47c-2.56.91-3.09,1.93-2.06,4.54,3,7.52,5.59,15.17,8.38,22.76,2.08,5.65,3.77,6.84,9.7,6.85q16.35,0,32.72,0c2.8,0,4.9,1,6.08,3.63a5.51,5.51,0,0,1-1.1,6.29,6.43,6.43,0,0,1-5,2c-12,0-23.95.28-35.91-.15-8.53-.3-14.26-5.17-17.22-13.18-3.07-8.33-6.14-16.67-9.07-25.05-.72-2.07-1.61-2.58-3.75-1.93C446.4,762.9,404,766.22,361.17,765.75c-1.73,0-3.36-.11-4.9,1.08-12.38,9.59-25.8,9.07-39.59,3.82-3.21-1.22-6.6-2.48-9.25-4.56-5.74-4.51-12.45-4.79-19.15-5.59-2.42-.28-3.32.17-3.19,2.81.21,4.78.12,9.58,0,14.36-.13,7.91-5,12.9-12.94,13.14-3.72.11-7.45.1-11.17,0-4.27-.13-7-2.64-6.95-6.13s2.75-5.74,7.15-5.82c3.06-.05,6.12-.11,9.18,0,2,.09,2.87-.4,2.81-2.61-.15-5-.11-10.11,0-15.16,0-1.89-.34-2.85-2.52-3-4-.33-8.38-2.42-11.68-1.21s-4.46,6.22-6.54,9.57c-3.43,5.53-6.8,11.1-10,16.74A14.19,14.19,0,0,1,229,790.85c-10.64-.08-21.28,0-31.92,0-3.39,0-6-1.36-6.83-4.89-.64-2.79.63-4.9,3-6.37,1.45-.88,3.08-.7,4.66-.7,9.85,0,19.69-.1,29.53.06,2.58,0,4.08-.68,5.37-3,3.43-6.14,7.19-12.09,10.71-18.18.71-1.24,2.8-3.23,1.4-3.86-1.93-.88-4.59-2.54-7-.23a51.25,51.25,0,0,1-5.32,4.79c-13.6,9.8-26.83,8.66-38.94-3.49-11.86-11.9-18-26.72-21.18-42.91-2.47-12.67-2.53-25.34,1.28-37.85,2.93-9.6,8.22-17.52,16.82-22.91,2.2-1.38,1.72-2.17.34-3.79-17.53-20.59-22.65-44.49-18.83-70.78,1.45-10,4.24-19.43,9.63-28a24.82,24.82,0,0,1,3.6-4.76c2.38-2.27,5.23-2.71,7.91-.5s3.28,5,1.23,7.79c-10,13.46-11.94,29-11.5,45A67.11,67.11,0,0,0,195.63,634c.14-4.35-1.47-7.75-2.13-11.3-3-16.24-3.17-32.22,3.63-47.7a40.39,40.39,0,0,1,7.08-11.46c2.36-2.55,5.24-3.06,8.2-.95a5.52,5.52,0,0,1,1.16,8.11c-11.42,15.38-11.46,32.57-8.14,50.29,1.35,7.2,3.89,14,6.4,20.9a3.3,3.3,0,0,0,3.3,2.63,56.9,56.9,0,0,0,19.19-1.61A437.37,437.37,0,0,1,375.12,631c6.09.46,12.19,1,18.26,1.7a4.55,4.55,0,0,0,4.39-1.9q10.88-12.5,21.87-24.86c8.67-9.72,21.6-10,29.5-.68a25.69,25.69,0,0,1,4.22,8.06c3.69,10.08,7.47,20.13,11,30.27a6,6,0,0,0,4.53,4.27A426.13,426.13,0,0,1,574.22,695a14.49,14.49,0,0,1,5.3,4.95Zm-61.36,11.74c-3.15-3.88-6.89-6.15-12.23-5.43-3.37.46-6.84.13-10.27.17-7.39.07-7.39.07-4,7.11,1.73,5,3.5,10,5.16,15,.64,1.93,1.6,2,3.28,1.23,4.63-2,9.37-3.69,14-5.71,4-1.76,8-3.78,12.43-5.91ZM299.51,705.54c-7.4,14.17-15.43,27.94-26.05,40.88,6.82.9,12.85,1.67,18.87,2.5a2.87,2.87,0,0,0,2.71-1.29l33.19-38.1a33.54,33.54,0,0,0,6-7c-8.5-1.17-16.59-2.37-24.7-3.37C302.1,698.25,302.09,698.35,299.51,705.54Zm159.27-.9c1.21-5.16,2.58-6.16,9.36-6.09,2.7,0,3.49-.4,2.42-3.26-4.53-12-8.88-24.12-13.22-36.22a4.3,4.3,0,0,0-3.63-3.09c-4.8-1-9.6-2.09-14.29-3.5-2.4-.73-3.52,0-4.78,1.92-6.2,9.59-12.53,19.09-18.81,28.62l-9,13.62c10.63.48,20.67.85,30.7,1.4,5.54.3,6.4,1.18,7.77,6.65-1.38,4.13-4.27,5.59-8.54,5.34-10.05-.58-20.15-.52-30.15-1.54-6-.61-9.82,1.2-12.15,6.59-.1.24-.18.49-.28.73Q382.29,733,370.37,750.17c-.63.92-2.08,1.82-1.41,3s2.17.49,3.3.49A465.69,465.69,0,0,0,424,750.92a355.55,355.55,0,0,0,60.1-11.84c1.72-.5,2.08-1.05,1.41-2.74-2.47-6.28-4.81-12.62-7.19-18.93-1.73-6.92-1.73-6.92-8.41-6.95-1.33,0-2.65,0-4,0C461.87,710.57,459.4,708.75,458.78,704.64Zm-228.92,40a18.7,18.7,0,0,0,1.94-1.94c12.23-16.35,17.22-34.89,15.34-55-1.74-18.68-11.7-30.66-30.62-31C205,656.38,195,659.39,189,670.28c-2.4,2.66-3.46,6-4.14,9.34-4.8,23.14.18,44.2,14.07,63.2a35.47,35.47,0,0,0,5.89,5.92C213.06,755.73,221.39,754.31,229.86,744.59Zm102.22,17.7c9.68.19,16.08-2.81,20.94-9,2.3-2.92,4.59-5.85,6.73-8.89C388,704.35,414.29,663,441.41,622.23c2.45-3.68.2-6.32-1.37-9s-4.23-3.12-7-2.5c-2.33.52-3.73,2.43-5.22,4.13L336.13,719q-13.44,15.27-26.83,30.57c-.69.8-3.11,1.7-.68,3.26C316.39,757.8,324.48,762,332.08,762.29ZM386.13,644c-11.8-1.45-22.95-1.6-34.07-2.22-1.47-.08-2.12.67-2.69,1.84-2.68,5.52-7,9.61-11.81,13.23-9.86,7.41-21,12.36-32.45,16.61-8,3-16.22,5.54-25.08,8.55l8.53,1.51c17.5,3.16,35.08,5.77,52.76,7.67,1.58.16,3,.41,4.31-1.09C358.9,674.94,372.24,659.82,386.13,644Zm-143.36,9.1A43.13,43.13,0,0,1,256.6,674c.5,1.65,1.75,1.26,2.93,1,21.78-5.4,43.22-11.81,63-22.64,4.87-2.67,9.82-5.44,13.52-10.48A439.94,439.94,0,0,0,242.77,653.13ZM470.69,661c4.48,12.19,8.77,23.6,12.81,35.1.84,2.41,2.23,2.48,4.2,2.44,17.14-.42,34.29-.76,51.43-1.18,4.43-.12,8.85-.46,14.1-.75A416.25,416.25,0,0,0,470.69,661Zm-212.41,83c1.25.22,2-.5,2.7-1.34a193.8,193.8,0,0,0,28.31-44.07c.91-1.94.41-2.42-1.54-2.79-8.59-1.64-17.16-3.41-25.72-5.21-1.87-.39-2.61,0-2.56,2.07A79.62,79.62,0,0,1,259,705.3a100.61,100.61,0,0,1-10.58,34c-.51,1-2.1,2.39.5,2.89C252,742.78,255.16,743.34,258.28,743.92Zm192.9-101.48-1.46-4c-.47-1.28-1-2.56-1.76-4.75-1.38,3-4.34,5-3.66,7.06C444.86,642.42,448.32,642.48,451.18,642.44Z" transform="translate(-170.8 -542.02)" fill="#030403"/><path d="M332.08,762.29c-7.6-.32-15.69-4.49-23.46-9.48-2.43-1.56,0-2.46.68-3.26q13.35-15.34,26.83-30.57L427.8,614.85c1.49-1.7,2.89-3.61,5.22-4.13,2.79-.62,5.54,0,7,2.5s3.82,5.33,1.37,9C414.29,663,388,704.35,359.75,744.42c-2.14,3-4.43,6-6.73,8.89C348.16,759.48,341.76,762.48,332.08,762.29Z" transform="translate(-170.8 -542.02)" fill="#bce56d"/><path d="M478.32,717.41c2.38,6.31,4.72,12.65,7.19,18.93.67,1.69.31,2.24-1.41,2.74A355.55,355.55,0,0,1,424,750.92a465.69,465.69,0,0,1-51.74,2.77c-1.13,0-2.66.67-3.3-.49s.78-2.11,1.41-3q11.89-17.2,23.85-34.36c13.46.43,26.92,1,40.37,1.52C449.15,717.89,463.74,717.43,478.32,717.41Z" transform="translate(-170.8 -542.02)" fill="#add554"/><path d="M386.13,644c-13.89,15.79-27.23,30.91-40.5,46.1-1.31,1.5-2.73,1.25-4.31,1.09-17.68-1.9-35.26-4.51-52.76-7.67L280,682c8.86-3,17.05-5.56,25.08-8.55,11.45-4.25,22.59-9.2,32.45-16.61,4.82-3.62,9.13-7.71,11.81-13.23.57-1.17,1.22-1.92,2.69-1.84C363.18,642.43,374.33,642.58,386.13,644Z" transform="translate(-170.8 -542.02)" fill="#d1f180"/><path d="M189,670.28c6.05-10.89,16.07-13.9,27.57-13.67,18.92.37,28.88,12.35,30.62,31,1.88,20.12-3.11,38.66-15.34,55a18.7,18.7,0,0,1-1.94,1.94,7.91,7.91,0,0,1-4.57-1.08c-8.8-4.36-15.49-11.12-20.95-19.06-9.61-14-14.9-29.4-14.41-46.61C190,675.36,191.11,672.55,189,670.28ZM234.22,689c-1.29-5.5-4.06-9.77-9.7-11.65-.7-6.06-2.52-7.54-8.59-7.06a20,20,0,0,0-10.59,4.15c-7.78,5.82-9.22,14-8.94,23.07.41,13.1,9.94,23,22.21,22.83,12.51-.21,21.74-10,21.77-23.16C240.4,691.92,239.37,690.55,234.22,689Z" transform="translate(-170.8 -542.02)" fill="#acd354"/><path d="M445.34,704.69c-1.37-5.47-2.23-6.35-7.77-6.65-10-.55-20.07-.92-30.7-1.4l9-13.62c6.28-9.53,12.61-19,18.81-28.62,1.26-1.95,2.38-2.65,4.78-1.92,4.69,1.41,9.49,2.49,14.29,3.5a4.3,4.3,0,0,1,3.63,3.09c4.34,12.1,8.69,24.19,13.22,36.22,1.07,2.86.28,3.29-2.42,3.26-6.78-.07-8.15.93-9.36,6.09Z" transform="translate(-170.8 -542.02)" fill="#d2f280"/><path d="M242.77,653.13a439.94,439.94,0,0,1,93.31-11.29c-3.7,5-8.65,7.81-13.52,10.48-19.81,10.83-41.25,17.24-63,22.64-1.18.29-2.43.68-2.93-1A43.13,43.13,0,0,0,242.77,653.13Z" transform="translate(-170.8 -542.02)" fill="#d0f180"/><path d="M470.69,661a416.25,416.25,0,0,1,82.54,35.61c-5.25.29-9.67.63-14.1.75-17.14.42-34.29.76-51.43,1.18-2,0-3.36,0-4.2-2.44C479.46,684.56,475.17,673.15,470.69,661Z" transform="translate(-170.8 -542.02)" fill="#d1f180"/><path d="M258.28,743.92c-3.12-.58-6.26-1.14-9.38-1.74-2.6-.5-1-1.93-.5-2.89a100.61,100.61,0,0,0,10.58-34,79.62,79.62,0,0,0,.49-12.72c-.05-2.08.69-2.46,2.56-2.07,8.56,1.8,17.13,3.57,25.72,5.21,1.95.37,2.45.85,1.54,2.79A193.8,193.8,0,0,1,261,742.58C260.27,743.42,259.53,744.14,258.28,743.92Z" transform="translate(-170.8 -542.02)" fill="#8ac545"/><path d="M189,670.28c2.16,2.27,1.06,5.08,1,7.56-.49,17.21,4.8,32.61,14.41,46.61,5.46,7.94,12.15,14.7,20.95,19.06a7.91,7.91,0,0,0,4.57,1.08c-8.47,9.72-16.8,11.14-25.09,4.15a35.47,35.47,0,0,1-5.89-5.92c-13.89-19-18.87-40.06-14.07-63.2C185.49,676.32,186.55,672.94,189,670.28Z" transform="translate(-170.8 -542.02)" fill="#8ac545"/><path d="M328.23,709.53,295,747.63a2.87,2.87,0,0,1-2.71,1.29c-6-.83-12.05-1.6-18.87-2.5,10.62-12.94,18.65-26.71,26.05-40.88C309.16,706.27,318.66,708.19,328.23,709.53Z" transform="translate(-170.8 -542.02)" fill="#acd454"/><path d="M445.34,704.69l13.44-.05c.62,4.11,3.09,5.93,7.15,5.81,1.33,0,2.65,0,4,0,6.68,0,6.68,0,8.41,6.95-14.58,0-29.17.48-43.73-.08-13.45-.51-26.91-1.09-40.37-1.52.1-.24.18-.49.28-.73,2.33-5.39,6.11-7.2,12.15-6.59,10,1,20.1,1,30.15,1.54C441.07,710.28,444,708.82,445.34,704.69Z" transform="translate(-170.8 -542.02)" fill="#8ac445"/><path d="M518.16,715.65l8.35,6.47c-4.45,2.13-8.38,4.15-12.43,5.91-4.62,2-9.36,3.73-14,5.71-1.68.72-2.64.7-3.28-1.23-1.66-5-3.43-10-5.16-15,5.69,0,11.39.11,17.08-.08C511.92,717.31,515.22,717.27,518.16,715.65Z" transform="translate(-170.8 -542.02)" fill="#acd354"/><path d="M328.23,709.53c-9.57-1.34-19.07-3.26-28.72-4,2.58-7.19,2.59-7.29,10-6.38,8.11,1,16.2,2.2,24.7,3.37A33.54,33.54,0,0,1,328.23,709.53Z" transform="translate(-170.8 -542.02)" fill="#8ac445"/><path d="M518.16,715.65c-2.94,1.62-6.24,1.66-9.43,1.77-5.69.19-11.39.07-17.08.08-3.38-7-3.38-7,4-7.11,3.43,0,6.9.29,10.27-.17C511.27,709.5,515,711.77,518.16,715.65Z" transform="translate(-170.8 -542.02)" fill="#8ac445"/><path d="M234.22,689c5.15,1.52,6.18,2.89,6.16,8.18,0,13.13-9.26,22.95-21.77,23.16-12.27.21-21.8-9.73-22.21-22.83-.28-9,1.16-17.25,8.94-23.07a20,20,0,0,1,10.59-4.15c6.07-.48,7.89,1,8.59,7.06l-3.45,4.8-2,.48c-4.42-1.21-7,1.38-9.17,4.59s-1.47,6.9-1.46,10.43a10.43,10.43,0,0,0,8.83,10.63c4.17.77,8.14-1.83,10.32-6.76,1.18-1.34.75-3,.76-4.5C228.36,692.92,229.94,690,234.22,689Z" transform="translate(-170.8 -542.02)" fill="#020301"/><path d="M234.22,689c-4.28,1-5.86,3.89-5.87,8,0,1.52.42,3.16-.76,4.5-3.28-.83-5.81-2.33-5.65-6.27,3.63-.78,6.1-2.84,6-6.73-.14-4.14-3.1-5.79-6.83-6.37l3.45-4.8C230.16,679.26,232.93,683.53,234.22,689Z" transform="translate(-170.8 -542.02)" fill="#5f5660"/><path d="M221.94,695.28c-.16,3.94,2.37,5.44,5.65,6.27-2.18,4.93-6.15,7.53-10.32,6.76a10.43,10.43,0,0,1-8.83-10.63c0-3.53-.76-7.21,1.46-10.43s4.75-5.8,9.17-4.59c-2.6,1.91-4.33,4.25-3.5,7.67S218.85,694.87,221.94,695.28Z" transform="translate(-170.8 -542.02)" fill="#4b3f4d"/><path d="M221.94,695.28c-3.09-.41-5.57-1.66-6.37-4.95s.9-5.76,3.5-7.67l2-.48c3.73.58,6.69,2.23,6.83,6.37C228,692.44,225.57,694.5,221.94,695.28Z" transform="translate(-170.8 -542.02)" fill="#f9f9f9"/></svg>