<svg id="Capa_1" data-name="Capa 1" xmlns="http://www.w3.org/2000/svg" viewBox="0 0 383.85 261.12"><path d="M429.23,626c-.35,4-2.53,5.79-6.49,6.34a427.74,427.74,0,0,1-72.85,4.09,9.3,9.3,0,0,0-6.5,2,73.33,73.33,0,0,1-13.6,8.51c-1.69.8-2.16,1.45-1.1,3.26,5.19,8.79,10.25,17.65,15.29,26.52a9.1,9.1,0,0,0,3.27,3c6.17,4,12.36,8,18.52,12,3.72,2.43,4.63,5.45,2.68,8.43s-5.09,3.32-8.83.93c-6.92-4.44-13.8-9-20.75-13.36a12.61,12.61,0,0,1-4.2-4.63c-5.56-9.72-11.19-19.41-16.75-29.13-.84-1.48-1.52-2.39-3.66-2.21-12.35,1.07-25.08-8.49-27.37-20.67-.5-2.65-1.7-3.46-3.94-4A207.7,207.7,0,0,1,249,615.58c-3.64-1.59-7.15.68-10.68,0-3.31-.67-4.43,1-5.4,3.82-7,20.33-14.22,40.58-21.17,60.93-1.35,3.94-3.56,6.17-7.62,7.23-6,1.57-11.9,3.65-17.85,5.48-4.58,1.4-7.43.28-8.57-3.3-1.1-3.42.75-6,5.34-7.47,5.11-1.59,10.21-3.2,15.35-4.69a4.73,4.73,0,0,0,3.53-3.33q10.17-29.41,20.56-58.77c.77-2.17.62-3.2-1.54-4.34-5.85-3.07-10.22-7.83-14.16-13.34-2,2.45-3.9,4.76-5.83,7-13.93,16.29-31.85,10-39.95-2.88-6.73-10.66-8.29-22.51-7.44-34.81a70.07,70.07,0,0,1,1.87-12.18,12.82,12.82,0,0,0,.22-5.46A18.21,18.21,0,0,1,166,529.76c2.55-1.16,4-3.32,6-5,1.31-1.06.5-2.24.22-3.41-5.79-24.18-16.62-46-31.34-65.94-1.52-2-3.21-4-4.82-6V445c4.41-4.68,7.47-4.55,11.41.54,15.91,20.61,27.74,43.27,34.6,68.44.25.89-.09,2.82,1.4,2.57,1.89-.31.76-2,.57-3.07-3.27-18.39-10-35.58-18.57-52.09-.52-1-1.06-2-1.58-3-2.16-4.14-1.58-7.27,1.67-9s6-.43,8.15,3.5c3.33,6,6.26,12.14,9,18.41a177.62,177.62,0,0,1,12.08,38.3c.42,2.23,1,3.7,3.73,2.86a4.61,4.61,0,0,1,2.6-.08c7.36,2.28,14.31.1,21.33-1.73a28.28,28.28,0,0,1,6.31-.64c5.08-.13,6.34.89,7.47,5.79a6.82,6.82,0,0,1-3.87,5.19c-3.35.54-6.9-.26-10.23,1.43,12,18.3,9.92,36-1.61,53.43-2,3-3.77,6.14-5.69,9.2-.76,1.21-1.3,2.28-.37,3.74a40.35,40.35,0,0,0,10.42,11.59c1.83,1.32,2.64.94,3.34-1.15,2.33-6.94,4.86-13.83,7.2-20.77.94-2.79,2.35-5.1,5.51-5.33,2.95-.21,4.66,1.76,6.16,4.1,2.88,4.48,5.27,9.28,8.78,13.35.33,2.06,2,3.41,2.81,5.18s1.78,1.92,3.43.79a58.64,58.64,0,0,0,12.05-10.51c3.92-4.64,5.74-9.78,4.9-15.85-.51-3.69-.71-7.43-1.33-11.09-2.44-14.34-8.51-26.2-22.66-32.4-3.44-1.5-4.36-4.16-3.59-7.62,3-3.73,5.25-4.6,9.29-2,5.24,3.41,10.75,3.68,16.69,3.72a426.67,426.67,0,0,1,84,8.44,5.77,5.77,0,0,0,5.42-1.36c19.45-16.22,39.4-31.78,61.36-44.56,6.23-3.63,12.61-7,19.71-8.81a19.89,19.89,0,0,1,8.16-.5,9.82,9.82,0,0,1,8.32,8.81c.15,1.85.48,4-.21,5.56-3.35,7.85-1.13,15.71-.28,23.52,2.3,21.18,4.87,42.32,7.23,63.49a13.23,13.23,0,0,0,4,8.78,94.31,94.31,0,0,1,14.56,18.46c4.61,7.34,1.65,14.8-6.72,17.23-6.59,1.91-6.55,1.91-5.73,8.76,1.25,10.51,2.54,21,3.62,31.55.65,6.4,3.37,11.21,9,14.63,8.19,5,16.16,10.35,24.26,15.49a30.86,30.86,0,0,1,5.7,4.53v4.49c-4,4.13-5.8,4.3-10.86,1.05-8.27-5.32-16.46-10.77-24.85-15.9-8.6-5.26-13.32-12.73-14.38-22.71-1.22-11.5-2.69-23-3.82-34.5-.26-2.74-1.09-2.94-3.45-2.27-3.46,1-7,1.59-10.57,2.34s-6.45,0-7.9-3.72c-.08-4.91,1.07-6.31,5.85-7.38,4.34-1,8.66-2,13-3,2.38-.17,1.1-1.79,1-2.76-.78-7.41-1.71-14.8-2.43-22.21a5.69,5.69,0,0,0-2.22-4,154.88,154.88,0,0,0-30.84-20.81c-8.31-4.34-8.31-4.34-14,3.49-.59.64-1.21,1.26-1.76,1.93-16.08,19.23-32.94,37.74-51.33,54.81-.4.37-1.08.69-.66,1.66,20.16.33,40.24-1.41,60.25-4.07C425.75,620.66,427.26,621.44,429.23,626ZM239.39,601.89c-1.09,1.59-.94,2.59,1.26,2.38,1.73-.16,3.46-.42,5.16-.75,4.07-.79,4.08-.87,1.36-4.42a24.33,24.33,0,0,0-4.61-7.07C241.42,595.58,240.4,598.73,239.39,601.89Zm-44.94-77.1c-3,.37-5.6,1.93-8.26,3.3-2.47,1.27-3,2.19-.35,4.24,6,4.66,7.84,11.18,6.27,18.36-1.53,6.95-6.07,11.58-13,13.66-4.6,1.4-9.1.65-13.6-1.16a47.81,47.81,0,0,0,.64,22.3c1.55,6,3.71,11.91,9.53,15.42,4.67,3,8.85,3,13.14-.17a33.94,33.94,0,0,0,7.38-7.89c6.56-9.12,12.23-18.81,18-28.41a32.28,32.28,0,0,0,4.25-21.58C216.93,531.33,208.81,519.88,194.45,524.79Zm239.14-31.24c-1.95,1.09-4,2.07-5.85,3.28-36.5,23.61-69.41,51.57-99.85,82.49a187.47,187.47,0,0,0-21.81,26.06c-.92,1.34-1.87,2.45-.74,4.33,4.62,7.66,9.08,15.42,13.61,23.14,2.8,6,2.8,6,8.39,2.77,9-5.2,17-11.77,24.67-18.74,21.75-19.76,41.15-41.69,59.56-64.51,13.78-17.08,26.9-34.62,37.23-54.1,1.8-3.39,1.53-6.65,1.16-10.11-.2-1.85-1-2.21-2.76-1.49A72.13,72.13,0,0,0,433.59,493.55Zm-80.37,46a6.08,6.08,0,0,0-1.13-.57,440.85,440.85,0,0,0-69.92-6.8c-2.41-.05-2.43.68-1.36,2.53,8.18,14.21,10.41,29.59,9,45.69a4.3,4.3,0,0,0,.05,2.18c2.62,4.73,5.35,9.41,8.21,14.4C314.26,575.28,333.53,557.4,353.22,539.56Zm74.29,10.85a190.56,190.56,0,0,1,31.81,19.29c-2.16-18.68-4.23-36.63-6.42-55.59A440.7,440.7,0,0,1,427.51,550.41ZM181.17,546.7c0-4.32-2.88-7.4-7.06-7.45a7.21,7.21,0,1,0,0,14.41A6.74,6.74,0,0,0,181.17,546.7ZM310,640.27c-3.89-6.75-7.52-13-11.4-19.74C295.75,629.66,300.94,638.68,310,640.27Zm-34.16-39.53c-3,2.07-5.21,3.61-7.43,5.13-2.41,1.65-2.63,3.67,0,4.92,1.46.69,3.92,3.74,5.35.24C274.94,608.13,275.08,604.8,275.86,600.74Zm11.34,1c-.93,4.39-1.77,8.25-2.55,12.13-.19.94-.5,2.06.94,2.4.84.19,1.66.45,2.4-.37C291.47,612,291.31,606.48,287.2,601.76Zm187,2.24c2,1.39-1.12,5.24,2.59,5.91.81.15,3.56.06,3-1.61-.83-2.32-2.11-4.86-4.58-6C474.17,601.78,474.26,603,474.2,604Z" transform="translate(-136.08 -441.6)" fill="#030303"/><path d="M251.49,519.15c-.77,3.46.15,6.12,3.59,7.62,14.15,6.2,20.22,18.06,22.66,32.4.62,3.66.82,7.4,1.33,11.09.84,6.07-1,11.21-4.9,15.85a58.64,58.64,0,0,1-12.05,10.51c-1.65,1.13-2.59,1-3.43-.79s-2.48-3.12-2.81-5.18c1.08-1.81,2.11-3.65,3.24-5.43,1.41-2.24,2.73-4.58,2.85-7.22.65-13.86-.82-27.44-8-39.6-4.91-8.31-11.92-14.62-21.58-17.34a6.82,6.82,0,0,0,3.87-5.19C241.45,516.35,246.44,517.9,251.49,519.15Z" transform="translate(-136.08 -441.6)" fill="#c56c36"/><path d="M429.23,626c-2-4.6-3.48-5.38-8.32-4.74-20,2.66-40.09,4.4-60.25,4.07-.42-1,.26-1.29.66-1.66,18.39-17.07,35.25-35.58,51.33-54.81.55-.67,1.17-1.29,1.76-1.93a6.23,6.23,0,0,1,3.78,1.37c15.51,9.7,29.42,21.17,40.05,36.24,1.9,2.7,4.18,5.25,4.7,8.71-4.33,1-8.65,2.06-13,3-4.78,1.07-5.93,2.47-5.85,7.38A133.27,133.27,0,0,0,429.23,626Z" transform="translate(-136.08 -441.6)" fill="#df9873"/><path d="M319,632.85c-4.53-7.72-9-15.48-13.61-23.14-1.13-1.88-.18-3,.74-4.33a187.47,187.47,0,0,1,21.81-26.06c30.44-30.92,63.35-58.88,99.85-82.49,1.87-1.21,3.9-2.19,5.85-3.28,1.32.86.36,1.76,0,2.58a170.28,170.28,0,0,1-15.49,26.75A584.74,584.74,0,0,1,382,569.73Q365.59,589.05,348,607.22c-4.5,4.64-9.32,9-14.08,13.35A122.88,122.88,0,0,1,319,632.85Z" transform="translate(-136.08 -441.6)" fill="#d57e49"/><path d="M353.22,539.56c-19.69,17.84-39,35.72-55.18,57.43-2.86-5-5.59-9.67-8.21-14.4a4.3,4.3,0,0,1-.05-2.18c1.44-16.1-.79-31.48-9-45.69-1.07-1.85-1.05-2.58,1.36-2.53a440.85,440.85,0,0,1,69.92,6.8A6.08,6.08,0,0,1,353.22,539.56Z" transform="translate(-136.08 -441.6)" fill="#de9772"/><path d="M319,632.85a122.88,122.88,0,0,0,14.93-12.28c4.76-4.38,9.58-8.71,14.08-13.35q17.66-18.16,34.07-37.49a584.74,584.74,0,0,0,36.06-46.85,170.28,170.28,0,0,0,15.49-26.75c.37-.82,1.33-1.72,0-2.58a72.13,72.13,0,0,1,13.61-6.88c1.76-.72,2.56-.36,2.76,1.49.37,3.46.64,6.72-1.16,10.11-10.33,19.48-23.45,37-37.23,54.1-18.41,22.82-37.81,44.75-59.56,64.51-7.66,7-15.65,13.54-24.67,18.74C321.75,638.84,321.75,638.84,319,632.85Z" transform="translate(-136.08 -441.6)" fill="#c66c35"/><path d="M232.37,521.06c9.66,2.72,16.67,9,21.58,17.34,7.2,12.16,8.67,25.74,8,39.6-.12,2.64-1.44,5-2.85,7.22-1.13,1.78-2.16,3.62-3.24,5.43-3.51-4.07-5.9-8.87-8.78-13.35-1.5-2.34-3.21-4.31-6.16-4.1-3.16.23-4.57,2.54-5.51,5.33-2.34,6.94-4.87,13.83-7.2,20.77-.7,2.09-1.51,2.47-3.34,1.15a40.35,40.35,0,0,1-10.42-11.59c-.93-1.46-.39-2.53.37-3.74,1.92-3.06,3.7-6.19,5.69-9.2,11.53-17.42,13.63-35.13,1.61-53.43C225.47,520.8,229,521.6,232.37,521.06Z" transform="translate(-136.08 -441.6)" fill="#d57e49"/><path d="M194.45,524.79c14.36-4.91,22.48,6.54,24.07,18.07a32.28,32.28,0,0,1-4.25,21.58c-5.79,9.6-11.46,19.29-18,28.41a33.94,33.94,0,0,1-7.38,7.89c-4.29,3.12-8.47,3.16-13.14.17a4.49,4.49,0,0,1,1.22-2.66c6.74-9.23,12.5-19.09,18.47-28.82,5.57-9.1,8-18.82,6-29.53C200.29,534.24,197.19,529.63,194.45,524.79Z" transform="translate(-136.08 -441.6)" fill="#c66c35"/><path d="M194.45,524.79c2.74,4.84,5.84,9.45,6.93,15.11,2.05,10.71-.39,20.43-6,29.53-6,9.73-11.73,19.59-18.47,28.82a4.49,4.49,0,0,0-1.22,2.66c-5.82-3.51-8-9.37-9.53-15.42a47.81,47.81,0,0,1-.64-22.3c4.5,1.81,9,2.56,13.6,1.16,6.88-2.08,11.42-6.71,13-13.66,1.57-7.18-.3-13.7-6.27-18.36-2.61-2.05-2.12-3,.35-4.24C188.85,526.72,191.41,525.16,194.45,524.79Z" transform="translate(-136.08 -441.6)" fill="#d47d49"/><path d="M462.94,613.29c-.52-3.46-2.8-6-4.7-8.71-10.63-15.07-24.54-26.54-40.05-36.24a6.23,6.23,0,0,0-3.78-1.37c5.72-7.83,5.72-7.83,14-3.49a154.88,154.88,0,0,1,30.84,20.81,5.69,5.69,0,0,1,2.22,4c.72,7.41,1.65,14.8,2.43,22.21C464,611.5,465.32,613.12,462.94,613.29Z" transform="translate(-136.08 -441.6)" fill="#d98557"/><path d="M181.17,546.7a6.74,6.74,0,0,1-7.07,7,7.21,7.21,0,1,1,0-14.41C178.29,539.3,181.21,542.38,181.17,546.7Z" transform="translate(-136.08 -441.6)" fill="#665c66"/><path d="M310,640.27c-9.08-1.59-14.27-10.61-11.4-19.74C302.5,627.24,306.13,633.52,310,640.27Z" transform="translate(-136.08 -441.6)" fill="#cc7846"/><path d="M275.86,600.74c-.78,4.06-.92,7.39-2.11,10.29-1.43,3.5-3.89.45-5.35-.24-2.6-1.25-2.38-3.27,0-4.92C270.65,604.35,272.85,602.81,275.86,600.74Z" transform="translate(-136.08 -441.6)" fill="#d4906d"/><path d="M287.2,601.76c4.11,4.72,4.27,10.28.79,14.16-.74.82-1.56.56-2.4.37-1.44-.34-1.13-1.46-.94-2.4C285.43,610,286.27,606.15,287.2,601.76Z" transform="translate(-136.08 -441.6)" fill="#d4906d"/><path d="M239.39,601.89c1-3.16,2-6.31,3.17-9.86a24.33,24.33,0,0,1,4.61,7.07c-1.92.26-3.12,1.77-4.71,2.6C241.53,602.19,240.5,603.57,239.39,601.89Z" transform="translate(-136.08 -441.6)" fill="#cc7846"/><path d="M239.39,601.89c1.11,1.68,2.14.3,3.07-.19,1.59-.83,2.79-2.34,4.71-2.6,2.72,3.55,2.71,3.63-1.36,4.42-1.7.33-3.43.59-5.16.75C238.45,604.48,238.3,603.48,239.39,601.89Z" transform="translate(-136.08 -441.6)" fill="#c56c36"/><path d="M474.2,604c.06-1,0-2.22,1-1.74,2.47,1.18,3.75,3.72,4.58,6,.6,1.67-2.15,1.76-3,1.61C473.08,609.24,476.19,605.39,474.2,604Z" transform="translate(-136.08 -441.6)" fill="#d47d49"/></svg>