<svg id="Capa_1" data-name="Capa 1" xmlns="http://www.w3.org/2000/svg" viewBox="0 0 409.49 506.14"><path d="M182.35,919.83c-2.67-2.32-6.31-3.33-8.45-6.41-2-2.9-3.61-5.95-3.44-9.56C172.79,853,189.89,809.18,232,777.79c20.12-15,43.18-22.67,68.09-24.71,3.28-.27,4-1.22,4-4.3-.18-11.19-.09-22.38,0-33.57,0-2-.17-3.65-2-5.19-23.17-19.9-35.53-45.52-39.47-75.47a11.78,11.78,0,0,0-2.22-5.3Q227.1,580.07,231.9,520.89a72.59,72.59,0,0,1,17.82-42.47c.72-.82,1.92-1.41,1.57-2.84-.31-.08-.67-.29-.93-.2-4.78,1.63-9.26,1.65-12.08-3.29s-.05-8.64,3.21-12.25c25.06-27.68,55.38-37.6,91.71-27.33a5.34,5.34,0,0,0,5-.72c34.84-24.19,70.74-23.34,106-2.17,45.65,27.4,67.17,68.6,63.88,121.86-1.42,22.92-10.29,43.31-26.13,60.3a7.31,7.31,0,0,0-2.32,5.59c.95,37-12,68.09-39.79,92.74a5.53,5.53,0,0,0-1.91,4.73c0,11.52.07,23,0,34.56,0,2.34.35,3.39,3.11,3.59,73.75,5.36,125.88,60.3,136.58,129.17.75,4.87,1.07,9.81,1.87,14.67,1.77,10.69-1.81,18.5-11.9,23ZM449,580.55A67.49,67.49,0,0,1,465.73,592c.77-21,1.59-40.9-12.05-58.91a72.14,72.14,0,0,1-8.33,17.4c-7.31,10.27-16.54,18.71-26.16,26.92A59.2,59.2,0,0,1,449,580.55ZM320.85,734.15c0,5.42,0,10.85-.18,16.27-.09,2.47.64,3.34,3.2,3.65,9.46,1.14,18.87,2.63,28.31,3.94,6.66.93,13.45,3,20,2.41,15.52-1.47,30.9-4.28,46.36-6.42,2.07-.29,2.81-1,2.76-3.07-.16-5.92-.17-11.83-.24-17.75V723.3c-33.61,16.58-66.87,16.65-100.18,0ZM431.19,594c-5.75-1-11.1.43-16.21,2.89a33.35,33.35,0,0,0-17.41,39.8c4.66,15.35,19.6,25.32,34.6,23.07a9.49,9.49,0,0,0,5.3-.34c14.28-3.78,23-13.86,25.23-29.26C465.35,612,449,593.27,431.19,594ZM314.63,659.84a9.46,9.46,0,0,0,4.87-.16,33.54,33.54,0,0,0,25.63-39.56c-3.09-14.71-17.14-26.69-30.52-26-20.57-2.62-38.82,17-35.16,37.82C282.62,649.94,298.11,662.23,314.63,659.84ZM362,636.23c-.28.94-.61,1.86-.85,2.81A50.11,50.11,0,0,1,313,677.1c-6.61.11-13-1.23-20.11-3.67a89.3,89.3,0,0,0,26.45,28.89c23.4,16.16,48.83,21,76.38,12.85,22.95-6.34,40-20.4,52.47-40.33.1-.16-.09-.51-.23-1.19-5.7,2.43-11.69,3.12-17.71,3.63-11.18.06-21.16-3.83-30.64-9.33-.09-.29-.08-.7-.27-.86-11.61-9.2-18.41-21-19.71-35.9-.11-1.32-.27-2.77-1.76-3.24a20.43,20.43,0,0,0-13.5,0C360.62,629.38,362.58,633.38,362,636.23ZM472.81,777.11c-9.5-4.45-19.7-6-30-7.32-3-.38-4.79-.26-4.78,3.8q.17,62.7-.1,125.4c0,3.27,1,4.14,4.18,4.13q51.84-.2,103.68-.14c4.44,0,8.88-.08,13.31.1,2.79.11,3.74-.91,3.64-3.71a118.16,118.16,0,0,0-3-21.86c-10.24-45.49-35.43-79.07-78.64-98.13C478.48,778.23,475.88,776.68,472.81,777.11ZM412.44,434c-5.75-1.24-11.37-3.05-17.34-3.17-19-.39-36,5.18-50.67,17.26-3.65,3-7.2,3.94-11.78,2a63.07,63.07,0,0,0-40-3.36c-7.39,1.73-14.49,4.34-21.2,9.43A23,23,0,0,1,283,460.71c6.2,4.52,5.52,12.39-1.5,15.24-18.28,7.43-28,21.66-32,40.28-5.2,24.69.52,48.27,8.08,71.58,0,.1.5.05.81.07,0-3.64,0-7.26,0-10.87s-.14-7.25.11-10.86c.42-6,.68-12.19,3.35-17.8,3.29-6.9,10.36-8.1,15.69-2.72a86.12,86.12,0,0,0,10,8.83c2.31,1.69,3.32,1.57,4.48-1.29a68,68,0,0,1,28.56-33.62c14.51-8.67,29.84-14.06,46.87-7.65,11.34,4.27,19.6,12.37,26.55,22,6.37,8.87,10.87,18.69,14.81,28.88,3.82-1.67,6.46-4.5,9.18-7,9.22-8.58,17.91-17.65,20.13-30.77.9-5.31,3.15-9.28,8.23-11.33s9.48-.35,13.75,2.75c6,4.36,9.75,10.59,14.29,16.17,3.46,9.36,6.88,18.75,7.72,28.8.49,5.89.64,11.81,1,18.86.88-1.62,1.23-2.14,1.46-2.71,9.4-22.28,9.34-45.11,2.94-68a107.45,107.45,0,0,0-35.48-54.46C440.35,445.38,427.37,437.83,412.44,434Zm-108.5,402.2h-.09c0-20.74-.07-41.48.07-62.22,0-3.35-.65-4.71-4.32-4.3-26.08,2.87-49.43,12.07-68.81,30.06-28.78,26.71-40.51,61-43.53,99.12-.3,3.82,1.31,4.2,4.48,4.19q53.82-.14,107.64,0c3.71,0,4.68-1,4.65-4.67C303.85,877.71,303.94,857,303.94,836.24ZM276.29,592c1.55-1.42,2.47-2.34,3.47-3.16,12-9.75,25.71-13.81,41-11.17,18.28,3.15,30.88,13.8,38.17,30.71,1,2.41,1.8,3.11,4.53,2.58a39.71,39.71,0,0,1,14.74,0c2.82.53,3.85,0,4.9-2.7a49.48,49.48,0,0,1,18.68-23c1-.69,2.52-.87,2.87-2.7-6.19-1.32-8.91-5.82-10.85-11.38-4.89-14.08-11.11-27.47-22.56-37.61-8-7-17-9.38-27.45-6.06-19,6.07-31.81,18.44-38.32,37.31C301.93,575,294.3,577.86,285,572.51c-3.07-1.76-6.05-3.68-9.75-5.94C275.3,575.3,274.84,583.28,276.29,592Zm145,241-.89-.24c-1.28,2.28-2.56,4.57-3.85,6.85-9.42,16.64-20.86,31.55-36.69,42.66-6.5,4.56-11.21,4.5-17.67,0-11.07-7.7-20-17.45-27.79-28.43-4.78-6.76-8.69-14.06-13.65-22.16,0,9,.1,16.68,0,24.37a12.34,12.34,0,0,0,2.26,7.35,101.94,101.94,0,0,0,43.59,37.41,9.75,9.75,0,0,0,8.89,0,101.26,101.26,0,0,0,43.82-37.85,9.87,9.87,0,0,0,2-5.44C421.22,849.29,421.25,841.11,421.25,832.92Zm-62-21c-2.39,12.1-4.72,23.91-7,35.73-.32,1.62.55,2.81,1.51,4A106,106,0,0,0,368,865.83c2.11,1.77,3.72,1.91,5.94.06a114.94,114.94,0,0,0,14.29-14.22c1.09-1.3,1.93-2.63,1.56-4.44-2.36-11.65-4.7-23.31-7.09-35.18C370.63,821.66,369.16,819.75,359.22,811.9ZM403,828.08c2.06-1.24,2.53-3.29,3.37-5a267.7,267.7,0,0,0,12.51-30.42c2.24-6.41,2.25-12.87,2.21-19.43,0-1.34.12-2.81-2-2.5l-24.7,3.66c1,.89,1.36,1.24,1.75,1.52,8.72,6.28,9.38,11.43,2.34,19.35a4.35,4.35,0,0,0-1.23,4.35C399.26,809,401.05,818.48,403,828.08Zm-55.08-53.66c-8.93-1.31-16.85-2.45-24.76-3.67-2.26-.35-2.32.91-2.35,2.58-.11,6.58.07,13,2.32,19.42a255.26,255.26,0,0,0,12.8,30.87c.76,1.49,1,3.52,3.1,4.27,1.8-8.93,3.47-17.77,5.41-26.56a7,7,0,0,0-2.12-7.36c-5.26-5.26-4.69-11.74,1-16.19C344.37,776.87,345.59,776.06,347.87,774.42Zm22,25c2.32-.91,12.3-11,12.09-12.28a.68.68,0,0,0-.23-.4c-3.21-2.24-6.3-4.68-9.68-6.61-2.32-1.33-3.83,1.15-5.49,2.23-7.48,4.84-7.4,4.84-1.15,11.25A59.19,59.19,0,0,1,369.83,799.4Zm34.95,103.23c5.39.92,10.15.41,14.87.38,1.48,0,1.71-1.26,1.71-2.47,0-3.84,0-7.68,0-12.72C415.67,893.34,410.93,898.2,404.78,902.63Zm-69,.47c-5-5-9.6-9.88-15.18-15.35,0,5.12,0,8.88,0,12.64,0,1.81.69,2.74,2.59,2.72C327.41,903.08,331.61,903.1,335.81,903.1Z" transform="translate(-170.44 -413.69)" fill="#020202"/><path d="M474.4,532.61c-4.54-5.58-8.28-11.81-14.29-16.17-4.27-3.1-8.58-4.84-13.75-2.75s-7.33,6-8.23,11.33c-2.22,13.12-10.91,22.19-20.13,30.77-2.72,2.53-5.36,5.36-9.18,7-3.94-10.19-8.44-20-14.81-28.88-6.95-9.67-15.21-17.77-26.55-22-17-6.41-32.36-1-46.87,7.65A68,68,0,0,0,292,553.17c-1.16,2.86-2.17,3-4.48,1.29a86.12,86.12,0,0,1-10-8.83c-5.33-5.38-12.4-4.18-15.69,2.72-2.67,5.61-2.93,11.75-3.35,17.8-.25,3.61-.09,7.24-.11,10.86s0,7.23,0,10.87c-.31,0-.78,0-.81-.07-7.56-23.31-13.28-46.89-8.08-71.58,3.93-18.62,13.7-32.85,32-40.28,7-2.85,7.7-10.72,1.5-15.24a23,23,0,0,0-11.62-4.52c6.71-5.09,13.81-7.7,21.2-9.43a63.07,63.07,0,0,1,40,3.36c4.58,1.95,8.13,1,11.78-2,14.71-12.08,31.67-17.65,50.67-17.26,6,.12,11.59,1.93,17.34,3.17.75,2.29,2.93,2.94,4.7,4a115.07,115.07,0,0,1,19.32,14.25c13.24,12.37,23.66,26.75,30.26,43.65C471.31,507.69,474.92,519.75,474.4,532.61Z" transform="translate(-170.44 -413.69)" fill="#81592c"/><path d="M303.94,836.24c0,20.73-.09,41.47.09,62.21,0,3.68-.94,4.68-4.65,4.67q-53.82-.23-107.64,0c-3.17,0-4.78-.37-4.48-4.19,3-38.1,14.75-72.41,43.53-99.12,19.38-18,42.73-27.19,68.81-30.06,3.67-.41,4.35.95,4.32,4.3-.14,20.74-.07,41.48-.07,62.22Z" transform="translate(-170.44 -413.69)" fill="#5f7c8a"/><path d="M545.82,903q-51.84,0-103.68.14c-3.19,0-4.19-.86-4.18-4.13q.23-62.7.1-125.4c0-4.06,1.82-4.18,4.78-3.8,10.27,1.31,20.47,2.87,30,7.33.88,2.2,3.08,2.8,4.84,3.87a127.86,127.86,0,0,1,20,15.07,142.62,142.62,0,0,1,36.08,51.09C541.15,865,546,883.45,545.82,903Z" transform="translate(-170.44 -413.69)" fill="#5f7c8a"/><path d="M395.69,715.17c-27.55,8.14-53,3.31-76.38-12.85a89.3,89.3,0,0,1-26.45-28.89c7.15,2.44,13.5,3.78,20.11,3.67A50.11,50.11,0,0,0,361.1,639c.24-.95.57-1.87.85-2.81,2.78.26,2.47,2.78,3.08,4.45,5.71,15.76,20,27.09,34.55,27.27,9.48,5.5,19.46,9.39,30.64,9.33a5.1,5.1,0,0,1-.8,3.27c-5.6,9.14-12.81,16.82-20.73,24C404.51,708.32,398.73,710.08,395.69,715.17Z" transform="translate(-170.44 -413.69)" fill="#fcdeb0"/><path d="M276.29,592c-1.45-8.68-1-16.66-1.06-25.39,3.7,2.26,6.68,4.18,9.75,5.94,9.32,5.35,16.95,2.44,20.47-7.77,6.51-18.87,19.27-31.24,38.32-37.31,10.42-3.32,19.49-1,27.45,6.06,11.45,10.14,17.67,23.53,22.56,37.61,1.94,5.56,4.66,10.06,10.85,11.38-.35,1.83-1.86,2-2.87,2.7a49.48,49.48,0,0,0-18.68,23c-1.05,2.69-2.08,3.23-4.9,2.7a39.71,39.71,0,0,0-14.74,0c-2.73.53-3.49-.17-4.53-2.58-7.29-16.91-19.89-27.56-38.17-30.71-15.27-2.64-29,1.42-41,11.17C278.76,589.62,277.84,590.54,276.29,592Zm92.78-25.91c-.06-5-2.22-8.7-7.05-10.65a72.23,72.23,0,0,0-7.8-3c-3.34-.91-4.68-2.7-4.81-6.25-.19-5.37-3.55-8.12-8.63-7.84-4.64.26-7.41,3.38-7.58,8.53-.49,14.38.28,15.52,14,20.73a12.23,12.23,0,0,0,1.38.53c2.33.55,3.15,2,2.8,4.33a71,71,0,0,0-.94,9.28,7.9,7.9,0,0,0,7.33,8.37c4.74.48,8.48-2.14,9.2-6.87C367.83,577.58,368.37,571.86,369.07,566.05Z" transform="translate(-170.44 -413.69)" fill="#fbdcaf"/><path d="M314.63,659.84c-16.52,2.39-32-9.9-35.18-27.92-3.66-20.8,14.59-40.44,35.16-37.82.07,1.48,1.21,2.26,2.1,3.19,15.24,16.11,16.67,36.86,4,55C318.79,654.93,315.51,656.43,314.63,659.84Z" transform="translate(-170.44 -413.69)" fill="#00bad2"/><path d="M432.17,659.79c-15,2.25-29.94-7.72-34.6-23.07A33.35,33.35,0,0,1,415,596.92c5.11-2.46,10.46-3.91,16.22-2.89.19.45.26,1,.59,1.31,17.41,15.08,19.06,41.51,4.9,58.24C435.08,655.48,432.56,656.93,432.17,659.79Z" transform="translate(-170.44 -413.69)" fill="#00bad2"/><path d="M421.25,832.92c0,8.19,0,16.37,0,24.56a9.87,9.87,0,0,1-2,5.44,101.26,101.26,0,0,1-43.82,37.85,9.75,9.75,0,0,1-8.89,0,101.94,101.94,0,0,1-43.59-37.41,12.34,12.34,0,0,1-2.26-7.35c.15-7.69,0-15.38,0-24.37,5,8.1,8.87,15.4,13.65,22.16,7.75,11,16.72,20.73,27.79,28.43,6.46,4.49,11.17,4.55,17.67,0,15.83-11.11,27.27-26,36.69-42.66,1.29-2.28,2.57-4.57,3.85-6.85Z" transform="translate(-170.44 -413.69)" fill="#9a9a9a"/><path d="M545.82,903c.22-19.53-4.67-38-12.06-55.83a142.62,142.62,0,0,0-36.08-51.09,127.86,127.86,0,0,0-20-15.07c-1.76-1.07-4-1.67-4.84-3.87,3.07-.44,5.67,1.11,8.27,2.26,43.21,19.06,68.4,52.64,78.64,98.13a118.16,118.16,0,0,1,3,21.86c.1,2.8-.85,3.82-3.64,3.71C554.7,902.9,550.26,903,545.82,903Z" transform="translate(-170.44 -413.69)" fill="#37464e"/><path d="M474.4,532.61c.52-12.86-3.09-24.92-7.68-36.66-6.6-16.9-17-31.28-30.26-43.65a115.07,115.07,0,0,0-19.32-14.25c-1.77-1.07-3.95-1.72-4.7-4,14.93,3.79,27.91,11.34,39.61,21.1a107.45,107.45,0,0,1,35.48,54.46c6.4,22.85,6.46,45.68-2.94,68-.23.57-.58,1.09-1.46,2.71-.37-7-.52-13-1-18.86C481.28,551.36,477.86,542,474.4,532.61Z" transform="translate(-170.44 -413.69)" fill="#604320"/><path d="M421,733.18c.07,5.92.08,11.83.24,17.75.05,2.06-.69,2.78-2.76,3.07-15.46,2.14-30.84,5-46.36,6.42-6.52.62-13.31-1.48-20-2.41-9.44-1.31-18.85-2.8-28.31-3.94-2.56-.31-3.29-1.18-3.2-3.65.2-5.42.14-10.85.18-16.27,1.95-.26,3.47.81,5,1.63a98.57,98.57,0,0,0,18.64,7.46,93.49,93.49,0,0,0,35.4,3.43A101.24,101.24,0,0,0,421,733.18Z" transform="translate(-170.44 -413.69)" fill="#fcdeb0"/><path d="M359.22,811.9c9.94,7.85,11.41,9.76,23.45.15,2.39,11.87,4.73,23.53,7.09,35.18.37,1.81-.47,3.14-1.56,4.44a114.94,114.94,0,0,1-14.29,14.22c-2.22,1.85-3.83,1.71-5.94-.06a106,106,0,0,1-14.28-14.22c-1-1.17-1.83-2.36-1.51-4C354.5,835.81,356.83,824,359.22,811.9Z" transform="translate(-170.44 -413.69)" fill="#ef4234"/><path d="M421,733.18a101.24,101.24,0,0,1-41.09,13.49,93.49,93.49,0,0,1-35.4-3.43,98.57,98.57,0,0,1-18.64-7.46c-1.58-.82-3.1-1.89-5-1.63V723.33c33.31,16.62,66.57,16.55,100.18,0Z" transform="translate(-170.44 -413.69)" fill="#dbc099"/><path d="M432.17,659.79c.39-2.86,2.91-4.31,4.52-6.21,14.16-16.73,12.51-43.16-4.9-58.24-.33-.29-.4-.86-.59-1.31,17.82-.76,34.15,18,31.5,36.16-2.24,15.4-10.95,25.48-25.23,29.26A9.49,9.49,0,0,1,432.17,659.79Z" transform="translate(-170.44 -413.69)" fill="#00818d"/><path d="M314.63,659.84c.88-3.41,4.16-4.91,6-7.57,12.72-18.12,11.29-38.87-4-55-.89-.93-2-1.71-2.1-3.19,13.38-.67,27.43,11.31,30.52,26a33.54,33.54,0,0,1-25.63,39.56A9.46,9.46,0,0,1,314.63,659.84Z" transform="translate(-170.44 -413.69)" fill="#00818d"/><path d="M403,828.08c-1.9-9.6-3.69-19-5.7-28.44a4.35,4.35,0,0,1,1.23-4.35c7-7.92,6.38-13.07-2.34-19.35-.39-.28-.72-.63-1.75-1.52l24.7-3.66c2.07-.31,2,1.16,2,2.5,0,6.56,0,13-2.21,19.43a267.7,267.7,0,0,1-12.51,30.42C405.48,824.79,405,826.84,403,828.08Z" transform="translate(-170.44 -413.69)" fill="#ededed"/><path d="M347.87,774.42c-2.28,1.64-3.5,2.45-4.65,3.36-5.64,4.45-6.21,10.93-1,16.19a7,7,0,0,1,2.12,7.36c-1.94,8.79-3.61,17.63-5.41,26.56-2.11-.75-2.34-2.78-3.1-4.27a255.26,255.26,0,0,1-12.8-30.87c-2.25-6.38-2.43-12.84-2.32-19.42,0-1.67.09-2.93,2.35-2.58C331,772,338.94,773.11,347.87,774.42Z" transform="translate(-170.44 -413.69)" fill="#ededed"/><path d="M445.35,550.44a72.14,72.14,0,0,0,8.33-17.4c13.64,18,12.82,37.94,12.05,58.91A67.49,67.49,0,0,0,449,580.55c0-3.75.49-7.56,0-11.24C448.08,563,448.68,556.32,445.35,550.44Z" transform="translate(-170.44 -413.69)" fill="#dbc099"/><path d="M399.58,668c-14.55-.18-28.84-11.51-34.55-27.27-.61-1.67-.3-4.19-3.08-4.45.63-2.85-1.33-6.85,2.39-8.29a20.43,20.43,0,0,1,13.5,0c1.49.47,1.65,1.92,1.76,3.24,1.3,14.86,8.1,26.7,19.71,35.9C399.5,667.25,399.49,667.66,399.58,668Z" transform="translate(-170.44 -413.69)" fill="#dbc099"/><path d="M395.69,715.17c3-5.09,8.82-6.85,13-10.63,7.92-7.17,15.13-14.85,20.73-24a5.1,5.1,0,0,0,.8-3.27c6-.51,12-1.2,17.71-3.63.14.68.33,1,.23,1.19C435.66,694.77,418.64,708.83,395.69,715.17Z" transform="translate(-170.44 -413.69)" fill="#dbc099"/><path d="M445.35,550.44c3.33,5.88,2.73,12.54,3.6,18.87.51,3.68.05,7.49,0,11.24a59.2,59.2,0,0,0-29.78-3.19C428.81,569.15,438,560.71,445.35,550.44Z" transform="translate(-170.44 -413.69)" fill="#fbdcaf"/><path d="M369.83,799.4a59.19,59.19,0,0,0-4.46-5.81c-6.25-6.41-6.33-6.41,1.15-11.25,1.66-1.08,3.17-3.56,5.49-2.23,3.38,1.93,6.47,4.37,9.68,6.61a.68.68,0,0,1,.23.4C382.13,788.35,372.15,798.49,369.83,799.4Z" transform="translate(-170.44 -413.69)" fill="#c41d1d"/><path d="M404.78,902.63c6.15-4.43,10.89-9.29,16.59-14.81,0,5,0,8.88,0,12.72,0,1.21-.23,2.46-1.71,2.47C414.93,903,410.17,903.55,404.78,902.63Z" transform="translate(-170.44 -413.69)" fill="#37464e"/><path d="M335.81,903.1c-4.2,0-8.4,0-12.6,0-1.9,0-2.61-.91-2.59-2.72,0-3.76,0-7.52,0-12.64C326.21,893.22,330.83,898.09,335.81,903.1Z" transform="translate(-170.44 -413.69)" fill="#37464e"/><path d="M369.07,566.05c-.7,5.81-1.24,11.53-2.1,17.19-.72,4.73-4.46,7.35-9.2,6.87a7.9,7.9,0,0,1-7.33-8.37,71,71,0,0,1,.94-9.28c.35-2.37-.47-3.78-2.8-4.33a12.23,12.23,0,0,1-1.38-.53c-13.72-5.21-14.49-6.35-14-20.73.17-5.15,2.94-8.27,7.58-8.53,5.08-.28,8.44,2.47,8.63,7.84.13,3.55,1.47,5.34,4.81,6.25a72.23,72.23,0,0,1,7.8,3C366.85,557.35,369,561.07,369.07,566.05Z" transform="translate(-170.44 -413.69)" fill="#f34537"/></svg>