<svg id="Capa_1" data-name="Capa 1" xmlns="http://www.w3.org/2000/svg" viewBox="0 0 383.86 383.12"><path d="M183.07,795.84c1.35-1,1.1-2.62,1.47-4,3.11-11.54,9.32-20,21.86-22.36,3.78-.72,8.73-.88,10.82-3.3s-1.7-6.52-2.24-10.12c-3.08-20.73,1.83-39.12,16.28-54.47,7.94-8.43,17.72-11.84,29.25-7.81a13.9,13.9,0,0,0,2.14.36,97.86,97.86,0,0,1-6.13-20.59c-2.75-16.75,1.55-31.81,10.77-45.75,6.21-9.39,13.83-17.66,20.93-26.34,8.1-9.9,15.42-20.2,18-33.1a57.54,57.54,0,0,0-.58-24.09c-1-4.67-.13-7.7,3-9.55,3.47-2.06,6.55-1,9.69,1.15C330,544,339.59,554,346.1,567.53c5.73-13.16,14.9-23.41,22.32-34.81,6.79-10.42,6.72-21.28,2.45-32.5a98.55,98.55,0,0,0-5.94-12.86c-1.93-3.45-2.56-6.79.28-10s6.34-2.92,10-1.52c30.21,11.7,49.35,33.29,57.47,64.52,3.78,14.52,4.09,29.32,2.57,44.18-.07.72-.09,1.43-.18,2.84a56.36,56.36,0,0,0,13.4-21.84,63.94,63.94,0,0,0,2.16-7.92c.7-3.53,2.49-6,6.14-6.62s6.21,1,8.18,3.94a177,177,0,0,1,21.75,46.88c8.91,29.62,10.33,59.49,2.57,89.61a9.07,9.07,0,0,0-.24,1.46,2,2,0,0,0,.21.69c17.93-2.84,29,2.53,38.09,19.3,8.9,16.44,12,33.66,5.06,51.73-.56,1.44-.39,1.83,1.14,2.18,3.4.77,6.69,2,10.11,2.69,12.51,2.43,18.73,10.84,21.87,22.37.44,1.59,0,3.46,1.46,4.74v16.46c-1.43,1.3-1,3.18-1.44,4.78-4.63,18.31-12.53,34-32.3,40.12h-8.25c-.5-1.18-1.71-.89-2.58-1.13Q449.69,837.32,377,817.89a8,8,0,0,0-4.38.14q-60.06,16.11-120.13,32.15c-9.41,2.52-18.78,5.18-28.16,7.77h-9c-3.4-2.16-7.39-3.13-10.64-5.66-10.35-8.06-16-19-19.44-31.29-.68-2.4-.26-5.16-2.16-7.2ZM408,644c-7.22,2.76-10-2.67-13.24-7.8-.4,1.49-.69,2.4-.89,3.34-4.42,21.42-16,38.41-32.66,52.17-3.79,3.12-7,3-10.82-.1a38.25,38.25,0,0,1-9.51-11.44c-1.23-2.23-2.31-4.53-3.58-7-7.84,11.91-8.76,24.51-6.24,37.7.4,2.07,1.85,2.31,3.45,2.74q18.79,5,37.56,10.07a9.53,9.53,0,0,0,5.16.22c10-2.7,20-5.43,30-8a2.79,2.79,0,0,0,2.49-2.7c.46-3.7,1.05-7.39,1.69-11.07.86-5,2.73-6.71,7.88-7.43,5.62,1.33,7.45,3.88,6.91,9.61a22.87,22.87,0,0,1-.36,3.72c-.76,2.78.33,2.82,2.61,2.2,13.22-3.63,26.45-7.23,39.73-10.62a5.42,5.42,0,0,0,4.44-4.17c10.76-34.08,8.28-67.58-4.22-100.67a107.25,107.25,0,0,0-8.16-17.77c-.74,1.42-1.31,2.52-1.89,3.62a76.11,76.11,0,0,1-28.81,30.21c-3.11,1.86-6.23,2.6-9.44.33s-3.59-5.47-2.79-9a151.75,151.75,0,0,0,3.84-31.48c.23-19.66-3.83-38.11-15.72-54.27a71.79,71.79,0,0,0-19.29-18.18c.48,2,.77,3.34,1.11,4.64,3.34,13,1.77,25.23-5.36,36.62a145,145,0,0,1-9.12,13.23c-12.35,15.55-19.52,32.91-19.3,53a7,7,0,0,1-4.29,6.87C344,615,338.65,611.32,338.48,605a101.94,101.94,0,0,0-1.74-18.21,55.9,55.9,0,0,0-14.1-27.57c-.43,3.69-.67,6.87-1.19,10-2.39,14.3-9.48,26.33-18.27,37.55-7.16,9.13-15.19,17.56-21.9,27.05-6.07,8.59-10.45,17.79-10.62,28.61-.22,13.06,4.7,24.53,10.71,35.71a4.1,4.1,0,0,0,2.95,2c9.29,2.43,18.58,4.83,27.8,7.48,2.9.84,3.26.15,3-2.58-2-20.76,5.35-38.08,19.72-52.8,2.48-2.55,5.23-4,8.69-2.84s4.88,3.85,5.31,7.4a43.65,43.65,0,0,0,6,17.56c.95,1.57,1.62,1.81,3,.37,15.33-15.75,24.2-34,22.21-56.51-.34-3.85.41-6.94,4-8.81,3.24-1.67,6.27-.86,9.71,2.48A108.81,108.81,0,0,1,409.94,632C413.1,637,412.58,640,408,644ZM520.24,751.73c-3.32.87-6.32,1.68-9.34,2.44-4.7,1.17-8.77-.89-9.85-4.93-1.18-4.38,1.21-8.15,6.08-9.52,3.6-1,7.19-2.06,10.83-2.9,1.62-.37,2.08-1.12,1.71-2.61-2.31-9.39-6.18-17.9-13.87-24.19-3.3-2.7-6.91-3.33-11.19-2.15-18.62,5.13-37.31,10-56,15l-178.78,47.8c-10.29,2.75-20.58,5.54-31,8.36a9.63,9.63,0,0,0,.69,1.26q19.82,23.1,15.06,53.14c-.51,3.29.71,3.15,3.14,2.5,15.88-4.29,31.79-8.48,47.68-12.74L508.83,766C516.44,764,519.61,760.17,520.24,751.73Zm-176-19.1.07-.82c-.55-.18-1.09-.39-1.65-.53q-44.39-11.88-88.77-23.76a8.49,8.49,0,0,0-5.84.28c-5.23,2.31-8.68,6.4-11.66,11.41,4.27,1.16,8.13,2.11,11.92,3.27,4.45,1.36,6.75,5.16,5.7,9.09-1.11,4.2-5,6.37-9.64,5.25-3.87-.93-7.71-2-11.56-3-1.25-.33-2.29-.6-2.69,1.33-1.71,8.22-1.9,16.27,1.5,24.17,1,2.37,2.19,3,4.81,2.23,22.95-6.26,45.94-12.36,68.91-18.5Zm60.9,76.68.19.68,100.48,26.87c-4.05-21.86,1.07-41,14.85-58.42l-57,15.24c3.86,4.05,4.61,7.38,2.67,10.65s-5.2,4.22-10.22,2.89c-5.3-1.4-10.58-2.88-15.89-4.22-2.16-.54-4.3-1.78-6.55-1.2C424.13,804.22,414.65,806.79,405.16,809.31Zm-174.58,13c-.06-1,0-2.87-.31-4.71-1.63-11.38-5.36-21.83-14.47-29.49-6.77-5.7-12.43-4.06-15.65,4.23a23,23,0,0,0-1.33,4.66c-2.23,13.74,1.1,26.18,9,37.47a22.74,22.74,0,0,0,7.65,7c5,2.75,8.82,1.73,11.71-3.17C230,833.62,230.55,828.43,230.58,822.26ZM552,804.69a33.43,33.43,0,0,0-2-12.11c-3.25-8.67-9-10.18-16.15-4.28C522.17,798,516,820.72,521.21,835c3.17,8.7,8.92,10.32,16.09,4.55a30,30,0,0,0,6.18-7A52.55,52.55,0,0,0,552,804.69Z" transform="translate(-183.07 -474.83)" fill="#030202"/><path d="M408,644c4.59-4,5.11-7,1.95-12a108.81,108.81,0,0,0-16.17-20.05c-3.44-3.34-6.47-4.15-9.71-2.48-3.62,1.87-4.37,5-4,8.81,2,22.49-6.88,40.76-22.21,56.51-1.4,1.44-2.07,1.2-3-.37a43.65,43.65,0,0,1-6-17.56c-.43-3.55-1.83-6.29-5.31-7.4s-6.21.29-8.69,2.84c-14.37,14.72-21.71,32-19.72,52.8.26,2.73-.1,3.42-3,2.58-9.22-2.65-18.51-5-27.8-7.48a4.1,4.1,0,0,1-2.95-2c-6-11.18-10.93-22.65-10.71-35.71.17-10.82,4.55-20,10.62-28.61,6.71-9.49,14.74-17.92,21.9-27.05,8.79-11.22,15.88-23.25,18.27-37.55.52-3.14.76-6.32,1.19-10a55.9,55.9,0,0,1,14.1,27.57A101.94,101.94,0,0,1,338.48,605c.17,6.3,5.49,9.93,10.66,7.48a7,7,0,0,0,4.29-6.87c-.22-20.08,6.95-37.44,19.3-53a145,145,0,0,0,9.12-13.23c7.13-11.39,8.7-23.66,5.36-36.62-.34-1.3-.63-2.61-1.11-4.64a71.79,71.79,0,0,1,19.29,18.18c11.89,16.16,15.95,34.61,15.72,54.27a151.75,151.75,0,0,1-3.84,31.48c-.8,3.54-.41,6.74,2.79,9s6.33,1.53,9.44-.33a76.11,76.11,0,0,0,28.81-30.21c.58-1.1,1.15-2.2,1.89-3.62a107.25,107.25,0,0,1,8.16,17.77c12.5,33.09,15,66.59,4.22,100.67a5.42,5.42,0,0,1-4.44,4.17c-13.28,3.39-26.51,7-39.73,10.62-2.28.62-3.37.58-2.61-2.2a22.87,22.87,0,0,0,.36-3.72c.54-5.73-1.29-8.28-6.91-9.61.45-6.22-.75-12.37-.8-18.56,5.41-2.6,7.37-6.67,5.17-10.89-1.89-3.63-5.14-4.4-8.88-4A100.86,100.86,0,0,0,408,644Z" transform="translate(-183.07 -474.83)" fill="#fdbf43"/><path d="M520.24,751.73c-.63,8.44-3.8,12.27-11.41,14.31L295.41,823.21c-15.89,4.26-31.8,8.45-47.68,12.74-2.43.65-3.65.79-3.14-2.5q4.71-30-15.06-53.14a9.63,9.63,0,0,1-.69-1.26c10.44-2.82,20.73-5.61,31-8.36l178.78-47.8c18.66-5,37.35-9.89,56-15,4.28-1.18,7.89-.55,11.19,2.15,7.69,6.29,11.56,14.8,13.87,24.19.37,1.49-.09,2.24-1.71,2.61-3.64.84-7.23,1.88-10.83,2.9-4.87,1.37-7.26,5.14-6.08,9.52,1.08,4,5.15,6.1,9.85,4.93C513.92,753.41,516.92,752.6,520.24,751.73Zm-105.43,7c0-5.56-3.88-9.33-8.34-8.38a185.78,185.78,0,0,0-18.36,5,6.89,6.89,0,0,0-4.36,8.76,7.29,7.29,0,0,0,8.65,5.33q8.72-2.09,17.3-4.67C413,763.77,414.73,761.26,414.81,758.74ZM300.86,791.35a7.26,7.26,0,0,0-8.81-7.24c-5.82,1.33-11.6,2.9-17.31,4.65a7.18,7.18,0,0,0-4.91,9.15,7.38,7.38,0,0,0,9.09,5.15c5.44-1.33,10.85-2.8,16.23-4.35C298.92,797.63,300.89,794.93,300.86,791.35Z" transform="translate(-183.07 -474.83)" fill="#c48964"/><path d="M408,644a100.86,100.86,0,0,1,6.75,17.17c-4.35,2.62-6,5.58-5.06,9.16s3.89,5.56,8.77,5.74c.05,6.19,1.25,12.34.8,18.56-5.15.72-7,2.44-7.88,7.43-.64,3.68-1.23,7.37-1.69,11.07a2.79,2.79,0,0,1-2.49,2.7c-10,2.61-20,5.34-30,8a9.53,9.53,0,0,1-5.16-.22q-18.76-5.08-37.56-10.07c-1.6-.43-3.05-.67-3.45-2.74-2.52-13.19-1.6-25.79,6.24-37.7,1.27,2.5,2.35,4.8,3.58,7a38.25,38.25,0,0,0,9.51,11.44c3.8,3.07,7,3.22,10.82.1C377.88,678,389.44,661,393.86,639.54c.2-.94.49-1.85.89-3.34C398,641.33,400.77,646.76,408,644Z" transform="translate(-183.07 -474.83)" fill="#fc9145"/><path d="M344.26,732.63,305.36,743c-23,6.14-46,12.24-68.91,18.5-2.62.72-3.79.14-4.81-2.23-3.4-7.9-3.21-15.95-1.5-24.17.4-1.93,1.44-1.66,2.69-1.33,3.85,1,7.69,2.1,11.56,3,4.64,1.12,8.53-1.05,9.64-5.25,1.05-3.93-1.25-7.73-5.7-9.09-3.79-1.16-7.65-2.11-11.92-3.27,3-5,6.43-9.1,11.66-11.41a8.49,8.49,0,0,1,5.84-.28q44.39,11.9,88.77,23.76c.56.14,1.1.35,1.65.53Z" transform="translate(-183.07 -474.83)" fill="#ce9f82"/><path d="M405.16,809.31c9.49-2.52,19-5.09,28.49-7.51,2.25-.58,4.39.66,6.55,1.2,5.31,1.34,10.59,2.82,15.89,4.22,5,1.33,8.26.41,10.22-2.89s1.19-6.6-2.67-10.65l57-15.24c-13.78,17.46-18.9,36.56-14.85,58.42L405.35,810Z" transform="translate(-183.07 -474.83)" fill="#ce9f82"/><path d="M230.58,822.26c0,6.17-.61,11.36-3.36,16-2.89,4.9-6.72,5.92-11.71,3.17a22.74,22.74,0,0,1-7.65-7c-7.94-11.29-11.27-23.73-9-37.47a23,23,0,0,1,1.33-4.66c3.22-8.29,8.88-9.93,15.65-4.23,9.11,7.66,12.84,18.11,14.47,29.49C230.54,819.39,230.52,821.28,230.58,822.26Z" transform="translate(-183.07 -474.83)" fill="#dab6a1"/><path d="M552,804.69a52.55,52.55,0,0,1-8.47,27.86,30,30,0,0,1-6.18,7c-7.17,5.77-12.92,4.15-16.09-4.55-5.19-14.25,1-37,12.62-46.67,7.12-5.9,12.9-4.39,16.15,4.28A33.43,33.43,0,0,1,552,804.69Z" transform="translate(-183.07 -474.83)" fill="#dab6a1"/><path d="M418.45,676.07c-4.88-.18-7.83-2.11-8.77-5.74s.71-6.54,5.06-9.16c3.74-.39,7,.38,8.88,4C425.82,669.4,423.86,673.47,418.45,676.07Z" transform="translate(-183.07 -474.83)" fill="#060402"/><path d="M414.81,758.74c-.08,2.52-1.8,5-5.11,6q-8.58,2.58-17.3,4.67a7.29,7.29,0,0,1-8.65-5.33,6.89,6.89,0,0,1,4.36-8.76,185.78,185.78,0,0,1,18.36-5C410.93,749.41,414.83,753.18,414.81,758.74Z" transform="translate(-183.07 -474.83)" fill="#040202"/><path d="M300.86,791.35c0,3.58-1.94,6.28-5.71,7.36-5.38,1.55-10.79,3-16.23,4.35a7.38,7.38,0,0,1-9.09-5.15,7.18,7.18,0,0,1,4.91-9.15c5.71-1.75,11.49-3.32,17.31-4.65A7.26,7.26,0,0,1,300.86,791.35Z" transform="translate(-183.07 -474.83)" fill="#040202"/></svg>