<svg id="Capa_1" data-name="Capa 1" xmlns="http://www.w3.org/2000/svg" viewBox="0 0 260.87 383.21"><path d="M262.06,482c-2.84-2.83-2.93-5.74-.58-9,2.77-3.84,5.21-7.91,7.94-11.77,5.42-7.67,12.91-11.64,22.3-11.51,2.69,0,3-.75,3-3-.08-15.84-.06-31.68,0-47.52,0-8.59,4-12.56,12.58-12.6,8.24,0,16.49,0,24.73,0s12.23,4.21,12.27,12.21c0,3.19,0,6.37,0,10.37,7.94-10.08,17.2-16.84,28.63-20.67,10-3.35,20.18-3.09,30.4-2.62,5.15.23,9,4.81,9.12,10.18.15,9.6.17,19.2,0,28.8-.11,6-4.53,10.12-10.62,10.29-3.5.1-7-.05-10.49,0-5.21.14-8.1,3-8.27,8.12-.1,2.86,0,5.72,0,9.05a105,105,0,0,1,19.11-8.06,94.83,94.83,0,0,1,24.36-3.68c3.9-.11,6.07,1.77,6.65,5.57-.76,4-3.27,5.43-7.22,5.43A77.21,77.21,0,0,0,404.55,455c-21.64,6.24-36,21.51-48.81,39.27,7.16.79,13.58,3.43,20,6.23,5.69,2.5,11.46,4.83,17.19,7.23l15,6.75c-.14-2.76-.23-4.72-.35-6.69-1-16.45,10.37-28.55,26.86-28.59q15.54,0,31.07,0c1.9,0,3-.22,2.93-2.56-.13-7.59-.09-15.19,0-22.79,0-1.74-.48-2.44-2.32-2.37-3.86.15-7.73.12-11.59.16-4.09.22-7.15-1.05-8-5.49,1.42-4.6,2.67-5.57,7.47-5.61,4.62,0,9.25-.12,13.87,0,7.47.22,11.47,4.35,11.5,11.78q.06,13.1,0,26.18c0,7.22-4.06,11.33-11.31,11.56-3.43.11-6.86,0-11,0,3.82,4.17,6.82,7.95,8.72,12.42.77,1.81,2.18,1.35,3.46,1.35,8.12,0,16.24,0,24.36,0,7.78,0,11.93,4.2,12,12.07q0,12.72,0,25.44c0,7.82-4.16,11.93-12,12s-15.87,0-23.78,0c-.18,1.42.7,1.87,1.19,2.52q38.73,51,17.56,111.36c-4.76,13.47-10,26.77-14.85,40.22-1.4,3.87-3.56,5.85-7.75,5.25-4-3-4.36-4.16-2.61-8.87,4.95-13.41,10-26.79,14.91-40.21,15.06-41.09,4.36-84.69-27.84-113.44a57.66,57.66,0,0,0-11.32-8.39v19q-.06,18.29-.1,36.58c0,.84-.26,1.78.48,2.47,3.53,3.29,6.37,7.33,10.64,9.82,4.35,3.12,9.36,1.77,14.12,2,3.93.21,6.23,2.1,6.28,5.4s-2.22,5.51-6.07,5.64c-5,.16-10,.19-14.86-1.08a34.4,34.4,0,0,1-10.5-6.34c0,10-.09,19.29.08,28.59,0,2-.53,5.24,3.52,4.3,5.23,0,10.47.06,15.71.12,4.13.05,6.66,2.11,6.71,5.4s-2.45,5.49-6.58,5.59c-3.87.09-7.74,0-11.61,0-.83,0-2-.39-2.43.4-.62,1,.48,1.8,1,2.6,3,4.8,7.39,8.4,11.27,12.43,3,3.14,3.36,6.46.9,8.82s-5.58,1.94-8.56-1c-5-4.86-10-9.75-13.87-15.58a55.5,55.5,0,0,1-7.23-28.22c.13-14,0-27.92,0-41.87,0-1.3-.12-2.59-.23-5-3.12,3.22-5.46,5.75-7.92,8.16-3.06,3-6.08,3.24-8.53.81s-2.17-5.53.77-8.51c4-4.08,7.91-8.35,12.24-12.09,3.1-2.67,4-5.65,3.76-9.49-.12-2.09-.67-2.77-2.79-2.74-7.61.11-15.24.16-22.85,0-2.76-.07-3.6.65-3.55,3.49.17,11.22.08,22.44.07,33.65A34.39,34.39,0,0,1,394,623c-1.37,2.34-5.06,4-4.11,6.76.84,2.44,3.71,4.25,5.83,6.17,8.8,7.93,13.05,17.68,12.35,29.58-.23,4,0,8,0,12a22,22,0,0,0,6.14,16,44.72,44.72,0,0,1,7,9.66c3.39,7.48,3.07,15.43,3,23.35,0,5.22-1.73,7.72-5.35,7.86s-5.46-2.34-5.65-7.47a5.84,5.84,0,0,0-.11-.73c1-10.35-.61-19.64-8.61-27.41-4.73-4.59-6.73-11-7.13-17.68-.1-1.63-.26-3.27-.41-5.23-9.43,7.7-10.42,9.7-10.59,21,0,.63,0,1.25-.05,1.87a19.32,19.32,0,0,1-17.77,17.68c-3.81.21-6.45-1.66-6.84-4.85-.37-3,1.73-5.39,5.3-6.08,6.66-1.29,8.43-3.53,8.35-10.49-.11-8.86,2.27-16.66,9.2-22.77,3.73-3.3,7-7.1,10.67-10.51a4.54,4.54,0,0,0,1.33-5c-1.35-5.3-4.63-9.3-8.53-12.91-2.27-2.11-4.32-5.65-6.8-6s-4.28,3.69-6.5,5.67c-2.86,2.56-6.08,2.76-8.32.48s-2.17-5.33.61-8.24c1.72-1.8,3.51-3.54,5.29-5.3,16.74-16.59,15.52-14.06,15.47-37.49,0-2.72,0-5.44,0-8.16-2.69,6.09-6.58,10.56-12.42,13.31-4.24,2-8.75,2-13.24,1.74a14.75,14.75,0,0,0-12,5c-8.89,9.12-18,18-27,27-3,2.95-6.17,3.23-8.54.89s-2.33-5.52.75-8.49c2.54-2.45,5.36-4.61,8.5-7.28-1.77-.81-2.09-1-2.44-1.11-11.46-3.6-17.13-12.4-15.63-24.29.42-3.41,2.52-5.37,5.62-5.26s5.05,2.29,5.21,5.68c.07,1.37,0,2.75,0,4.12.27,5.36,3.58,8.65,8.92,9.25s10.35,0,13.79-5.06c1.1-1.62,2.79-2.84,4.19-4.27A21.4,21.4,0,0,1,360.28,589c1.87.07,3.76.09,5.62,0,6.93-.38,10.86-4.13,11.24-11a20.87,20.87,0,0,1,8.74-16.57,4.06,4.06,0,0,0,1.9-3.7q-.11-18.9,0-37.79c0-1.54-.31-2.5-1.87-3.15-7.59-3.15-15-6.72-22.74-9.55A40.16,40.16,0,0,0,316,522.84c-3.23,4.88-6,10-9.11,15-.93,1.51-.93,2.48.41,3.83,4,4.11,8.73,6.54,14.6,6.5,6.25,0,12.49-.07,18.74,0,3.82.06,6.32,2.35,6.32,5.5s-2.46,5.38-6.28,5.49a31.66,31.66,0,0,1-4.87,0c-3-.39-4.21.52-4,3.78a129.89,129.89,0,0,1,0,13.09c-.12,3.81-2.51,6.18-5.71,6S321,579.64,321,576c-.07-4.73-.1-9.48,0-14.21.05-1.87-.48-2.54-2.43-2.75a28.75,28.75,0,0,1-16.78-7.53c-1.59-1.47-2.17-1.21-3.24.5-11.26,18-18.41,37.43-19.3,58.63-1.92,45.41,15.54,81.85,53,108,17.23,12,37.23,19,56.13,28,6.17,2.93,12.21,6.17,18.53,8.73a33.61,33.61,0,0,0,43.63-18c1.28-3,2.28-6,3.44-9.06,1.7-4.45,3.07-5.32,7.85-5,3.37,2.15,3.85,5,2.55,8.68-3.28,9.36-7.05,18.36-14.76,25.11-6.81,6-14.51,10-23.63,11-.27,0-.5.42-.76.64H411.74c-10.28-3.3-19.89-8.14-29.58-12.78-15.37-7.37-31.4-13.52-46.06-22.19-47.33-28-69.88-69.67-67.67-124.58a45.43,45.43,0,0,1,1.1-10.39c1.4-5,.26-9.32-1.91-13.86-5.79-12.11-11.33-24.34-16.76-36.61-7.3-16.51-8.33-33.42-2.67-50.63,1.36-4.13,3.15-5.14,7.61-4.54,3.39,2,3.76,4.89,2.62,8.39a56.36,56.36,0,0,0-2.12,26.57c2.71,16.9,12.56,31,18.62,47.51,1.28-3.19,2.19-5.48,3.12-7.76,6.21-15.06,15.61-28.34,23.53-42.45,4.11-7.31,8.71-14.24,15.09-19.83,3.82-2.53,7.41-5.61,11.81-7,4-1.26,3.33-3,1.33-5.44-.56-.67-1-1.41-1.61-2.05-8.59-9.34-17.71-18.17-26.92-26.88-5.2-4.91-12.48-5-18.52-.85a7.6,7.6,0,0,0-3.6,3.11c-2.83,4.08-5.57,8.23-8.36,12.34S266.64,483.37,262.06,482Zm206.19,48c-.77,3.25-1.47,6.52-2.33,9.76-.56,2.1-.05,2.88,2.26,2.85,7.84-.11,15.68-.08,23.53,0,1.8,0,2.72-.33,2.7-2.43-.1-7.7-.07-15.4,0-23.11,0-1.56-.45-2.26-2.12-2.19-3.35.14-6.7.15-10.06.22-3.6-.07-7.21-.08-10.81-.22-1.69-.07-2.17.58-2,2.19C469.79,521.4,469.05,525.69,468.25,530Zm-25.07.93q4.92,3.66,9.87,7.3c.75.55,1.72,1.59,2.11-.29,1.62-7.87,4.37-15.62,2.84-23.86-1.64-8.84-7.06-15.08-13.93-20.45a15.82,15.82,0,0,0-18.79-.94A13.09,13.09,0,0,0,418.55,504c-.14,4.35.3,8.71.36,13.07a2.92,2.92,0,0,0,2.14,3A178.15,178.15,0,0,1,443.18,530.91Zm-15.61,9.66c1.25-3.87.05-6.42-4-7.47-.95-.25-1.86-.64-2.79-1-6.58-2.94-13.19-5.83-19.74-8.82-1.88-.86-2.33-.34-2.32,1.58q.09,14.94,0,29.89c0,1.44.23,2.33,2,2.32,8.36-.07,16.73-.05,25.09,0,1.44,0,2-.54,2-2C427.69,550.28,427.64,545.42,427.57,540.57ZM320.28,467.18l13,12V436c0-11.85-.06-23.69.05-35.54,0-2.28-.58-3.08-2.92-2.92-3.36.23-6.74.13-10.11.17-4,0-8,0-11.94-.18-2.41-.14-2.86.79-2.85,3,.08,16.89,0,33.79,0,50.69,0,1.1-.24,2.29.86,3.06C311.58,458,315.33,463.23,320.28,467.18Zm38.34,5.53c3.72-3.66,7.35-7.41,11.21-10.92a5.57,5.57,0,0,0,2.22-4.72c-.15-4.84-.12-9.69,0-14.54a18.34,18.34,0,0,1,17.67-18.14c3.11-.14,6.23-.12,9.34,0,1.75,0,2.43-.57,2.42-2.37-.07-7.7-.06-15.41,0-23.12,0-1.55-.49-2.28-2.14-2.22-3.85.14-7.71.18-11.56.26-1.12,0-2.25-.06-3.36.07-22.08,2.73-39.83,22.42-40.08,44.7-.16,15.31,0,30.61,0,45.92,0,.62-.47,1.52.87,1.91Z" transform="translate(-244.56 -385.55)" fill="#040303"/><path d="M438.88,560.76v-19a57.66,57.66,0,0,1,11.32,8.39c32.2,28.75,42.9,72.35,27.84,113.44-4.92,13.42-10,26.8-14.91,40.21-1.75,4.71-1.37,5.86,2.61,8.87q-2,5.28-3.91,10.58c-4.78-.32-6.15.55-7.85,5-1.16,3-2.16,6.1-3.44,9.06a33.61,33.61,0,0,1-43.63,18c-6.32-2.56-12.36-5.8-18.53-8.73a6.27,6.27,0,0,1,1.44-1c10.38-3.35,18-10,23.25-19.41a5.84,5.84,0,0,1,.11.73c.19,5.13,2.06,7.61,5.65,7.47s5.32-2.64,5.35-7.86c.05-7.92.37-15.87-3-23.35a3.76,3.76,0,0,0,1.69-2.34c2.47-6.6,5-13.16,7.32-19.81,1.62-4.64,4-9,4.82-14,3.9,5.83,8.86,10.72,13.87,15.58,3,2.9,6.18,3.23,8.56,1s2.12-5.68-.9-8.82c-3.88-4-8.25-7.63-11.27-12.43-.5-.8-1.6-1.57-1-2.6.47-.79,1.6-.4,2.43-.4,3.87,0,7.74,0,11.61,0,4.13-.1,6.63-2.29,6.58-5.59s-2.58-5.35-6.71-5.4c-5.24-.06-10.48-.08-15.71-.12a139.9,139.9,0,0,0,6.9-26.55c4.89,1.27,9.88,1.24,14.86,1.08,3.85-.13,6.13-2.35,6.07-5.64s-2.35-5.19-6.28-5.4c-4.76-.26-9.77,1.09-14.12-2,.65-13.16-1.93-25.85-6.08-38.22C442.59,567.75,441.75,563.74,438.88,560.76Z" transform="translate(-244.56 -385.55)" fill="#db626d"/><path d="M316.66,505.61c-6.38,5.59-11,12.52-15.09,19.83-7.92,14.11-17.32,27.39-23.53,42.45-.93,2.28-1.84,4.57-3.12,7.76C268.86,559.1,259,545,256.3,528.14a56.36,56.36,0,0,1,2.12-26.57c1.14-3.5.77-6.38-2.62-8.39,1.58-4,4-7.57,6.26-11.21,4.58,1.4,6,.91,8.73-3.14s5.53-8.26,8.36-12.34a7.6,7.6,0,0,1,3.6-3.11c7.55,8.49,16.05,16,23.85,24.27C311.45,492.76,315.34,498.49,316.66,505.61Z" transform="translate(-244.56 -385.55)" fill="#db626d"/><path d="M392.89,507.69c-5.73-2.4-11.5-4.73-17.19-7.23-6.38-2.8-12.8-5.44-20-6.23,12.84-17.76,27.17-33,48.81-39.27a77.21,77.21,0,0,1,21.36-3.38c3.95,0,6.46-1.43,7.22-5.43l13.29,0c.89,4.44,3.95,5.71,8,5.49,0,2.49.05,5,0,7.47-.07,4.24-1.64,5.83-5.9,5.87-5.86.05-11.72,0-17.58,0a36.15,36.15,0,0,0-17.26,3.92c-12.55,6.75-19.8,17-20,31.61C393.66,502.89,394.6,505.46,392.89,507.69Z" transform="translate(-244.56 -385.55)" fill="#e8afb5"/><path d="M413.07,726.14c-5.27,9.42-12.87,16.06-23.25,19.41a6.27,6.27,0,0,0-1.44,1c-18.9-9-38.9-16-56.13-28-37.45-26.13-54.91-62.57-53-108,.89-21.2,8-40.66,19.3-58.63,1.07-1.71,1.65-2,3.24-.5A28.75,28.75,0,0,0,318.58,559c1.95.21,2.48.88,2.43,2.75-.12,4.73-.09,9.48,0,14.21.05,3.68,2.06,6,5.17,6.13s5.59-2.22,5.71-6a129.89,129.89,0,0,0,0-13.09c-.22-3.26,1-4.17,4-3.78a31.66,31.66,0,0,0,4.87,0c3.82-.11,6.29-2.3,6.28-5.49s-2.5-5.44-6.32-5.5c-6.25-.1-12.49-.06-18.74,0-5.87,0-10.56-2.39-14.6-6.5-1.34-1.35-1.34-2.32-.41-3.83,3.09-5,5.88-10.14,9.11-15a40.16,40.16,0,0,1,47.13-15.65c7.71,2.83,15.15,6.4,22.74,9.55,1.56.65,1.88,1.61,1.87,3.15q-.07,18.9,0,37.79a4.06,4.06,0,0,1-1.9,3.7A20.87,20.87,0,0,0,377.14,578c-.38,6.89-4.31,10.64-11.24,11-1.86.1-3.75.08-5.62,0a21.4,21.4,0,0,0-16.76,6.91c-1.4,1.43-3.09,2.65-4.19,4.27-3.44,5-8.3,5.68-13.79,5.06s-8.65-3.89-8.92-9.25c-.07-1.37,0-2.75,0-4.12-.16-3.39-2.19-5.57-5.21-5.68s-5.2,1.85-5.62,5.26c-1.5,11.89,4.17,20.69,15.63,24.29.35.11.67.3,2.44,1.11-3.14,2.67-6,4.83-8.5,7.28-3.08,3-3.22,6-.75,8.49s5.57,2.06,8.54-.89c9-9,18.11-17.89,27-27a14.75,14.75,0,0,1,12-5c4.49.22,9,.25,13.24-1.74,5.84-2.75,9.73-7.22,12.42-13.31,0,2.72,0,5.44,0,8.16.05,23.43,1.27,20.9-15.47,37.49-1.78,1.76-3.57,3.5-5.29,5.3-2.78,2.91-3,5.83-.61,8.24s5.46,2.08,8.32-.48c2.22-2,4.13-6,6.5-5.67s4.53,3.87,6.8,6c3.9,3.61,7.18,7.61,8.53,12.91a4.54,4.54,0,0,1-1.33,5c-3.65,3.41-6.94,7.21-10.67,10.51-6.93,6.11-9.31,13.91-9.2,22.77.08,7-1.69,9.2-8.35,10.49-3.57.69-5.67,3.1-5.3,6.08.39,3.19,3,5.06,6.84,4.85a19.32,19.32,0,0,0,17.77-17.68c0-.62,0-1.24.05-1.87.17-11.27,1.16-13.27,10.59-21,.15,2,.31,3.6.41,5.23.4,6.7,2.4,13.09,7.13,17.68C412.46,706.5,414.09,715.79,413.07,726.14Z" transform="translate(-244.56 -385.55)" fill="#e07f85"/><path d="M435,667c-.8,4.92-3.2,9.31-4.82,14-2.32,6.65-4.85,13.21-7.32,19.81a3.76,3.76,0,0,1-1.69,2.34,44.72,44.72,0,0,0-7-9.66,22,22,0,0,1-6.14-16c0-4-.19-8,0-12,.7-11.9-3.55-21.65-12.35-29.58-2.12-1.92-5-3.73-5.83-6.17-1-2.74,2.74-4.42,4.11-6.76a34.39,34.39,0,0,0,4.73-17.82c0-11.21.1-22.43-.07-33.65-.05-2.84.79-3.56,3.55-3.49,7.61.19,15.24.14,22.85,0,2.12,0,2.67.65,2.79,2.74.22,3.84-.66,6.82-3.76,9.49-4.33,3.74-8.21,8-12.24,12.09-2.94,3-3.18,6.12-.77,8.51s5.47,2.19,8.53-.81c2.46-2.41,4.8-4.94,7.92-8.16.11,2.39.23,3.68.23,5,0,13.95.11,27.91,0,41.87A55.5,55.5,0,0,0,435,667Z" transform="translate(-244.56 -385.55)" fill="#e07f85"/><path d="M392.89,507.69c1.71-2.23.77-4.8.81-7.19.22-14.64,7.47-24.86,20-31.61A36.15,36.15,0,0,1,431,465c5.86,0,11.72,0,17.58,0,4.26,0,5.83-1.63,5.9-5.87.05-2.49,0-5,0-7.47,3.86,0,7.73,0,11.59-.16,1.84-.07,2.33.63,2.32,2.37-.07,7.6-.11,15.2,0,22.79,0,2.34-1,2.57-2.93,2.56q-15.52-.09-31.07,0c-16.49,0-27.82,12.14-26.86,28.59.12,2,.21,3.93.35,6.69Z" transform="translate(-244.56 -385.55)" fill="#e1969b"/><path d="M358.62,472.71,345.17,489.5c-1.34-.39-.87-1.29-.87-1.91,0-15.31-.15-30.61,0-45.92.25-22.28,18-42,40.08-44.7,1.11-.13,2.24-.05,3.36-.07,0,5,0,9.94,0,14.92,0,4.43-1.62,5.93-6.13,6-.87,0-1.75,0-2.62,0-10.39.43-20.2,9.13-20.4,18.7C358.33,448.59,358.59,460.65,358.62,472.71Z" transform="translate(-244.56 -385.55)" fill="#e07f85"/><path d="M358.62,472.71c0-12.06-.29-24.12,0-36.17.2-9.57,10-18.27,20.4-18.7.87,0,1.75,0,2.62,0,4.51-.08,6.09-1.58,6.13-6,0-5,0-9.95,0-14.92,3.85-.08,7.71-.12,11.56-.26,1.65-.06,2.15.67,2.14,2.22-.05,7.71-.06,15.42,0,23.12,0,1.8-.67,2.41-2.42,2.37-3.11-.08-6.23-.1-9.34,0A18.34,18.34,0,0,0,372,442.53c-.1,4.85-.13,9.7,0,14.54a5.57,5.57,0,0,1-2.22,4.72C366,465.3,362.34,469.05,358.62,472.71Z" transform="translate(-244.56 -385.55)" fill="#db626d"/><path d="M320.27,397.72c3.37,0,6.75.06,10.11-.17,2.34-.16,2.94.64,2.92,2.92-.11,11.85-.05,23.69-.05,35.54v43.16l-13-12Q320.28,432.45,320.27,397.72Z" transform="translate(-244.56 -385.55)" fill="#e3979c"/><path d="M320.27,397.72q0,34.72,0,69.46c-4.95-3.95-8.7-9.2-13.89-12.9-1.1-.77-.86-2-.86-3.06,0-16.9,0-33.8,0-50.69,0-2.2.44-3.13,2.85-3C312.3,397.77,316.29,397.68,320.27,397.72Z" transform="translate(-244.56 -385.55)" fill="#e4adb3"/><path d="M427.57,540.57c.07,4.85.12,9.71.23,14.56,0,1.43-.53,2-2,2-8.36,0-16.73-.06-25.09,0-1.77,0-2-.88-2-2.32q0-14.94,0-29.89c0-1.92.44-2.44,2.32-1.58,6.55,3,13.16,5.88,19.74,8.82C422.12,535.69,425.33,537.74,427.57,540.57Z" transform="translate(-244.56 -385.55)" fill="#e07f85"/><path d="M316.66,505.61c-1.32-7.12-5.21-12.85-10.06-18-7.8-8.24-16.3-15.78-23.85-24.27,6-4.1,13.32-4.06,18.52.85,9.21,8.71,18.33,17.54,26.92,26.88.58.64,1.05,1.38,1.61,2.05,2,2.41,2.64,4.18-1.33,5.44C324.07,500,320.48,503.08,316.66,505.61Z" transform="translate(-244.56 -385.55)" fill="#d64952"/><path d="M425.28,492.67a15.82,15.82,0,0,1,18.79.94c6.87,5.37,12.29,11.61,13.93,20.45,1.53,8.24-1.22,16-2.84,23.86-.39,1.88-1.36.84-2.11.29q-4.95-3.63-9.87-7.3c-.14-4.32.46-8.65-.38-13C440.67,506.94,434.07,499.06,425.28,492.67Z" transform="translate(-244.56 -385.55)" fill="#d74953"/><path d="M425.28,492.67c8.79,6.39,15.39,14.27,17.52,25.27.84,4.32.24,8.65.38,13a178.15,178.15,0,0,0-22.13-10.8,2.92,2.92,0,0,1-2.14-3c-.06-4.36-.5-8.72-.36-13.07A13.09,13.09,0,0,1,425.28,492.67Z" transform="translate(-244.56 -385.55)" fill="#db626d"/><path d="M482.21,515.06c3.36-.07,6.71-.08,10.06-.22,1.67-.07,2.13.63,2.12,2.19-.05,7.71-.08,15.41,0,23.11,0,2.1-.9,2.45-2.7,2.43-7.85-.06-15.69-.09-23.53,0-2.31,0-2.82-.75-2.26-2.85.86-3.24,1.56-6.51,2.33-9.76,2.62,0,5.23.14,7.84.07,3.82-.11,6-2.25,6.1-6C482.28,521,482.21,518,482.21,515.06Z" transform="translate(-244.56 -385.55)" fill="#df959a"/><path d="M438.88,560.76c2.87,3,3.71,7,4.94,10.65,4.15,12.37,6.73,25.06,6.08,38.22-4.27-2.49-7.11-6.53-10.64-9.82-.74-.69-.48-1.63-.48-2.47Q438.81,579,438.88,560.76Z" transform="translate(-244.56 -385.55)" fill="#df7e84"/><path d="M449.37,621.62a139.9,139.9,0,0,1-6.9,26.55c-4.05.94-3.48-2.33-3.52-4.3-.17-9.3-.08-18.61-.08-28.59A34.4,34.4,0,0,0,449.37,621.62Z" transform="translate(-244.56 -385.55)" fill="#df7e84"/><path d="M482.21,515.06c0,3,.07,6,0,8.94-.13,3.8-2.28,5.94-6.1,6-2.61.07-5.22,0-7.84-.07.8-4.29,1.54-8.58,1.13-13-.15-1.61.33-2.26,2-2.19C475,515,478.61,515,482.21,515.06Z" transform="translate(-244.56 -385.55)" fill="#e8afb5"/><path d="M427.57,540.57c-2.24-2.83-5.45-4.88-6.79-8.43.93.32,1.84.71,2.79,1C427.62,534.15,428.82,536.7,427.57,540.57Z" transform="translate(-244.56 -385.55)" fill="#db626d"/></svg>