<svg id="Capa_1" data-name="Capa 1" xmlns="http://www.w3.org/2000/svg" viewBox="0 0 383.07 383.85"><path d="M370.62,415.18c4.91,1,9.85,1.77,14.72,2.9q51.74,12,78.31,58.07c1.44,2.48,3,3.31,5.75,3.54,20.18,1.65,39.12,7.24,56,18.81,21.45,14.74,32,35.72,33.58,61.33,1.88,31-9.07,56.66-33.25,76.37-5.13,4.18-8.67,3.88-13.35-.79-1.93-5.89-1.3-7.92,3.71-11.93,32.6-26.1,36.4-75,8.16-105.06-30.78-32.75-80.94-30.84-109.23,4.14-3.78,4.68-8.78,5.71-12.66,2.6-3.69-2.94-3.65-7.74.17-12.56a85.46,85.46,0,0,1,43.13-29.44c2.73-.83,2.88-1.56,1.39-3.86-11.87-18.34-27.75-31.86-47.92-40.21-12.92-5.35-26.33-8.24-40.37-7.7a16.53,16.53,0,0,0-2.2-.21c-16.95.7-33,4.76-47.69,13.37-31.3,18.38-48.66,45.87-52.53,82-.18,1.7,0,2.78,2,3.27,11.63,3,21.4,9.18,30,17.37,1.73,2.09,3.55,4.11,5.19,6.27,4.36,5.75,2.49,11.36-4.39,13.37-3.81.18-6.58-1.57-9-4.37a56.12,56.12,0,0,0-22.89-15.69c-35.12-13.15-69.78,14.71-64.57,51.9,3.21,22.92,23.77,40.36,48,40.5,20.06.12,40.12,0,60.18,0,6.35,0,12.7-.13,19.05-.2,1.48.07,3,.2,4.46.2h81.45c6.29,0,8.52,1.8,9.92,7.81-1.19,6-3.67,8.12-9.67,8.12q-83,0-166,0c-30.69,0-56.12-21.12-62.63-51.43-.23-1.09.18-2.57-1.24-3.27V581.62c1.12-.45.69-1.49.82-2.27,3.44-21.17,15.29-35.85,34.5-44.77a77.92,77.92,0,0,1,25.42-7c2.75-.25,3.76-1.18,3.79-4a63.42,63.42,0,0,1,1.25-9.25c7.62-47.87,47.39-88.4,94.91-96.92,3.32-.6,6.85-.38,9.92-2.18Z" transform="translate(-176.07 -415.18)" fill="#020202"/><path d="M386.33,799c-.55-1.24-1.87-1.06-2.83-1.42-12.39-4.61-18.63-17.37-14.39-30,3.56-10.6,9.56-19.94,15.91-29,3.07-4.4,9.47-4.79,12.58-.55,7.23,9.84,13.92,20.12,17.12,32.08,3.45,12.9-5.34,25.78-18.69,28.2-.27,0-.48.44-.72.67Zm13.21-23.73a53.32,53.32,0,0,0-7.16-16c-1.12-1.7-1.63,0-2.05.62a61,61,0,0,0-6.24,13.53c-1,3.17.07,5.64,2.37,7.66a7.38,7.38,0,0,0,8.36,1.22C397.66,781,399.17,778.66,399.54,775.31Z" transform="translate(-176.07 -415.18)" fill="#030303"/><path d="M289.09,566.8c6.88-2,8.75-7.62,4.39-13.37-1.64-2.16-3.46-4.18-5.19-6.27a72.14,72.14,0,0,1,.95-16.36c2.86-16.13,7.71-31.59,15.87-45.93a136,136,0,0,1,38.78-43.68c4.82-3.49,10.16-6.12,14.83-9.8,14-.54,27.45,2.35,40.37,7.7C419.26,447.44,435.14,461,447,479.3c1.49,2.3,1.34,3-1.39,3.86a85.46,85.46,0,0,0-43.13,29.44c-3.82,4.82-3.86,9.62-.17,12.56,3.88,3.11,8.88,2.08,12.66-2.6,28.29-35,78.45-36.89,109.23-4.14,28.24,30,24.44,79-8.16,105.06-5,4-5.64,6-3.71,11.93-8.7,5.9-18.48,8.92-28.71,10.72a176.53,176.53,0,0,0-19.18-32.34c-.59-.8-1.17-1.62-1.78-2.4-4.32-5.49-10.05-5.61-14.35-.1A174.15,174.15,0,0,0,426.83,647H415.64c-1.4-6-3.63-7.8-9.92-7.81H324.27c-1.49,0-3-.13-4.46-.2a138.1,138.1,0,0,1-22.5-38C293,590,289.64,578.73,289.09,566.8Z" transform="translate(-176.07 -415.18)" fill="#6de0ee"/><path d="M426.83,647a174.15,174.15,0,0,1,21.49-35.69c4.3-5.51,10-5.39,14.35.1.61.78,1.19,1.6,1.78,2.4a176.53,176.53,0,0,1,19.18,32.34,51.14,51.14,0,0,1,1.63,33.28c-4.43,15.55-15.19,23.9-30.67,23.64-14.67-.24-25.45-9.29-29.3-24.52A52.79,52.79,0,0,1,426.83,647Zm28.63-18.43c-6.36,9.82-12.72,19.21-15.36,30.42-1.62,6.86-.53,13.66,2.25,20.1,2.46,5.68,7.13,8.07,13.13,8.06s10.63-2.5,13.09-8.16A31.77,31.77,0,0,0,471,660.69C468.93,648.73,462,639,455.46,628.55Z" transform="translate(-176.07 -415.18)" fill="#020203"/><path d="M271.75,775A23.6,23.6,0,0,1,249.32,744c3.52-10.77,9.61-20.21,16-29.38a7.75,7.75,0,0,1,12.6-.4c7.13,9.76,13.76,20,17,31.76C299,760.57,287.16,775.09,271.75,775Zm8.08-23.77a52,52,0,0,0-7.28-16.12c-1.12-1.63-1.63.28-2,.88a58.43,58.43,0,0,0-6.2,13.54c-1,3.19.19,5.64,2.52,7.61a7.35,7.35,0,0,0,8.38,1.05C278.06,756.89,279.5,754.51,279.83,751.27Z" transform="translate(-176.07 -415.18)" fill="#030303"/><path d="M359.66,703.49c-.65,10-5.17,17.4-14.34,21.44s-17.91,2.68-25.38-3.95-10-15-6.9-24.7c3.54-10.89,9.66-20.45,16.21-29.71a7.7,7.7,0,0,1,12.57-.35c7.33,10.07,13.93,20.63,17.32,32.82A29.56,29.56,0,0,1,359.66,703.49Zm-24-17.32A48.47,48.47,0,0,0,328,702.5c-.79,3.12.87,5.6,3.47,7.27a7.38,7.38,0,0,0,8.76-.21c2.38-1.67,4-4.11,3.2-7A49.39,49.39,0,0,0,335.68,686.17Z" transform="translate(-176.07 -415.18)" fill="#020303"/><path d="M289.09,566.8c.55,11.93,3.94,23.21,8.22,34.2a138.1,138.1,0,0,0,22.5,38c-6.35.07-12.7.19-19.05.2-20.06,0-40.12.11-60.18,0-24.21-.14-44.77-17.58-48-40.5-5.21-37.19,29.45-65,64.57-51.9a56.12,56.12,0,0,1,22.89,15.69C282.51,565.23,285.28,567,289.09,566.8Z" transform="translate(-176.07 -415.18)" fill="#5eafd5"/><path d="M358.72,431.39c-4.67,3.68-10,6.31-14.83,9.8a136,136,0,0,0-38.78,43.68c-8.16,14.34-13,29.8-15.87,45.93a72.14,72.14,0,0,0-.95,16.36c-8.62-8.19-18.39-14.42-30-17.37-1.94-.49-2.15-1.57-2-3.27,3.87-36.1,21.23-63.59,52.53-82,14.66-8.61,30.74-12.67,47.69-13.37A16.53,16.53,0,0,1,358.72,431.39Z" transform="translate(-176.07 -415.18)" fill="#5eb0d5"/><path d="M399.54,775.31c-.37,3.35-1.88,5.7-4.72,7a7.38,7.38,0,0,1-8.36-1.22c-2.3-2-3.4-4.49-2.37-7.66a61,61,0,0,1,6.24-13.53c.42-.66.93-2.32,2.05-.62A53.32,53.32,0,0,1,399.54,775.31Z" transform="translate(-176.07 -415.18)" fill="#5cacd1"/><path d="M455.46,628.55C462,639,468.93,648.73,471,660.69A31.77,31.77,0,0,1,468.57,679c-2.46,5.66-7.07,8.15-13.09,8.16s-10.67-2.38-13.13-8.06c-2.78-6.44-3.87-13.24-2.25-20.1C442.74,647.76,449.1,638.37,455.46,628.55Z" transform="translate(-176.07 -415.18)" fill="#5eaed4"/><path d="M279.83,751.27c-.33,3.24-1.77,5.62-4.59,7a7.35,7.35,0,0,1-8.38-1.05c-2.33-2-3.53-4.42-2.52-7.61a58.43,58.43,0,0,1,6.2-13.54c.38-.6.89-2.51,2-.88A52,52,0,0,1,279.83,751.27Z" transform="translate(-176.07 -415.18)" fill="#5cacd1"/><path d="M335.68,686.17a49.39,49.39,0,0,1,7.76,16.34c.82,2.94-.82,5.38-3.2,7a7.38,7.38,0,0,1-8.76.21c-2.6-1.67-4.26-4.15-3.47-7.27A48.47,48.47,0,0,1,335.68,686.17Z" transform="translate(-176.07 -415.18)" fill="#5cacd1"/></svg>