<svg id="Capa_1" data-name="Capa 1" xmlns="http://www.w3.org/2000/svg" viewBox="0 0 383.93 323.37"><path d="M326.94,614.77c-13.78-5.48-27-11.89-39-20.77-30.42-22.59-49-52.91-58.6-89.13a21.87,21.87,0,0,1-1.06-4.72c-.24-6.55-3.72-10.86-9-14.3-3.32-2.15-6.2-5-9.39-7.37C203.8,474,199.33,468.34,197.31,461c-.15-.56-.17-1.27-1-1.4V408.72c3.82-4.36,5.5-4.7,10.86-2q21,10.46,42,21a12,12,0,0,0,5.33,1.28c7.83.16,15.73-.86,23.44,1.37,1.67.48,3.52.73,4.92,1.64,4.92,3.18,10.32,3,15.81,3,9.36-.11,18.72,0,28.07-.05,3,0,5.42.67,6.79,3.57s.24,5-1.53,7.18-3.53,4.43-5.74,7.21c8.47,0,16.37,0,24.27,0a8.17,8.17,0,0,1,5,1.12c3.13,2.23,3.39,5.88.54,9.46-5.88,7.42-11.75,14.85-17.78,22.13-1.62,2-1.58,2.79.72,4,11.41,6.2,23.78,9.43,36.41,11.8,22.15,4.15,44.55,5.22,67,5.3,19.08.06,37.4,3.39,54.34,12.67,5.27,2.89,9.87,6.7,14.75,10.13,3.68,4,7.65,7.73,10.95,12.08,12.31,16.25,18.63,34.76,20.94,54.8.82,9.07.48,18.16.28,27.23-.1,4.11,1.09,6.57,4.64,8.56a30.85,30.85,0,0,1,15.67,20.8c3.49,15.38,6.94,30.77,10.64,46.09,1.6,6.67,2.46,13.54,5.12,19.94,0,3,1.17,7.14-.33,8.64s-5.66.33-8.66.33H529.65c-1.77-1.66-3.72-3.21-3.84-5.93.65-7.33,3.27-13.76,8.82-18.74,1.56-1.4,1.35-2.53.63-4.18-3.53-8.07-7.2-16.09-10.35-24.32-2.16-5.67-5.15-10.25-10.85-12.86a29.83,29.83,0,0,1-4.9-3.4c-15.48-11.44-27.3-26-36.3-42.87-.5-1.14-1-2.28-1.5-3.4A121.86,121.86,0,0,1,460,562c0-4.74,2.14-7.46,5.89-7.52s6,2.63,6.09,7.35A99.92,99.92,0,0,0,473.84,580q10,49.79,53.58,76a10.09,10.09,0,0,1,4.48,4.78c5.64,13.26,11.38,26.48,17,39.74,1.83,4.29,1,6.65-3,9.1a16,16,0,0,0-6.13,6.13h26.42c-3.9-16.83-7.84-33.51-11.64-50.23-4.16-18.28-3-17.26-18.76-27.44-3-1.91-4-4.35-4-7.79-.16-12.2.93-24.44-.68-36.58-2.85-21.51-10.91-40.57-27.62-55.13-16.4-14.3-36.21-19.47-57.41-19.91-17-.35-33.94-.55-50.83-2.37-18.13-2-36-5-53-11.94C336,501.85,330,498.79,325,494.1c-3.65-3.44-3.81-6.2-.77-10.1,1.76-2.25,3.58-4.47,5.37-6.71l10-12.5c-9.75,0-18.72-.06-27.69,0a10,10,0,0,1-6.84-2.39c-6.18-5.05-12.43-10-18.69-14.95a30,30,0,0,0-19-6.62c-4.24,0-8.49-.18-12.72.05a20.86,20.86,0,0,1-11.06-2.64c-10.4-5.37-20.91-10.52-31.39-15.71-1.18-.58-2.24-1.58-3.85-1.41,0,10.38.06,20.71,0,31A18.77,18.77,0,0,0,216,468c6.1,4.76,12,9.73,18.15,14.43a10,10,0,0,1,4.42,7.76,55.23,55.23,0,0,0,1.67,9.16c12.57,51.84,43.41,87.38,94.18,105.14,4.85,1.69,5.84,3.21,5.59,8.27-2.93,4.05-4.7,4.61-9.47,3C329.33,615.4,328.12,615.11,326.94,614.77ZM315.21,447h-9.64C312.84,453.77,311.06,452.61,315.21,447Z" transform="translate(-196.34 -404.99)" fill="#030303"/><path d="M391.7,620.22C390,631,388.24,641.8,386.6,652.6q-5.3,34.86-10.46,69.74c-.38,2.58-2.12,4-3.78,5.59H325.92c-1.78-1.66-3.72-3.21-3.85-5.93a25.76,25.76,0,0,1,4.63-13.22,45.48,45.48,0,0,1,10.35-11.21,8.16,8.16,0,0,0,3.55-6.84c.36-9.08,1-18.15,1.48-27.22q1.29-25,2.53-50c.09-.61.23-1.22.27-1.84.42-7,.81-13.91,1.24-20.87.26-4.05,2.74-6.58,6.25-6.43s5.75,2.83,5.73,6.91c0,1.12-.07,2.24-.14,3.36-1.89,33.3-3.88,66.6-5.58,99.91-.24,4.69-1.65,7.9-5.58,10.54A33.37,33.37,0,0,0,336.59,716c8.66,0,16.77-.16,24.87.09,3,.09,3.72-1,4.11-3.64Q373.7,657.63,382,602.86c.69-4.62,3.38-7,7-6.43s5.5,3.81,4.84,8.29C393.09,609.88,392.41,615.05,391.7,620.22Z" transform="translate(-196.34 -404.99)" fill="#030303"/><path d="M519.8,525.28c.76-5.07,2.47-6.58,7.59-6.71,25.32-.67,42.91,14.77,45.76,39.9,1.31,11.55.84,23.11.81,34.68A92.68,92.68,0,0,0,575,608.76a15.5,15.5,0,0,0,4.81,9.28v4.48c-4.22,4.81-6.6,5-11.74.76q-9.36-7.63-18.73-15.26c-3.74-3.06-4.19-4.83-2.4-9.34,4-3.17,5.89-3.15,9.91,0,1.59,1.22,2.87,3,5.22,3.54-.58-14.47.89-28.67-1-42.82-1.7-13-7.35-22.87-20.58-27.07a34,34,0,0,0-12.89-1.74C523.58,530.86,520.92,529.26,519.8,525.28Z" transform="translate(-196.34 -404.99)" fill="#030404"/><path d="M499.69,727.93c-3.68-2.5-4.2-5.87-3.26-10,1.26-5.5,3.55-10.4,7.73-14.12,2-1.82,1.82-3.19.89-5.32q-6.45-14.62-12.62-29.36a8.71,8.71,0,0,0-3.76-4.35,124.61,124.61,0,0,1-31.3-27.36c-3.35-4.06-3.37-6-.1-10.15,3.5-1.75,6.44-1.13,8.92,2a112.15,112.15,0,0,0,31.91,27.23,8.87,8.87,0,0,1,3.83,4.39c5.66,13.25,11.38,26.47,17,39.72,1.84,4.3,1.06,6.66-2.9,9.09a15.72,15.72,0,0,0-6.17,6.25c5.06-.16,9.4.24,10.12,6.1-.14,2.71-2.08,4.26-3.84,5.93Z" transform="translate(-196.34 -404.99)" fill="#030404"/><path d="M302,727.93c-3.83-2.61-4.32-6.14-3.19-10.37,2.34-8.72,8.18-14.89,14.83-20.43a7.1,7.1,0,0,0,3-5.55c1.07-21.08,2.29-42.15,3.43-63.23.31-5.65,1.58-7.28,6.62-8.19,4.7,1.65,5.65,2.9,5.38,8-1.23,23.18-2.54,46.36-3.78,69.55a7.15,7.15,0,0,1-3.41,5.84,54.69,54.69,0,0,0-9.87,9c-1.68,1.89-3.42,3.61-.13,5.73,1.12.72,1.32,2.33,1.48,3.71-.11,2.73-2.07,4.27-3.84,5.93Z" transform="translate(-196.34 -404.99)" fill="#030304"/><path d="M547,598.68c-.83-1.26-1.78-2.35-3.48-2.34-2.31-20-8.63-38.55-20.94-54.8-3.3-4.35-7.27-8.08-10.95-12.08,2-2.77,5.07-3.58,8.21-4.18,1.12,4,3.78,5.58,7.85,5.28a34,34,0,0,1,12.89,1.74c13.23,4.2,18.88,14.12,20.58,27.07,1.86,14.15.39,28.35,1,42.82-2.35-.59-3.63-2.32-5.22-3.54C552.85,595.53,551,595.51,547,598.68Z" transform="translate(-196.34 -404.99)" fill="#93a5af"/><path d="M322.07,722h-5.8c-.16-1.38-.36-3-1.48-3.71-3.29-2.12-1.55-3.84.13-5.73a54.69,54.69,0,0,1,9.87-9,7.15,7.15,0,0,0,3.41-5.84c1.24-23.19,2.55-46.37,3.78-69.55.27-5.06-.68-6.31-5.38-8,.11-1.8.22-3.59.34-5.39,1.18.34,2.39.63,3.56,1,4.77,1.59,6.54,1,9.47-3l4.64.77q-1.26,25-2.53,50c-.48,9.07-1.12,18.14-1.48,27.22a8.16,8.16,0,0,1-3.55,6.84,45.48,45.48,0,0,0-10.35,11.21A25.76,25.76,0,0,0,322.07,722Z" transform="translate(-196.34 -404.99)" fill="#92a3ad"/><path d="M344.61,613.54l-4.64-.77c.25-5.06-.74-6.58-5.59-8.27-50.77-17.76-81.61-53.3-94.18-105.14a55.23,55.23,0,0,1-1.67-9.16,10,10,0,0,0-4.42-7.76C228,477.74,222.06,472.77,216,468a18.77,18.77,0,0,1-7.66-15.8c.09-10.34,0-20.67,0-31,1.61-.17,2.67.83,3.85,1.41,10.48,5.19,21,10.34,31.39,15.71a20.86,20.86,0,0,0,11.06,2.64c4.23-.23,8.48-.05,12.72-.05a30,30,0,0,1,19,6.62c6.26,4.94,12.51,9.9,18.69,14.95a10,10,0,0,0,6.84,2.39c9-.1,17.94,0,27.69,0l-10,12.5c-1.79,2.24-3.61,4.46-5.37,6.71-3,3.9-2.88,6.66.77,10.1,5,4.69,11,7.75,17.21,10.32,17,7,34.91,10,53,11.94,16.89,1.82,33.86,2,50.83,2.37,21.2.44,41,5.61,57.41,19.91,16.71,14.56,24.77,33.62,27.62,55.13,1.61,12.14.52,24.38.68,36.58,0,3.44,1.09,5.88,4,7.79,15.74,10.18,14.6,9.16,18.76,27.44,3.8,16.72,7.74,33.4,11.64,50.23H539.85a16,16,0,0,1,6.13-6.13c4-2.45,4.79-4.81,3-9.1-5.66-13.26-11.4-26.48-17-39.74a10.09,10.09,0,0,0-4.48-4.78q-43.62-26.17-53.58-76A99.92,99.92,0,0,1,472,561.86c-.07-4.72-2.34-7.41-6.09-7.35S460,557.29,460,562a121.86,121.86,0,0,0,11.36,50.2c.52,1.12,1,2.26,1.5,3.4-2.09,1.78-4.57.61-6.85.9-1.34-3.67-3.88-5-7.83-4.71-18.87,1.56-37.77,2.47-56.72,2.48-4.77,0-6.3,1.31-7.49,6l-2.27-.09c.71-5.17,1.39-10.34,2.15-15.5.66-4.48-1.16-7.68-4.84-8.29s-6.32,1.81-7,6.43q-8.25,54.76-16.43,109.55c-.39,2.63-1.16,3.73-4.11,3.64-8.1-.25-16.21-.09-24.87-.09a33.37,33.37,0,0,1,10.21-10.84c3.93-2.64,5.34-5.85,5.58-10.54,1.7-33.31,3.69-66.61,5.58-99.91.07-1.12.13-2.24.14-3.36,0-4.08-2.21-6.76-5.73-6.91s-6,2.38-6.25,6.43c-.43,7-.82,13.91-1.24,20.87C344.84,612.32,344.7,612.93,344.61,613.54Zm-49.15-84a39.65,39.65,0,0,1-22.19-14.19c-2.55-3.2-6.08-3.58-8.84-1.29s-3,5.57-.54,8.64c10.05,12.65,23.19,19.3,39.36,19.78,5.36.16,7.89-3.48,6.32-8.64-.92-3-1.9-6-2.93-9.25,7.21,0,13.94,0,20.67,0,2.89,0,5.12-1,6.32-3.71s.25-5.07-1.77-7.08c-5.56-5.54-11.08-11.12-16.68-16.63-3.15-3.1-6.64-3.3-9.22-.71s-2.32,6,.78,9.2c2.12,2.15,4.36,4.18,7.26,6.95-5.85,0-10.44-.07-15,0-5.19.1-7.68,3.55-6.2,8.48C293.54,523.71,294.41,526.27,295.46,529.55Zm-27.58-64.76c6.35,0,6.35,0,6.35-6.37,0-5.59,0-5.59-5.63-5.59-6.35,0-6.35,0-6.35,6.36C262.25,464.79,262.25,464.79,267.88,464.79Z" transform="translate(-196.34 -404.99)" fill="#bccad2"/><path d="M466,616.53c2.28-.29,4.76.88,6.85-.9,9,16.9,20.82,31.43,36.3,42.87a29.83,29.83,0,0,0,4.9,3.4c5.7,2.61,8.69,7.19,10.85,12.86,3.15,8.23,6.82,16.25,10.35,24.32.72,1.65.93,2.78-.63,4.18-5.55,5-8.17,11.41-8.82,18.74H520c-.72-5.86-5.06-6.26-10.12-6.1a15.72,15.72,0,0,1,6.17-6.25c4-2.43,4.74-4.79,2.9-9.09-5.65-13.25-11.37-26.47-17-39.72a8.87,8.87,0,0,0-3.83-4.39,112.15,112.15,0,0,1-31.91-27.23c-2.48-3.09-5.42-3.71-8.92-2l-1.85-3.09c1.22-.12,2.44-.22,3.66-.36C464,623.24,465.65,621.55,466,616.53Z" transform="translate(-196.34 -404.99)" fill="#92a4ae"/><path d="M315.21,447c-4.15,5.58-2.37,6.74-9.64,0Z" transform="translate(-196.34 -404.99)" fill="#92a3ad"/><path d="M466,616.53c-.36,5-2,6.71-6.93,7.28-1.22.14-2.44.24-3.66.36-18,1.16-35.93,2.16-53.94,2.09-4.71,0-6.28-1.27-7.51-6,1.19-4.7,2.72-6,7.49-6,19,0,37.85-.92,56.72-2.48C462.13,611.5,464.67,612.86,466,616.53Z" transform="translate(-196.34 -404.99)" fill="#040404"/><path d="M295.46,529.55c-1-3.28-1.92-5.84-2.69-8.43-1.48-4.93,1-8.38,6.2-8.48,4.59-.08,9.18,0,15,0-2.9-2.77-5.14-4.8-7.26-6.95-3.1-3.15-3.36-6.61-.78-9.2s6.07-2.39,9.22.71c5.6,5.51,11.12,11.09,16.68,16.63,2,2,3,4.29,1.77,7.08s-3.43,3.73-6.32,3.71c-6.73,0-13.46,0-20.67,0,1,3.25,2,6.24,2.93,9.25,1.57,5.16-1,8.8-6.32,8.64-16.17-.48-29.31-7.13-39.36-19.78-2.44-3.07-2.11-6.44.54-8.64s6.29-1.91,8.84,1.29A39.65,39.65,0,0,0,295.46,529.55Z" transform="translate(-196.34 -404.99)" fill="#030304"/><path d="M267.88,464.79c-5.63,0-5.63,0-5.63-5.6,0-6.36,0-6.36,6.35-6.36,5.63,0,5.63,0,5.63,5.59C274.23,464.79,274.23,464.79,267.88,464.79Z" transform="translate(-196.34 -404.99)"/></svg>