<svg id="Capa_1" data-name="Capa 1" xmlns="http://www.w3.org/2000/svg" viewBox="0 0 383.88 383.2"><path d="M350.13,428.69c10.36,25.91.87,46.78-16.76,65.54a94,94,0,0,1-7.92,7.4,9.2,9.2,0,0,1-14.9-9.35c2.88-10.72,5.16-21.52,5.69-32.66a108.68,108.68,0,0,0-3.72-34.29c-2,7-3.82,13.43-5.82,19.8a418.76,418.76,0,0,1-19.52,51.17c-1.67,3.6-.59,3.73,2.61,4.17,35.78,4.92,67.88,18.6,95.73,41.56,5.08,4.2,9.34,4.05,14.55,1.74a29.31,29.31,0,0,0,7.34-5.09c5.42-4.74,12.91-5.17,18-.11a23.76,23.76,0,0,0,33.89,0c5.33-5.26,12.66-4.57,18.85.84,8.64,7.57,19.61,8.54,28.57,2.48a49.11,49.11,0,0,0,4-3.32c5.54-4.64,12.74-4.78,18.06.06,8.8,8,18.26,9.33,28.86,3.83,5.45-2.83,10.05-.77,13.91,5.7V635a19.86,19.86,0,0,1-12,12H330.15c-2.06-1.46-3.81-3.13-3.88-5.89.85-4.22,3.64-5.39,7.67-5.38q49.26.12,98.53,0h4.27c-.27-1-.39-1.54-.6-2.1Q396.21,527,283.28,510.86c-2.43-.35-3.25.76-4.16,2.59-5.39,10.95-11.36,21.57-17.69,32a425,425,0,0,1-42.27,57.4c-5.25,5.46-10.2,11.27-15.87,16.25-3.88,3.4-4.8,7.1-4.37,11.76.29,3.14,1.85,4.81,5,4.82,5.1,0,10.21-.06,15.31-.1,1.37,0,2.74.12,4.11.12,27,0,53.92,0,80.88,0,4,0,6.44,1.47,7.32,5.38-.11,2.73-1.83,4.42-3.87,5.89h-108a20.3,20.3,0,0,1-12-12V520.48c4-8.82,12.15-11.23,20.5-13.62a198.19,198.19,0,0,1,25.88-5.8,4.71,4.71,0,0,0,3.58-2.24c17.74-26.48,32.57-54.41,42.6-84.77.77-2.34,0-3.12-1.55-4.78-3.56-3.75-7.05-2.7-11.08-1.42-17.18,5.47-32.12,14.66-45.44,26.66-1.11,1-2.18,2.05-3.33,3-3.42,2.87-7.56,3.32-11.09,1.23a8.86,8.86,0,0,1-4.26-10c3.1-13.22,8.14-25.59,16.89-36.2a50.22,50.22,0,0,1,36.83-18.9c-.73-2.06-2.63-2.26-4.16-2.84a139.72,139.72,0,0,0-50.16-9c-2.11,0-4.25.28-6.33-.4a9.36,9.36,0,0,1-6.77-7.26c-.83-3.77.1-7.22,3.21-9.34,15.72-10.73,32.61-18.28,52.2-17.66,15.71.5,28.54,7.2,39.19,18.46l3.87,4.12A70.28,70.28,0,0,0,283.93,336c-7.91-20.08-19.74-37.65-34.45-53.35-3.21-3.43-5-7.14-3.3-11.86s6.61-8,11.53-6.82c19.91,4.8,38.45,12.43,53.16,27.29,15.73,15.87,20.74,35.24,18.2,57A114.35,114.35,0,0,1,325.25,366c6.49-4.79,12.51-8.76,19.17-11.64,25.88-11.21,48.92-5.45,70,11.82a119.26,119.26,0,0,1,20.05,21.64c3.31,4.48,3.5,8.86.68,12.77s-7.3,5.2-12.71,3.17c-16-6-32.38-10-49.47-10.9-2-.11-3.93-.19-6-.29.44,1.13,1.37,1.2,2.13,1.52,20.43,8.36,31.31,24.17,35.38,45.27a104.83,104.83,0,0,1,.9,31.28c-.58,5.31-3.26,8.53-7.62,9.37-4.88.93-8.69-1-11.21-6.05a143.36,143.36,0,0,0-26.68-37.65c-2.89-2.89-5.68-5.94-9.25-8.07a6.08,6.08,0,0,0-.58-.56C349.5,428.1,349.77,428.41,350.13,428.69Zm-56.71-51.12c-4.95-1-8.83.93-11.66,4.79-3.17,4.33-3.44,9.12-.6,13.67s6.79,6.85,12.29,5.93c6.71-1.2,11.22-6.3,11-12.49A12.07,12.07,0,0,0,293.42,377.57Zm25.5,32.82c6.79-.43,11.5-5.76,11.26-12.72-.23-6.29-5.69-11.77-11.71-11.83-1.7,0-2.94.11-2.68,2.36.41,3.53-.81,6.87-1.51,10.26-1,1.59-1.83,3.23-2.88,4.75-2.92,4.2-2.34,5.8,2.71,7.05A10.29,10.29,0,0,0,318.92,410.39ZM219.24,523.65l8.15-10.16L219,515.67c-2.87.76-5.78,1.42-8.62,2.31-13.52,4.25-11.29,2.7-11.47,15.32-.06,4.73,0,9.45,0,15C206.32,539.69,213.29,532.09,219.24,523.65ZM217,424.05l5.86-5.07c1-.7,2.07-1.36,3.07-2.1a123.18,123.18,0,0,1,38.3-19.61c3.86-1.15,5.29-2.49,3.64-6.25a28.53,28.53,0,0,1,.23-3.34c.35-1.8-.38-2.46-2.12-2.6-10.35-.8-20.08.83-28.71,7.05S223.11,407,219.16,416.69c-.95,2.34-2.57,4.57-2.07,7.35h-.17Zm110.77-4.11c-4.25.37-4.54,2.54-3.55,6.26a110.2,110.2,0,0,1,3.18,34.72,179.8,179.8,0,0,1-4.18,27.75c3.65-4.33,7.42-7.08,9.19-11.48.32-.18.75-.3.95-.57,13.51-18.39,13.21-38.46-2.24-56.61C329.86,418.5,328.93,419,327.79,419.94ZM224.4,341.57c-6.78,1.7-12.77,5.06-18.81,8.48.24.32.3.47.36.48,24.88.84,48.53,6.21,70.14,19,1.65,1,2.78.52,3.94-.65a19.51,19.51,0,0,1,3.11-1.23c3-.65,2.57-2,1.16-4a99.38,99.38,0,0,0-7.26-9.47C263.08,338.8,243.17,334,224.4,341.57Zm116.83,61.37c-.65,1.95-2.26,3.67.83,5.47,20.14,11.78,35.56,28.27,47.57,48.09,1.5,2.47,3,5,4.44,7.46.53-6,1.22-11.81-.08-17.56-.75-10.27-3.94-19.7-10.3-27.85-10.22-13.09-24.63-17.3-40.38-18.53C340.75,399.82,341.39,401.59,341.23,402.94Zm72.9-14.08a39.82,39.82,0,0,0,9.15,2.92c-8.36-10.55-17.29-19.48-28.75-25.58-9.26-4.92-19-7.21-29.58-6-11.38,1.34-21.18,6.26-30.28,12.87-5.48,4-5.46,4-.06,8.26,1.27,2.34,2.89,2.95,5.75,2.41a142.41,142.41,0,0,1,43.13-1.25C393.91,383.74,404,386.3,414.13,388.86ZM418,547.29c-.34-.79-1-.86-1.69-.66-1.37-.2-1.94,1-2.76,1.65a29.08,29.08,0,0,1-9.79,6.07c-2.82.93-2.49,1.77-.71,3.6a186.1,186.1,0,0,1,21.14,26.11c5.16,7.63,15.57,11,24.5,8.12a18.7,18.7,0,0,0,8.79-4.67c7.9-6.77,13.39-6.75,21.41.1,8.69,7.44,21.51,8,29.74.09,6.56-6.27,15.48-6.57,22.2,0,7.17,7,18.78,7.39,27.06,2,1.1-.72,2.44-1.24,2.43-3,0-10.79,0-21.59,0-32.63-.86.22-1.34.3-1.78.46-13.39,5-25.51,2.8-36.19-6.67-2.38-2.11-3.83-1.08-5.71.54C503,560,484.83,560,471.27,548.26c-2.44-2.12-4-2-6.31.08a33.2,33.2,0,0,1-28.46,8.15c-7.16-1.15-13-4.73-18.43-9.27ZM259.64,276.55l-.19-.53-.3.17.54.32c0,1,.77,1.52,1.33,2.15,22.64,25.49,37.84,54.55,42.69,88.57.53,3.68,4.23,4.23,6.2,6.48.5.57.78-.89,1-1.49,6.3-15.13,9.64-30.77,6.14-47-4.31-20-17.83-32.48-35.66-41C274.46,280.81,267.41,277.65,259.64,276.55Zm-60.57,306v25c7-7,13.06-13.79,18.87-20.81,40.25-48.61,67.35-103.87,83.74-164.59,1.13-4.2.33-6.83-3-9.13-6.19-.24-6.3-.2-8,5-8.88,27.27-21.76,52.63-37.09,76.8A480.84,480.84,0,0,1,201,562.75c-1.1,1.19-2.15,2.25-2.08,4.15C199.07,572.13,199,577.36,199.07,582.59Zm255.37,19.86c-5.77,2-11.76,2.32-18.45,1.63a192.24,192.24,0,0,1,12.12,30c.48,1.56,1.49,1.66,2.83,1.64,5.23-.09,10.45-.1,15.68-.14l68.88.12c6.49,0,13,0,19.47,0,2.88,0,5.2-1.06,5.25-4.07.19-10,.07-20,.07-30.16-16.5,5.28-24.23,3.92-38.5-6.71-1.65-1.23-2.89-1.1-4.25.24-12.74,12.61-34.43,12.53-47,.06-1.51-1.48-2.95-1.67-4.52-.09C462.68,598.32,458.64,600.52,454.44,602.45Z" transform="translate(-187.69 -263.74)" fill="#020302"/><path d="M529.4,469.47c3.67,3,4.07,4.79,2.06,9a40.34,40.34,0,0,1-46,21.66c-18.06-4.4-31.29-21.54-30.67-39.74.66-19.63,14.51-35.68,33.52-38.85,18.38-3.06,36.1,6.33,43.5,23.06,2,4.53,1.58,6.21-2.35,9.27-4.07.71-6.37-1.13-8.07-4.79-4.16-9-11.05-14.69-21.07-16.23a4.24,4.24,0,0,0-1-.44,28.82,28.82,0,0,0-28.83,13.45c-6.33,10.64-6,21.4.81,31.68a28.07,28.07,0,0,0,29.41,11.78c9.66-1.71,16.36-7.29,20.61-15.91C523.09,469.92,525.51,468.34,529.4,469.47Z" transform="translate(-187.69 -263.74)" fill="#040403"/><path d="M500.37,432.87c10,1.54,16.91,7.25,21.07,16.23,1.7,3.66,4,5.5,8.07,4.79a40.83,40.83,0,0,1-.11,15.58c-3.89-1.13-6.31.45-8,4-4.25,8.62-10.95,14.2-20.61,15.91-9.63-7.14-14.76-16.55-14.67-28.67C486.16,449,491.52,440,500.37,432.87Z" transform="translate(-187.69 -263.74)" fill="#fdc164"/><path d="M489.67,520.6a45.43,45.43,0,0,1,0-5.22,5,5,0,0,1,4.95-4.7c3-.22,5.26,1.12,5.81,4.1a32.77,32.77,0,0,1,0,11.89c-.55,3-2.78,4.44-5.75,4.21a5,5,0,0,1-5-4.68A49.76,49.76,0,0,1,489.67,520.6Z" transform="translate(-187.69 -263.74)" fill="#080808"/><path d="M500.91,401.8a42.11,42.11,0,0,1-.36,5.37,5.09,5.09,0,0,1-5.63,4.42c-2.92-.13-5-1.79-5.22-4.86a88.86,88.86,0,0,1,0-10.45c.16-3.08,2.26-4.8,5.14-5a5.18,5.18,0,0,1,5.79,4.69A50.32,50.32,0,0,1,500.91,401.8Z" transform="translate(-187.69 -263.74)" fill="#080808"/><path d="M534,494.38a5.8,5.8,0,0,1,3.9,1.49c2.32,2.23,4.67,4.45,6.82,6.84a5.46,5.46,0,0,1,0,7.69,5.31,5.31,0,0,1-7.69.29,95,95,0,0,1-7.1-7.09,5.23,5.23,0,0,1-.77-5.92A5.66,5.66,0,0,1,534,494.38Z" transform="translate(-187.69 -263.74)" fill="#080808"/><path d="M449.71,410.12a5.41,5.41,0,0,1,3.62,1.38c2.32,2.26,4.71,4.48,6.87,6.89a5.56,5.56,0,0,1-7.88,7.83,95,95,0,0,1-6.88-6.88,5.15,5.15,0,0,1-.9-5.91A5.45,5.45,0,0,1,449.71,410.12Z" transform="translate(-187.69 -263.74)" fill="#080808"/><path d="M456,494.38a5.68,5.68,0,0,1,5.11,3.18,5.13,5.13,0,0,1-.65,5.95,79.5,79.5,0,0,1-7.43,7.37c-2.44,2-5.2,1.78-7.4-.53s-2.32-5-.19-7.4,4.7-4.81,7.11-7.16A5.84,5.84,0,0,1,456,494.38Z" transform="translate(-187.69 -263.74)" fill="#040403"/><path d="M435.56,466.65c-1.74,0-3.49.14-5.21,0-3.15-.32-5-2.16-5.07-5.34s1.72-5.34,4.74-5.66a50.36,50.36,0,0,1,10.77,0,5.09,5.09,0,0,1,4.75,5.68c-.14,3.11-2,5-5.14,5.33C438.8,466.78,437.17,466.65,435.56,466.65Z" transform="translate(-187.69 -263.74)" fill="#080808"/><path d="M554.38,466.66c-1.49,0-3,.11-4.47,0a5.22,5.22,0,0,1-5.17-5.31,5.09,5.09,0,0,1,4.73-5.69,50.36,50.36,0,0,1,10.77,0c3,.32,4.82,2.41,4.79,5.64,0,3.06-2.15,5.19-5.44,5.4-1.73.12-3.47,0-5.21,0Z" transform="translate(-187.69 -263.74)" fill="#080808"/><path d="M534.37,427.74a5.32,5.32,0,0,1-5.09-2.93,5,5,0,0,1,.45-5.94,81.22,81.22,0,0,1,7.68-7.62c2-1.72,4.44-1.54,6.58,0s3,4.12,1.85,6.28a28.69,28.69,0,0,1-9.87,9.93A4.22,4.22,0,0,1,534.37,427.74Z" transform="translate(-187.69 -263.74)" fill="#040403"/><path d="M326.27,641.05H311.53c-.88-3.9-3.35-5.38-7.32-5.37-27,.08-53.92,0-80.88,0-1.37,0-2.74-.08-4.11-.12l-.06-32.73a425,425,0,0,0,42.27-57.4c6.33-10.44,12.3-21.06,17.69-32,.91-1.83,1.73-2.94,4.16-2.59q112.83,16.27,152.86,122.75c.21.56.33,1.15.6,2.1h-4.27q-49.26,0-98.53,0C329.91,635.66,327.12,636.83,326.27,641.05Z" transform="translate(-187.69 -263.74)" fill="#fedca7"/><path d="M418.07,547.22c5.41,4.54,11.27,8.12,18.43,9.27A33.2,33.2,0,0,0,465,548.34c2.35-2.07,3.87-2.2,6.31-.08C484.83,560,503,560,516.64,548.35c1.88-1.62,3.33-2.65,5.71-.54,10.68,9.47,22.8,11.63,36.19,6.67.44-.16.92-.24,1.78-.46,0,11,0,21.84,0,32.63,0,1.75-1.33,2.27-2.43,3-8.28,5.43-19.89,5-27.06-2-6.72-6.55-15.64-6.25-22.2,0-8.23,7.87-21,7.35-29.74-.09-8-6.85-13.51-6.87-21.41-.1a18.7,18.7,0,0,1-8.79,4.67,18.56,18.56,0,0,0-.82-2.07,195.25,195.25,0,0,0-25.12-36.05C421,552,418.39,550.34,418.07,547.22Z" transform="translate(-187.69 -263.74)" fill="#5fb7fc"/><path d="M454.44,602.45c4.2-1.93,8.24-4.13,11.53-7.45,1.57-1.58,3-1.39,4.52.09,12.62,12.47,34.31,12.55,47-.06,1.36-1.34,2.6-1.47,4.25-.24,14.27,10.63,22,12,38.5,6.71,0,10.13.12,20.15-.07,30.16-.05,3-2.37,4.09-5.25,4.07-6.49-.05-13,0-19.47,0l-68.88-.12A218.56,218.56,0,0,0,454.44,602.45Z" transform="translate(-187.69 -263.74)" fill="#8ac9fd"/><path d="M298.71,413c3.3,2.3,4.1,4.93,3,9.13-16.39,60.72-43.49,116-83.74,164.59-5.81,7-11.88,13.8-18.87,20.81v-25c2.05-1.14,3-3.33,4.45-5,10-10.93,18.95-22.68,27.77-34.52a494.38,494.38,0,0,0,42.45-67.94,383.77,383.77,0,0,0,18.49-41.58C294.75,426.86,297.92,420.31,298.71,413Z" transform="translate(-187.69 -263.74)" fill="#da8657"/><path d="M298.71,413c-.79,7.28-4,13.83-6.48,20.55a383.77,383.77,0,0,1-18.49,41.58,494.38,494.38,0,0,1-42.45,67.94c-8.82,11.84-17.79,23.59-27.77,34.52-1.5,1.64-2.4,3.83-4.45,5,0-5.23,0-10.46-.17-15.69-.07-1.9,1-3,2.08-4.15a480.84,480.84,0,0,0,52.63-67.88c15.33-24.17,28.21-49.53,37.09-76.8C292.41,412.83,292.52,412.79,298.71,413Z" transform="translate(-187.69 -263.74)" fill="#c86b35"/><path d="M281.43,284.18c17.83,8.53,31.35,21,35.66,41,3.5,16.26.16,31.9-6.14,47a8.56,8.56,0,0,1-1.05-3.54c.19-5-.68-9.84-1.49-14.71-3.35-20.23-10.47-39.12-20.32-57.07C285.79,292.72,282.41,289.06,281.43,284.18Z" transform="translate(-187.69 -263.74)" fill="#00f0a5"/><path d="M281.43,284.18c1,4.88,4.36,8.54,6.66,12.72,9.85,18,17,36.84,20.32,57.07.81,4.87,1.68,9.74,1.49,14.71a8.56,8.56,0,0,0,1.05,3.54c-.26.6-.54,2.06-1,1.49-2-2.25-5.67-2.8-6.2-6.48-4.85-34-20-63.08-42.69-88.57-.56-.63-1.37-1.14-1.33-2.15l-.05,0C267.41,277.65,274.46,280.81,281.43,284.18Z" transform="translate(-187.69 -263.74)" fill="#00df9a"/><path d="M418.07,547.22c.32,3.12,2.91,4.77,4.7,6.84a195.25,195.25,0,0,1,25.12,36.05,18.56,18.56,0,0,1,.82,2.07c-8.93,2.92-19.34-.49-24.5-8.12A186.1,186.1,0,0,0,403.07,558c-1.78-1.83-2.11-2.67.71-3.6a29.08,29.08,0,0,0,9.79-6.07c.82-.7,1.39-1.85,2.76-1.65a1.34,1.34,0,0,0,1.69.66Z" transform="translate(-187.69 -263.74)" fill="#1ca6fc"/><path d="M414.13,388.86c-10.12-2.56-20.22-5.12-30.64-6.34a142.41,142.41,0,0,0-43.13,1.25c-2.86.54-4.48-.07-5.75-2.41,10.39-7.82,22.08-12.47,35.08-12.69,15-.25,28,5.64,39.55,14.93C411.07,385.08,413.86,385.86,414.13,388.86Z" transform="translate(-187.69 -263.74)" fill="#00f0a5"/><path d="M414.13,388.86c-.27-3-3.06-3.78-4.89-5.26-11.52-9.29-24.54-15.18-39.55-14.93-13,.22-24.69,4.87-35.08,12.69-5.4-4.25-5.42-4.27.06-8.26,9.1-6.61,18.9-11.53,30.28-12.87,10.54-1.24,20.32,1,29.58,6,11.46,6.1,20.39,15,28.75,25.58A39.82,39.82,0,0,1,414.13,388.86Z" transform="translate(-187.69 -263.74)" fill="#00df9a"/><path d="M341.23,402.94c.16-1.35-.48-3.12,2.08-2.92,15.75,1.23,30.16,5.44,40.38,18.53,6.36,8.15,9.55,17.58,10.3,27.85-1.59,0-2.29-1.17-3.16-2.28-2.58-3.31-5.09-6.71-8-9.77C370.82,421.48,357.15,410.71,341.23,402.94Z" transform="translate(-187.69 -263.74)" fill="#00f0a5"/><path d="M224.4,341.57c18.77-7.55,38.68-2.77,52.64,12.65a99.38,99.38,0,0,1,7.26,9.47c1.41,2,1.83,3.34-1.16,4a19.51,19.51,0,0,0-3.11,1.23,5.78,5.78,0,0,0-2.34-2.83,145.63,145.63,0,0,0-44.24-21.49C230.4,343.71,227.13,343.44,224.4,341.57Z" transform="translate(-187.69 -263.74)" fill="#00f0a5"/><path d="M454.44,602.45a218.56,218.56,0,0,1,12.18,33.14c-5.23,0-10.45,0-15.68.14-1.34,0-2.35-.08-2.83-1.64a192.24,192.24,0,0,0-12.12-30C442.68,604.77,448.67,604.46,454.44,602.45Z" transform="translate(-187.69 -263.74)" fill="#5fb7fc"/><path d="M224.4,341.57c2.73,1.87,6,2.14,9,3a145.63,145.63,0,0,1,44.24,21.49,5.78,5.78,0,0,1,2.34,2.83c-1.16,1.17-2.29,1.63-3.94.65-21.61-12.82-45.26-18.19-70.14-19-.06,0-.12-.16-.36-.48C211.63,346.63,217.62,343.27,224.4,341.57Z" transform="translate(-187.69 -263.74)" fill="#00df9a"/><path d="M341.23,402.94c15.92,7.77,29.59,18.54,41.64,31.41,2.87,3.06,5.38,6.46,8,9.77.87,1.11,1.57,2.26,3.16,2.28,1.3,5.75.61,11.55.08,17.56-1.48-2.49-2.94-5-4.44-7.46-12-19.82-27.43-36.31-47.57-48.09C339,406.61,340.58,404.89,341.23,402.94Z" transform="translate(-187.69 -263.74)" fill="#00df9a"/><path d="M219.16,602.86l.06,32.73c-5.1,0-10.21.12-15.31.1-3.14,0-4.7-1.68-5-4.82-.43-4.66.49-8.36,4.37-11.76C209,614.13,213.91,608.32,219.16,602.86Z" transform="translate(-187.69 -263.74)" fill="#fdc164"/><path d="M327.79,419.94c1.14-1,2.07-1.44,3.35.07,15.45,18.15,15.75,38.22,2.24,56.61-.2.27-.63.39-.95.57.4-6.54,1.22-13.09,1.12-19.63C333.36,444.79,332.16,432.11,327.79,419.94Z" transform="translate(-187.69 -263.74)" fill="#00f0a5"/><path d="M222.88,419,217,424.05h.07c-.5-2.78,1.12-5,2.07-7.35,4-9.71,9.45-18.3,18.13-24.56s18.36-7.85,28.71-7.05c1.74.14,2.47.8,2.12,2.6a28.53,28.53,0,0,0-.23,3.34c-18.23-.89-32,6.86-42.14,21.67C224.48,414.56,222.74,416.39,222.88,419Z" transform="translate(-187.69 -263.74)" fill="#00df9a"/><path d="M327.79,419.94c4.37,12.17,5.57,24.85,5.76,37.62.1,6.54-.72,13.09-1.12,19.63-1.77,4.4-5.54,7.15-9.19,11.48a179.8,179.8,0,0,0,4.18-27.75,110.2,110.2,0,0,0-3.18-34.72C323.25,422.48,323.54,420.31,327.79,419.94Z" transform="translate(-187.69 -263.74)" fill="#00df9a"/><path d="M219.24,523.65c-6,8.44-12.92,16-20.3,24.64,0-5.54-.05-10.26,0-15,.18-12.62-2-11.07,11.47-15.32,2.84-.89,5.75-1.55,8.62-2.31C219.11,518.33,219.17,521,219.24,523.65Z" transform="translate(-187.69 -263.74)" fill="#fdc164"/><path d="M222.88,419c-.14-2.59,1.6-4.42,2.87-6.29,10.09-14.81,23.91-22.56,42.14-21.67,1.65,3.76.22,5.1-3.64,6.25A123.18,123.18,0,0,0,226,416.88C225,417.62,223.9,418.28,222.88,419Z" transform="translate(-187.69 -263.74)" fill="#00f0a5"/><path d="M314.28,398.46c.7-3.39,1.92-6.73,1.51-10.26-.26-2.25,1-2.38,2.68-2.36,6,.06,11.48,5.54,11.71,11.83.24,7-4.47,12.29-11.26,12.72C316.62,406.71,315.51,402.56,314.28,398.46Z" transform="translate(-187.69 -263.74)" fill="#8f818f"/><path d="M293.42,377.57a12.07,12.07,0,0,1,11.07,11.9c.18,6.19-4.33,11.29-11,12.49-1.26-3.71-3.62-6.92-3.91-11.11C289.19,385.8,291.35,381.76,293.42,377.57Z" transform="translate(-187.69 -263.74)" fill="#8f818f"/><path d="M293.42,377.57c-2.07,4.19-4.23,8.23-3.88,13.28.29,4.19,2.65,7.4,3.91,11.11-5.5.92-9.53-1.5-12.29-5.93s-2.57-9.34.6-13.67C284.59,378.5,288.47,376.59,293.42,377.57Z" transform="translate(-187.69 -263.74)" fill="#786a76"/><path d="M314.28,398.46c1.23,4.1,2.34,8.25,4.64,11.93a10.29,10.29,0,0,1-4.81-.13c-5.05-1.25-5.63-2.85-2.71-7.05C312.45,401.69,313.32,400.05,314.28,398.46Z" transform="translate(-187.69 -263.74)" fill="#786a76"/><path d="M219.24,523.65c-.07-2.66-.13-5.32-.2-8l8.35-2.18Z" transform="translate(-187.69 -263.74)" fill="#fedca7"/><path d="M418,547.29a1.34,1.34,0,0,1-1.69-.66C417.06,546.43,417.68,546.5,418,547.29Z" transform="translate(-187.69 -263.74)" fill="#5fb7fc"/><path d="M259.69,276.51l-.54-.32.3-.17c.07.18.13.36.19.53Z" transform="translate(-187.69 -263.74)" fill="#00df9a"/><polygon points="29.33 160.31 29.23 160.29 29.39 160.3 29.33 160.31" fill="#00df9a"/><path d="M350.13,428.69c-.36-.28-.63-.59-.15-1a6.08,6.08,0,0,1,.58.56Z" transform="translate(-187.69 -263.74)" fill="#fdfdfd"/><path d="M500.37,432.87c-8.85,7.17-14.21,16.1-14.29,27.8-.09,12.12,5,21.53,14.67,28.67a28.07,28.07,0,0,1-29.41-11.78c-6.86-10.28-7.14-21-.81-31.68a28.82,28.82,0,0,1,28.83-13.45A4.24,4.24,0,0,1,500.37,432.87Z" transform="translate(-187.69 -263.74)" fill="#fca70f"/></svg>