<svg id="Capa_1" data-name="Capa 1" xmlns="http://www.w3.org/2000/svg" viewBox="0 0 383.84 344.54"><path d="M183.09,815.29a37.12,37.12,0,0,1,5-5.89c11.41-11.34,22.8-22.71,34.52-34.39-3.84-1.61-7.38-3-10.82-4.57-4.73-2.2-9.47-4.43-14.06-6.91-5.44-2.95-6.19-8.2-2-12.71.42-.46.88-.88,1.32-1.32q118.18-118,236.39-235.92c22-22,54.14-25.85,79.47-9.52a61.39,61.39,0,0,1,27.78,40.44,8.46,8.46,0,0,0,2.45,4.46q10.13,10,20.16,20.08c1.24,1.25,2.43,2.54,3.64,3.81v5.24c-2.21,4-5.57,5.6-10.16,5.27-3.73-.28-7.51.12-11.24-.12-2.69-.17-3.61.45-3.53,3.38.22,9.1.1,18.21.07,27.31a153.45,153.45,0,0,1-8.37,50.25c-2,5.79-4.85,7.4-10.82,6.2-4.61-3.6-5.24-5.6-3.28-11.3A138.91,138.91,0,0,0,527.06,614c0-18.58,0-37.16,0-55.74a46.47,46.47,0,0,0-1-10.41c-4.19-18.39-15.16-31.07-33.25-36.53-17.94-5.41-34.18-1.28-47.63,11.84-15.91,15.52-31.44,31.41-47.28,47-2.4,2.36-2.28,3.63-.23,6.14C420.28,604,428.79,635.79,423.48,671c-4.62,30.63-20,55.43-43.64,75.22-.88.74-2.2,1.16-2.5,2.89,11.83.23,23.52.33,35.12-1.45a133.58,133.58,0,0,0,70-33c4.39-3.91,6.76-4,11.73-1.08,3.3,5.32,2.88,8.14-1.81,12.33a151.39,151.39,0,0,1-30.61,21.24c-.78.4-1.84.53-2.29,2h3.86c30.95,0,61.89.07,92.83-.08,4.55,0,8.16,1,10.72,4.82v5.24c-2.47,4-6.09,5.08-10.67,5.06-31.85-.13-63.69-.07-95.54-.05-1.25,0-2.62-.35-4.07.58,3.41,3.35,6.92,6.23,9.72,9.69,4.08,5,8.87,6.62,15.43,6.59,16.23,0,27.92,8,34.9,22.57,4.43,9.28,3.44,19.24,2.95,29-.17,3.37-3.44,5.69-7.24,5.77a142.34,142.34,0,0,1-14.61-.12,37.64,37.64,0,0,1-27.72-15c-6.48-8.32-8.32-17.93-7.84-28.14a7.78,7.78,0,0,0-2.64-6.52q-11.16-10.8-22-21.94a7.76,7.76,0,0,0-6.19-2.57q-37.08.12-74.18,0a14.74,14.74,0,0,0-7.1,1.79,152,152,0,0,1-43.23,15,9.26,9.26,0,0,0-5.12,2.75Q282.52,803,263.13,822.27C252.88,832.45,240.54,838,226,838.53c-17,.57-31.34-5.56-42.95-18Zm227-163.43a127.44,127.44,0,0,0-2.1-20.29,102.66,102.66,0,0,0-21.49-45.45c-.64-.77-1-2.2-2.41-1.91-2.55.54-6.3,6.94-5.89,9.79,4.16,29-1,56.48-17.32,80.72-29.29,43.47-71.64,64.79-123.38,67.73-9.14.52-16.19,2.17-21.86,9.5-2,2.58-1.9,3.07.94,4.37,52.78,24.09,117.8,13,159.75-27.07C398.39,708.14,409.53,682.42,410.08,651.86ZM240.85,727.28c2.07,1.27,3.91-.07,5.77-.27a143.66,143.66,0,0,0,65.95-24.32c25.86-17.58,44-40.61,50-71.93A94.53,94.53,0,0,0,364.18,604Zm-39,89.64c15.12,10.09,35.43,8.77,48.52-3.39,9.31-8.66,18.11-17.87,27.13-26.84.74-.73,1.42-1.53,2.72-2.93-5.08,0-9.29.17-13.49,0s-8.42-1-12.65-1.25c-5.28-.31-10.89-4-15.52-1.64s-8,7.4-11.84,11.27Zm303.05,2c-.39-14-11.28-23.86-25.34-23.13-1.7.09-2.32.46-2.44,2.3a23.67,23.67,0,0,0,23.25,25.41C505.05,823.59,505.05,823.59,504.92,818.9Z" transform="translate(-183.09 -494.03)" fill="#030303"/><path d="M506.42,699.69c-4,4.71-7.59,9.74-12.19,13.91-5-3-7.34-2.83-11.73,1.08a133.58,133.58,0,0,1-70,33c-11.6,1.78-23.29,1.68-35.12,1.45.3-1.73,1.62-2.15,2.5-2.89,23.69-19.79,39-44.59,43.64-75.22,5.31-35.2-3.2-67-25.78-94.75-2.05-2.51-2.17-3.78.23-6.14,15.84-15.58,31.37-31.47,47.28-47,13.45-13.12,29.69-17.25,47.63-11.84,18.09,5.46,29.06,18.14,33.25,36.53a46.47,46.47,0,0,1,1,10.41c0,18.58,0,37.16,0,55.74a138.91,138.91,0,0,1-7.46,45.13c-2,5.7-1.33,7.7,3.28,11.3-1.78,6-5.45,11.1-7.89,16.78-4.57-1.85-8-1.21-10.28,2C502.29,692.43,502.83,695.82,506.42,699.69ZM496.47,563a7.53,7.53,0,0,0-7.42-7.35,7.64,7.64,0,0,0-7.55,7.63,7.53,7.53,0,0,0,7.45,7.3A7.43,7.43,0,0,0,496.47,563Z" transform="translate(-183.09 -494.03)" fill="#fdcc68"/><path d="M410.08,651.86c-.55,30.56-11.69,56.28-33.76,77.39-41.95,40.11-107,51.16-159.75,27.07-2.84-1.3-2.93-1.79-.94-4.37,5.67-7.33,12.72-9,21.86-9.5,51.74-2.94,94.09-24.26,123.38-67.73C377.22,650.48,382.35,623,378.19,594c-.41-2.85,3.34-9.25,5.89-9.79,1.39-.29,1.77,1.14,2.41,1.91A102.66,102.66,0,0,1,408,631.57,127.44,127.44,0,0,1,410.08,651.86Z" transform="translate(-183.09 -494.03)" fill="#7fb4fd"/><path d="M240.85,727.28,364.18,604a94.53,94.53,0,0,1-1.57,26.72c-6.07,31.32-24.18,54.35-50,71.93A143.66,143.66,0,0,1,246.62,727C244.76,727.21,242.92,728.55,240.85,727.28Z" transform="translate(-183.09 -494.03)" fill="#9fc6fd"/><path d="M201.87,816.92l24.87-24.83c3.88-3.87,7.18-8.93,11.84-11.27s10.24,1.33,15.52,1.64c4.23.25,8.43,1,12.65,1.25s8.41,0,13.49,0c-1.3,1.4-2,2.2-2.72,2.93-9,9-17.82,18.18-27.13,26.84C237.3,825.69,217,827,201.87,816.92Z" transform="translate(-183.09 -494.03)" fill="#fd7c96"/><path d="M504.92,818.9c.13,4.69.13,4.69-4.53,4.58a23.67,23.67,0,0,1-23.25-25.41c.12-1.84.74-2.21,2.44-2.3C493.64,795,504.53,804.92,504.92,818.9Z" transform="translate(-183.09 -494.03)" fill="#86da8c"/><path d="M506.42,699.69c-3.59-3.87-4.13-7.26-1.71-10.58,2.31-3.16,5.71-3.8,10.28-2,3.58,3.74,4.21,7.12,1.92,10.48S511.31,701.67,506.42,699.69Z" transform="translate(-183.09 -494.03)" fill="#060504"/><path d="M496.47,563a7.43,7.43,0,0,1-7.52,7.58,7.53,7.53,0,0,1-7.45-7.3,7.64,7.64,0,0,1,7.55-7.63A7.53,7.53,0,0,1,496.47,563Z" transform="translate(-183.09 -494.03)" fill="#070503"/></svg>