<svg id="Capa_1" data-name="Capa 1" xmlns="http://www.w3.org/2000/svg" viewBox="0 0 280.93 383.08"><path d="M394.33,794.83c-1.76-1.62-4.14-1.32-6.21-1.94-21.41-6.45-35.34-24.8-36.5-47.75-.8-15.65,3.38-30.32,8.2-44.88,1.39-4.2,4.84-6,9.87-5.65,12.32,1,24.63,2.08,36.94,3.15,10.94,1,21.88,2,32.83,2.85,8.94.74,11,2.58,12.25,11.33,2.31,16.41,3.37,32.81-2.43,48.76-6.77,18.61-20,29.83-39.64,33.38-.51.09-1,.14-1.07.75Zm-17.94-78.24c7.95.79,15.89,1.62,23.83,2.36,13,1.21,26.1,2.35,39.15,3.55,1.21.11,2.31.41,2.08-1.46-.31-2.47-.58-4.95-.83-7.43-.15-1.45-1.08-1.71-2.33-1.81q-29.85-2.52-59.68-5.09c-9.31-1-9.24-.94-11.14,6.57-.56,2.2.09,2.92,2.25,2.93S374.17,716.46,376.39,716.59Zm-3.79,32.67c-.62-.09-1.23-.2-1.85-.28-8.32-1.08-8.71-.49-5.8,7.68a2.9,2.9,0,0,0,3.24,2.29c1.73,0,3.47.16,5.21.26,1.1.15,2.21.35,3.32.45,18.28,1.61,36.57,3.11,54.84,4.91,2.93.28,4.46-.4,5.36-3a22.18,22.18,0,0,1,1.33-3.08c1.46-2.77.65-3.74-2.45-4-11.71-.87-23.4-2-35.09-3-4-.36-6.36-2.76-6-6.1s3-5.39,7-5.06c11.94,1,23.9,1.88,35.81,3.24,3.58.41,4.69-.59,4.65-3.81a10.42,10.42,0,0,1,.12-2.24c.52-2.66-.46-3.65-3.24-3.89-21.89-1.86-43.77-3.87-65.65-5.84a31.29,31.29,0,0,1-5.51-.6c-3.44-1-4.2.5-4.42,3.62-.44,6-.61,6,5.49,6.69,1.22.14,2.45.16,3.68.24,5,.69,7.12,2.55,7,6S377.28,749,372.6,749.26Zm52.66,25.91-51.43-4.5C384.53,785.44,411.88,787.76,425.26,775.17Z" transform="translate(-197.43 -411.75)" fill="#030303"/><path d="M400.54,674.41c-1.53,4.19-3.26,5.27-7.55,4.87-7.2-.67-14.41-1.33-21.63-1.91-6.35-.52-9.7-3.93-10-10.27-1.41-29-3-58-4.19-87a151.82,151.82,0,0,1,6.47-51.66c8-25.73,33.68-42.65,60.52-40.3,27.47,2.41,50,23.46,53.23,50.36,2.47,20.51.1,40.72-4.65,60.77-5.85,24.68-11.32,49.45-16.92,74.19-1.95,8.63-4.81,10.79-13.55,10-6.71-.59-13.42-1.2-20.14-1.65-3.93-.26-6.32-2-6.83-6,1.6-4.65,2.78-5.52,7.64-5.23q6.17.36,12.32,1c9.49,1,9.4,1,11.35-8,.51-2.37-.33-2.68-2.33-2.79-4-.23-7.95-.74-11.93-1.07l-51.48-4.27c-2.25-.9-4.66-.35-7-.73-1.18-.19-1.72.2-1.87,1.55-1,9.27.17,10.64,9.59,10.51,4.21.45,8.42.86,12.63,1.36C398.8,668.69,399.92,669.85,400.54,674.41Zm-20.45-41.89c-2.32-.28-4.65-.53-7-.85-1.59-.22-2.05.33-2.12,2-.41,9.88-.46,9.88,9.45,10.16a2.33,2.33,0,0,0,.37,0c1.59.21,3.18.49,4.78.63,18.63,1.63,37.27,3.16,55.89,4.92,8.18.77,8,.94,9.95-7.07.73-3-.11-3.53-2.8-3.74-10.31-.83-20.61-1.89-30.91-2.8C405.18,634.62,392.63,633.58,380.09,632.52Zm-.74-22.62c-2.49-1-5.16-.42-7.72-.81-1.57-.24-1.78.62-1.8,2-.16,9.11-.19,9.11,8.81,9.92a3.81,3.81,0,0,0,.74-.08c22.58,2.1,45.16,4.26,67.74,6.27,7.66.69,7.54.5,9.4-7.12.74-3-.12-3.79-3-4-10.68-.79-21.35-1.84-32-2.73C407.42,612.15,393.38,611,379.35,609.9Zm4.52-79.43c7.32.69,14.65,1.41,22,2.08q28.9,2.69,57.8,5.32c.79.08,2.05.53,1.92-.87a27,27,0,0,0-3.12-9.91c-1-2-3.34-1.3-5.09-1.47-11.18-1.07-22.38-2-33.57-3-12.31-1-24.62-2-36.93-3-2.85-.11-5.77-1.9-8,2C374.19,529.93,374.17,530.15,383.87,530.47Zm-5.34,67.67a11.52,11.52,0,0,0,1.8.44c23.88,2.08,47.76,4.18,71.64,6.17,7.95.67,7.89.52,9.67-7.33.53-2.34.12-3.13-2.48-3.35-15.18-1.27-30.34-2.8-45.51-4.16-11.93-1.07-23.87-2-35.81-3-2.35-.28-4.7-.55-7-.84-1.33-.16-1.91.15-2,1.75-.73,9.45-.27,10.05,9,10.45A4.82,4.82,0,0,0,378.53,598.14Zm.83-45.22q39.88,3.5,79.78,7c2.53.21,5.9,2,7.4.09,1.29-1.65.26-5,.52-7.6s-.76-3.1-3.08-3.29c-11.31-.93-22.61-2.09-33.92-3.08-16.4-1.45-32.8-2.83-49.2-4.23-1.63-.84-3.47-.25-5.11-.71-3.48-1-4.15,1-4.62,3.75-1.29,7.39-1.35,7.38,6.38,8.15A16.35,16.35,0,0,0,379.36,552.92Zm-1.49,22.45,77.07,7c3,.27,6.53,1.6,8.79.44,2.7-1.37,1.34-5.58,2.18-8.45.7-2.37-.48-2.61-2.4-2.77-16.14-1.37-32.28-2.86-48.42-4.25-12.42-1.06-24.84-2-37.26-3-2.38-.93-4.91-.59-7.37-.8-.61-.06-1.52-.15-1.57.55-.27,3.2-.95,6.54-.34,9.6.44,2.21,3.44.86,5.25,1.3A26.1,26.1,0,0,0,377.87,575.37Zm75.39-61.32c-15.77-18.38-47.05-18.85-61.08-5.35Z" transform="translate(-197.43 -411.75)" fill="#030303"/><path d="M252.92,416.84c1.66-4.44,3-5.32,7.85-5,25.38,1.45,47.18,20.27,53.38,45.58,5,20.46,5.5,41.13,4.25,62-1.41,23.4-2.41,46.82-3.5,70.23-.37,7.84-3.26,10.8-11.18,11.48q-35.84,3.06-71.65,6.28c-5.74.51-9.72-2.06-11-7.73-7-30.45-14.26-60.82-20.52-91.41C197,490.86,196,473,200.26,455.53c4-16.28,13.88-28.45,28.55-36.67,4.06-2.28,5.85-2,9.26,1.29,1.25,4-.12,6.72-3.81,8.57a42.15,42.15,0,0,0-11.66,9L285,432.35A46.75,46.75,0,0,0,260.24,423C255.12,422.58,254,421.69,252.92,416.84ZM238.43,584c-2.48.18-5,.37-7.42.53-.91.06-1.56.14-1.63,1.41-.43,7.82,2.56,10.65,10.2,9.5a6.86,6.86,0,0,0,1-.36c.75,0,1.5.06,2.24,0,17.39-1.5,34.78-3.05,52.17-4.49,8.33-.7,8.21-.62,9-8.59.3-2.91-.17-3.88-3.4-3.58C279.91,580.42,259.16,582.19,238.43,584Zm-4.77-11q31.86-2.74,63.72-5.51c7.53-.66,7.28-.7,7.83-8.23.28-3.88-1.19-4.1-4.35-3.77-13.14,1.34-26.32,2.43-39.47,3.69-9.42.9-18.83,1.91-28.25,2.88-1,0-2,0-2.95,0-6.16.29-6.16.3-4.77,6.26C226.73,574,226.73,574,233.66,573Zm-2-22.35c22.09-2,44.19-3.92,66.27-5.95,7.75-.71,7.56-.82,8.38-8.45.36-3.26-.7-3.68-3.57-3.41-15.51,1.43-31,2.68-46.56,4.07-9.17.81-18.34,1.77-27.51,2.67-1.74,0-3.48,0-5.21.15-4.54.28-4.54.29-3.5,4.69,1.64,7,1.64,7,8.74,6.51C229.65,550.89,230.64,550.77,231.62,550.67Zm-13.1-89.73c25.36-2.26,50.72-4.48,76.07-6.82,7.14-.66,7-.78,3.56-7.2-1.64-3-3.41-4.33-7.23-4-23.48,2.31-47,4.26-70.49,6.33-3.29.08-6.51-.35-7.88,4.1C209.72,462.56,209.31,461.73,218.52,460.94ZM212.15,484q43.41-3.7,86.83-7.43c7.9-.69,7.84-.81,5.78-9.5-.44-1.89-1-2.67-3.15-2.43-6.07.69-12.17,1.11-18.26,1.67l-65.18,6.07c-9.15,0-9.15,0-9,8.93a2.41,2.41,0,0,1,0,.38C208.78,484.27,210,484.8,212.15,484Zm7.52,10.83c-2.72.19-5.43.38-8.15.6-.73.06-1.59.11-1.43,1.19.51,3.28.09,7.32,1.89,9.6,1.49,1.9,5.54.44,8.42-.26,8.81-.73,17.62-1.53,26.44-2.18,4.24-.32,7,1.86,7.14,5.31.12,3.25-2.33,5.5-6.37,5.89l-24.19,2.33c-2.48.2-5,.49-7.44.56-1.58.05-1.75.7-1.61,2.08.86,8.58,1.33,9,9.79,8.52.75,0,1.49-.14,2.23-.22q36.33-3.16,72.65-6.36c8.15-.73,7.94-.85,8.4-8.84.2-3.4-1.19-3.52-3.79-3.25-9.18,1-18.37,1.78-27.56,2.65-4,.38-6.74-1.5-7.09-4.88s1.64-5.83,5.77-6.24c8.31-.83,16.64-1.5,25-2.27,8.68-.81,8.57-.82,7.88-9.47-.18-2.31-1.06-2.56-3-2.36-5.59.58-11.18,1-16.77,1.51Z" transform="translate(-197.43 -411.75)" fill="#030303"/><path d="M324.63,661.72c.08,23.35-7.71,40.19-26.45,50.57-29.65,16.42-65.5-.75-73.3-34.5-3.58-15.44-1.94-30.73.14-46.06.52-3.8,3.61-6.48,7.82-6.92,10.18-1,20.38-1.89,30.58-2.79,13.43-1.2,26.87-2.31,40.29-3.59,8.7-.82,11.53,1,14,9.19C321.17,639.57,324.94,651.47,324.63,661.72Zm-68.22,36.72a11.48,11.48,0,0,0-5.5.91c2.71,1.83,4.88,3.6,7.7,4.25a31.74,31.74,0,0,0,17.6,3.59c10.33-.59,19.09-4.63,26.88-12.89Zm-8.25-10.72c18.87-1.59,37.75-3.12,56.61-4.82,6.38-.58,6.26-.8,7.68-7,.7-3,.17-4.13-3.3-3.77-11.4,1.19-22.84,2.05-34.26,3.1-9.68.88-19.34,1.85-29,2.79-2.34.1-4.69.18-7,.33-1.21.07-2,.24-1.55,2,1.68,6.94,3.29,8.24,10.13,7.49A6.36,6.36,0,0,0,248.16,687.72Zm-3.71-52.6c-2.23.13-4.46.3-6.7.36-1.34,0-1.92.63-2.22,1.95-1.93,8.32-1,9.39,7.35,8.31a2.87,2.87,0,0,0,.68-.28c19.6-1.75,39.2-3.45,58.79-5.29,7.08-.66,6.95-.79,5-7.77-.67-2.46-1.71-2.95-4.16-2.66-7.05.83-14.14,1.31-21.21,2Q263.23,633.39,244.45,635.12Zm-1.56,22c-10.61.4-9.29-.72-8.58,8.36.15,1.87,1,2.21,2.66,2,2.46-.36,4.94-.54,7.41-.79s4.72-.35,7.08-.55c18.39-1.59,36.79-3.12,55.18-4.83,6.85-.63,6.74-.81,6-7.72-.25-2.36-.89-3.07-3.46-2.8-12.41,1.29-24.85,2.28-37.27,3.45C262.23,655.14,252.56,656.16,242.89,657.14Z" transform="translate(-197.43 -411.75)" fill="#030303"/><path d="M380.86,655.45l51.48,4.27c4,.33,7.94.84,11.93,1.07,2,.11,2.84.42,2.33,2.79-2,9.1-1.86,9.08-11.35,8q-6.15-.66-12.32-1c-4.86-.29-6,.58-7.64,5.23a96.07,96.07,0,0,0-14.75-1.44c-.62-4.56-1.74-5.72-6.31-6.27-4.21-.5-8.42-.91-12.63-1.36C381.44,663,382,659.17,380.86,655.45Z" transform="translate(-197.43 -411.75)" fill="#b1ced3"/><path d="M252.92,416.84c1.05,4.85,2.2,5.74,7.32,6.18A46.75,46.75,0,0,1,285,432.35l-62.39,5.42a42.15,42.15,0,0,1,11.66-9c3.69-1.85,5.06-4.59,3.81-8.57C242.74,417.79,247.81,417.23,252.92,416.84Z" transform="translate(-197.43 -411.75)" fill="#b1ced2"/><path d="M373.38,727.79c21.88,2,43.76,4,65.65,5.84,2.78.24,3.76,1.23,3.24,3.89a10.42,10.42,0,0,0-.12,2.24c0,3.22-1.07,4.22-4.65,3.81-11.91-1.36-23.87-2.24-35.81-3.24-4-.33-6.7,1.72-7,5.06s2,5.74,6,6.1c11.69,1,23.38,2.13,35.09,3,3.1.24,3.91,1.21,2.45,4a22.18,22.18,0,0,0-1.33,3.08c-.9,2.62-2.43,3.3-5.36,3-18.27-1.8-36.56-3.3-54.84-4.91-1.11-.1-2.22-.3-3.32-.45a33.65,33.65,0,0,1-.8-10c4.68-.29,6.92-2,7-5.48s-2.05-5.35-7-6C372.51,734.4,372.37,731.05,373.38,727.79Z" transform="translate(-197.43 -411.75)" fill="#b0ced3"/><path d="M378.61,706.71q29.83,2.55,59.68,5.09c1.25.1,2.18.36,2.33,1.81.25,2.48.52,5,.83,7.43.23,1.87-.87,1.57-2.08,1.46-13.05-1.2-26.1-2.34-39.15-3.55-7.94-.74-15.88-1.57-23.83-2.36C376.13,713.08,378,710,378.61,706.71Z" transform="translate(-197.43 -411.75)" fill="#b0cdd2"/><path d="M425.26,775.17c-13.38,12.59-40.73,10.27-51.43-4.5Z" transform="translate(-197.43 -411.75)" fill="#adcacf"/><path d="M373.38,727.79c-1,3.26-.87,6.61-.76,10-1.23-.08-2.46-.1-3.68-.24-6.1-.71-5.93-.71-5.49-6.69.22-3.12,1-4.6,4.42-3.62A31.29,31.29,0,0,0,373.38,727.79Z" transform="translate(-197.43 -411.75)" fill="#95b2bb"/><path d="M378.61,706.71c-.62,3.32-2.48,6.37-2.22,9.88-2.22-.13-4.45-.36-6.67-.38s-2.81-.73-2.25-2.93C369.37,705.77,369.3,705.75,378.61,706.71Z" transform="translate(-197.43 -411.75)" fill="#95b2bb"/><path d="M372.6,749.26a33.65,33.65,0,0,0,.8,10c-1.74-.1-3.48-.3-5.21-.26a2.9,2.9,0,0,1-3.24-2.29c-2.91-8.17-2.52-8.76,5.8-7.68C371.37,749.06,372,749.17,372.6,749.26Z" transform="translate(-197.43 -411.75)" fill="#97b3bd"/><path d="M377.83,564.35c12.42,1,24.84,2,37.26,3,16.14,1.39,32.28,2.88,48.42,4.25,1.92.16,3.1.4,2.4,2.77-.84,2.87.52,7.08-2.18,8.45-2.26,1.16-5.81-.17-8.79-.44l-77.07-7Z" transform="translate(-197.43 -411.75)" fill="#b0cdd2"/><path d="M380.86,541.76c16.4,1.4,32.8,2.78,49.2,4.23,11.31,1,22.61,2.15,33.92,3.08,2.32.19,3.32.84,3.08,3.29s.77,5.95-.52,7.6c-1.5,1.9-4.87.12-7.4-.09q-39.88-3.39-79.78-7A51.86,51.86,0,0,1,380.86,541.76Z" transform="translate(-197.43 -411.75)" fill="#b0ced3"/><path d="M377.84,586.87c11.94,1,23.88,2,35.81,3,15.17,1.36,30.33,2.89,45.51,4.16,2.6.22,3,1,2.48,3.35-1.78,7.85-1.72,8-9.67,7.33-23.88-2-47.76-4.09-71.64-6.17a11.52,11.52,0,0,1-1.8-.44C379,594.34,378,590.63,377.84,586.87Z" transform="translate(-197.43 -411.75)" fill="#b0cdd2"/><path d="M386.86,519.63c12.31,1,24.62,2,36.93,3,11.19.94,22.39,1.91,33.57,3,1.75.17,4.07-.48,5.09,1.47a27,27,0,0,1,3.12,9.91c.13,1.4-1.13,1-1.92.87q-28.9-2.64-57.8-5.32c-7.33-.67-14.66-1.39-22-2.08C383.66,526.52,386.37,523.38,386.86,519.63Z" transform="translate(-197.43 -411.75)" fill="#b0cdd2"/><path d="M379.35,609.9c14,1.14,28.07,2.25,42.1,3.42,10.68.89,21.35,1.94,32,2.73,2.92.22,3.78,1,3,4-1.86,7.62-1.74,7.81-9.4,7.12-22.58-2-45.16-4.17-67.74-6.27Z" transform="translate(-197.43 -411.75)" fill="#b0cdd2"/><path d="M380.09,632.52c12.54,1.06,25.09,2.1,37.63,3.2,10.3.91,20.6,2,30.91,2.8,2.69.21,3.53.77,2.8,3.74-2,8-1.77,7.84-9.95,7.07-18.62-1.76-37.26-3.29-55.89-4.92-1.6-.14-3.19-.42-4.78-.63A46.23,46.23,0,0,1,380.09,632.52Z" transform="translate(-197.43 -411.75)" fill="#b0cdd2"/><path d="M453.26,514.05l-61.08-5.35C406.21,495.2,437.49,495.67,453.26,514.05Z" transform="translate(-197.43 -411.75)" fill="#afccd1"/><path d="M377.84,586.87c.16,3.76,1.17,7.47.69,11.27a4.82,4.82,0,0,1-.74.09c-9.3-.4-9.76-1-9-10.45.12-1.6.7-1.91,2-1.75C373.14,586.32,375.49,586.59,377.84,586.87Z" transform="translate(-197.43 -411.75)" fill="#97b4be"/><path d="M377.83,564.35l0,11a26.1,26.1,0,0,1-4.07-.37c-1.81-.44-4.81.91-5.25-1.3-.61-3.06.07-6.4.34-9.6.05-.7,1-.61,1.57-.55C372.92,563.76,375.45,563.42,377.83,564.35Z" transform="translate(-197.43 -411.75)" fill="#95b2bb"/><path d="M380.09,632.52a46.23,46.23,0,0,0,.72,11.26,2.33,2.33,0,0,1-.37,0c-9.91-.28-9.86-.28-9.45-10.16.07-1.66.53-2.21,2.12-2C375.44,632,377.77,632.24,380.09,632.52Z" transform="translate(-197.43 -411.75)" fill="#97b3bd"/><path d="M380.86,655.45c1.11,3.72.58,7.55.74,11.33-9.42.13-10.63-1.24-9.59-10.51.15-1.35.69-1.74,1.87-1.55C376.2,655.1,378.61,654.55,380.86,655.45Z" transform="translate(-197.43 -411.75)" fill="#97b4be"/><path d="M380.86,541.76a51.86,51.86,0,0,0-1.5,11.16,16.35,16.35,0,0,1-1.85,0c-7.73-.77-7.67-.76-6.38-8.15.47-2.73,1.14-4.73,4.62-3.75C377.39,541.51,379.23,540.92,380.86,541.76Z" transform="translate(-197.43 -411.75)" fill="#97b4be"/><path d="M379.35,609.9l0,11a3.81,3.81,0,0,1-.74.08c-9-.81-9-.81-8.81-9.92,0-1.36.23-2.22,1.8-2C374.19,609.48,376.86,608.89,379.35,609.9Z" transform="translate(-197.43 -411.75)" fill="#97b3bd"/><path d="M386.86,519.63c-.49,3.75-3.2,6.89-3,10.84-9.7-.32-9.68-.54-5-8.8C381.09,517.73,384,519.52,386.86,519.63Z" transform="translate(-197.43 -411.75)" fill="#95b2bb"/><path d="M223.42,517.34,247.61,515c4-.39,6.49-2.64,6.37-5.89-.14-3.45-2.9-5.63-7.14-5.31-8.82.65-17.63,1.45-26.44,2.18.18-3.74-1.28-7.37-.73-11.13l68.18-6.09c5.59-.5,11.18-.93,16.77-1.51,1.93-.2,2.81.05,3,2.36.69,8.65.8,8.66-7.88,9.47-8.32.77-16.65,1.44-25,2.27-4.13.41-6.14,2.72-5.77,6.24s3.06,5.26,7.09,4.88c9.19-.87,18.38-1.69,27.56-2.65,2.6-.27,4-.15,3.79,3.25-.46,8-.25,8.11-8.4,8.84q-36.32,3.26-72.65,6.36C224.31,524.93,224.19,521.05,223.42,517.34Z" transform="translate(-197.43 -411.75)" fill="#b1ced3"/><path d="M218.17,472.41l65.18-6.07c6.09-.56,12.19-1,18.26-1.67,2.13-.24,2.71.54,3.15,2.43,2.06,8.69,2.12,8.81-5.78,9.5q-43.41,3.79-86.83,7.43c.31-.36.66-1,.93-1,5.91.73,5.28-3.22,5.07-6.92C218.08,474.87,218.16,473.64,218.17,472.41Z" transform="translate(-197.43 -411.75)" fill="#b1ced3"/><path d="M220.43,449.29c23.5-2.07,47-4,70.49-6.33,3.82-.37,5.59.94,7.23,4,3.46,6.42,3.58,6.54-3.56,7.2-25.35,2.34-50.71,4.56-76.07,6.82C219,457,219,453,220.43,449.29Z" transform="translate(-197.43 -411.75)" fill="#b1ced3"/><path d="M228.63,539.6c9.17-.9,18.34-1.86,27.51-2.67,15.52-1.39,31.05-2.64,46.56-4.07,2.87-.27,3.93.15,3.57,3.41-.82,7.63-.63,7.74-8.38,8.45-22.08,2-44.18,4-66.27,5.95C229.23,547.36,229,543.46,228.63,539.6Z" transform="translate(-197.43 -411.75)" fill="#b1ced3"/><path d="M233.14,562.08c9.42-1,18.83-2,28.25-2.88,13.15-1.26,26.33-2.35,39.47-3.69,3.16-.33,4.63-.11,4.35,3.77-.55,7.53-.3,7.57-7.83,8.23q-31.86,2.78-63.72,5.51c.88-1.12,1.76-2.06,1.11-3.84A54.57,54.57,0,0,1,233.14,562.08Z" transform="translate(-197.43 -411.75)" fill="#b1ced3"/><path d="M238.43,584c20.73-1.84,41.48-3.61,62.21-5.58,3.23-.3,3.7.67,3.4,3.58-.79,8-.67,7.89-9,8.59-17.39,1.44-34.78,3-52.17,4.49-.74.06-1.49,0-2.24,0C239.85,591.42,238.58,587.83,238.43,584Z" transform="translate(-197.43 -411.75)" fill="#b0ced3"/><path d="M228.63,539.6c.36,3.86.6,7.76,3,11.07-1,.1-2,.22-3,.28-7.1.45-7.1.45-8.74-6.51-1-4.4-1-4.41,3.5-4.69C225.15,539.64,226.89,539.65,228.63,539.6Z" transform="translate(-197.43 -411.75)" fill="#97b4be"/><path d="M219.67,494.86c-.55,3.76.91,7.39.73,11.13-2.88.7-6.93,2.16-8.42.26-1.8-2.28-1.38-6.32-1.89-9.6-.16-1.08.7-1.13,1.43-1.19C214.24,495.24,217,495.05,219.67,494.86Z" transform="translate(-197.43 -411.75)" fill="#97b4be"/><path d="M223.42,517.34c.77,3.71.89,7.59,3,10.94-.74.08-1.48.17-2.23.22-8.46.51-8.93.06-9.79-8.52-.14-1.38,0-2,1.61-2.08C218.46,517.83,220.94,517.54,223.42,517.34Z" transform="translate(-197.43 -411.75)" fill="#97b4be"/><path d="M238.43,584c.15,3.8,1.42,7.39,2.2,11.08a6.86,6.86,0,0,1-1,.36c-7.64,1.15-10.63-1.68-10.2-9.5.07-1.27.72-1.35,1.63-1.41C233.48,584.4,236,584.21,238.43,584Z" transform="translate(-197.43 -411.75)" fill="#97b3bd"/><path d="M233.14,562.08a54.57,54.57,0,0,0,1.63,7.1c.65,1.78-.23,2.72-1.11,3.84-6.93.93-6.93.93-8.24-4.67-1.39-6-1.39-6,4.77-6.26C231.17,562.05,232.16,562.08,233.14,562.08Z" transform="translate(-197.43 -411.75)" fill="#97b4be"/><path d="M218.17,472.41c0,1.23-.09,2.46,0,3.69.21,3.7.84,7.65-5.07,6.92-.27,0-.62.65-.93,1-2.2.77-3.37.24-3-2.31a2.41,2.41,0,0,0,0-.38C209,472.44,209,472.44,218.17,472.41Z" transform="translate(-197.43 -411.75)" fill="#97b4be"/><path d="M220.43,449.29C219,453,219,457,218.52,460.94c-9.21.79-8.8,1.62-6-7.55C213.92,448.94,217.14,449.37,220.43,449.29Z" transform="translate(-197.43 -411.75)" fill="#97b3bd"/><path d="M242.89,657.14c9.67-1,19.34-2,29-2.91,12.42-1.17,24.86-2.16,37.27-3.45,2.57-.27,3.21.44,3.46,2.8.74,6.91.85,7.09-6,7.72-18.39,1.71-36.79,3.24-55.18,4.83-2.36.2-4.72.37-7.08.55C242.55,663.71,242.88,660.4,242.89,657.14Z" transform="translate(-197.43 -411.75)" fill="#b1ced2"/><path d="M244.45,635.12q18.78-1.71,37.56-3.43c7.07-.64,14.16-1.12,21.21-2,2.45-.29,3.49.2,4.16,2.66,1.92,7,2.05,7.11-5,7.77-19.59,1.84-39.19,3.54-58.79,5.29C243.35,642,244.07,638.56,244.45,635.12Z" transform="translate(-197.43 -411.75)" fill="#b1ced3"/><path d="M245.88,678.05c9.67-.94,19.33-1.91,29-2.79,11.42-1,22.86-1.91,34.26-3.1,3.47-.36,4,.72,3.3,3.77-1.42,6.17-1.3,6.39-7.68,7-18.86,1.7-37.74,3.23-56.61,4.82C248.19,684.31,245.82,681.46,245.88,678.05Z" transform="translate(-197.43 -411.75)" fill="#b1ced2"/><path d="M256.41,698.44l46.68-4.14c-7.79,8.26-16.55,12.3-26.88,12.89a31.74,31.74,0,0,1-17.6-3.59C258.78,701.49,255.82,700.72,256.41,698.44Z" transform="translate(-197.43 -411.75)" fill="#afccd1"/><path d="M244.45,635.12c-.38,3.44-1.1,6.85-.89,10.34a2.87,2.87,0,0,1-.68.28c-8.37,1.08-9.28,0-7.35-8.31.3-1.32.88-1.91,2.22-1.95C240,635.42,242.22,635.25,244.45,635.12Z" transform="translate(-197.43 -411.75)" fill="#97b3bd"/><path d="M242.89,657.14c0,3.26-.34,6.57,1.49,9.54-2.47.25-4.95.43-7.41.79-1.66.24-2.51-.1-2.66-2C233.6,656.42,232.28,657.54,242.89,657.14Z" transform="translate(-197.43 -411.75)" fill="#97b3bd"/><path d="M245.88,678.05c-.06,3.41,2.31,6.26,2.28,9.67a6.36,6.36,0,0,1-.73.16c-6.84.75-8.45-.55-10.13-7.49-.42-1.77.34-1.94,1.55-2C241.19,678.23,243.54,678.15,245.88,678.05Z" transform="translate(-197.43 -411.75)" fill="#97b3bd"/><path d="M256.41,698.44c-.59,2.28,2.37,3,2.2,5.16-2.82-.65-5-2.42-7.7-4.25A11.48,11.48,0,0,1,256.41,698.44Z" transform="translate(-197.43 -411.75)" fill="#95b2bb"/></svg>