<svg id="Capa_1" data-name="Capa 1" xmlns="http://www.w3.org/2000/svg" viewBox="0 0 257.92 323.11"><path d="M251.64,641c-8.7,6.7-18.48,4.7-24.62-5.33-1.48-2.41-2.9-3.19-5.62-2.64a21.1,21.1,0,0,1-12.14-1.15c-8.6-3.41-10.11-13.27-3-19.18a23.35,23.35,0,0,1,7-4.19c2.39-.85,2.84-1.81,1.95-4.32-3.25-9.18-4.45-18.65-2.39-28.29,1-4.68,2.86-9,6.43-12.42,3.25-3.1,5.11-3.62,14.21-4.11.16-1.37-1.12-1.5-1.83-2-26.06-17.36-40.37-42-45.2-72.53-4.23-26.76.88-51.24,17.52-73,1.15-1.5.83-2.4.07-3.85-15.06-28.6.53-62.44,32-69.66a48.23,48.23,0,0,1,52.35,23.22c1.4,2.48,2.51,3.35,5.64,2.95a154.13,154.13,0,0,1,40.71.11c2.33.32,3.17-.41,4.21-2.27,9.72-17.39,29.25-27.48,47.87-24.88,20.8,2.91,36.57,16.59,41.45,36.32a46,46,0,0,1-4,33.69c-1.08,2-1.11,3.33.36,5.19,34.6,43.83,17.91,117.83-30.75,146.18l-1.59.91c1.25,1,2.46.33,3.68,0,8.21-2.06,14.41.64,18.45,8.12,4.7,8.71,4.47,18,2.76,27.32a42.89,42.89,0,0,1-2.34,8.62c-1.06,2.55-.27,3.46,2,4.28a23.26,23.26,0,0,1,7.33,4.4c6.67,5.76,5,15.4-3.15,18.78a23.75,23.75,0,0,1-13.25,1.14c-2.28-.38-3.24.08-4.26,2.09-2.17,4.33-5.27,7.86-10.05,9.52-10.26,3.58-19.32-4-17.58-14.62a24,24,0,0,1,2.52-8.16c1.27-2.24.66-3.52-1.25-4.91-2.32-1.68-4.39-3.69-6.66-5.44-.88-.67-1.52-2.45-3-1.53s-2.9,1.87-2.86,4c.11,5,.08,10,0,15a3,3,0,0,0,1.75,3,25.19,25.19,0,0,1,3.62,2.64c6,5.07,7.59,11.19,4.41,16.83a15.73,15.73,0,0,1-18.17,7.67,22.8,22.8,0,0,1-9.27-5.43c-1.75-1.66-2.78-1.74-4.75-.05-6.22,5.31-13.44,7.92-21.78,6.81-3.1-.42-5.39-3.12-8-3.52s-5,2.68-8.2,2.85c-6.05.32-10.92-2.27-15.18-6.11-1.8-1.62-2.77-1.85-4.69-.05a27.42,27.42,0,0,1-17.67,7.16c-10.73.58-18.68-8.84-14-19.06a29.82,29.82,0,0,1,10.45-9.89,3.41,3.41,0,0,0,2.11-3.47c-.14-4.1-.23-8.21,0-12.3.17-2.75-1.89-3.63-3.45-4.84-1.75-1.35-2.51.85-3.56,1.6-1.93,1.36-3.51,3.22-5.5,4.47-2.33,1.47-2.17,2.92-1.16,5.19C254.54,628.2,256,634.64,251.64,641ZM200.71,435.16c-.66.35-.69,1-.74,1.6a59.79,59.79,0,0,0-5.39,23c-1.43,9.24-.36,18.42,1.29,27.45,6.82,37.41,29,61.88,64.77,73.8,32.58,10.85,65.73,11,98.85,2.45,22.1-5.68,41.09-16.61,55.16-35,11-14.38,16.64-30.79,18.49-48.6.7-6.65,1.54-13.35.26-20a62.53,62.53,0,0,0-6-24.5c-1.9-5.54-5.17-10.34-8.27-15.24-1.73-2.74-2.86-1.92-4.09.25-1.37,1.06-2.74,2.13-4.13,3.17a48.39,48.39,0,0,1-69.23-11c-6.67-9.59-9.07-20.29-8.38-31.8a27.54,27.54,0,0,1,.62-3.65c.84-2.68.35-3.8-2.86-4.11a189.45,189.45,0,0,0-29.75-.42c-7.84.46-7.84.43-6.65,8.18,0,.87,0,1.74,0,2.61a48,48,0,0,1-57.26,49.22c-9.35-1.77-17.2-6.29-24.37-12.25-1.43-2.66-2.7-2.63-4.34,0-3,4.84-6.28,9.55-8.08,15ZM323,609.63c.06-3.86.1-7.72.16-11.58.05-3,1-5.49,4.54-5.68,2.85-.16,4.44,1.86,4.45,5.63,0,11.22,0,22.44.05,33.65a6,6,0,0,1-3.5,6,29.15,29.15,0,0,0-8.42,6.14c-1.3,1.41-2.58,3-1.7,5s2.88,2.68,5,2.67a19,19,0,0,0,14.11-5.84c5.4-5.58,8.31-5.65,14.14-.32,2.21,2,4.51,4,7.53,4.7,3.3.78,5.6-.79,7.15-3.5s-.68-4.16-2.32-5.57a25.42,25.42,0,0,0-5-3.29c-2.57-1.28-3.52-3.22-3.5-6,.07-11.22,0-22.44,0-33.65,0-4.7,1.8-6,6.67-5.26,1.87,1.27,2.06,3.46,2.84,5.8,6.34-7.55,11.08-15.35,12.54-24.82.33-1.33.6-2.66,1-4,.71-2.45.33-3.13-2.39-2.11-34.32,13-69.41,13.54-104.94,6.22-7.66-1.57-15-4.25-22.55-7.09a13.21,13.21,0,0,0,0,2.24c.38,1.82.85,3.62,1.29,5.43,1.78,10.42,7.22,18.75,14.83,26.72.37-3.27-.05-5.87,1.84-7.86,4.86-2,7.41-.35,7.43,4.92,0,11.08-.07,22.17.06,33.26a6.24,6.24,0,0,1-3.7,6.28,28.47,28.47,0,0,0-8.38,6.18c-1.16,1.3-2.41,2.72-1.64,4.66.84,2.13,2.73,2.84,4.83,2.86a18.91,18.91,0,0,0,14.18-5.67c5.72-5.77,8.45-5.86,14.4-.37,2.39,2.2,4.89,4.3,8.31,4.72,3.05.37,5.05-1.28,6.27-3.77s-.57-4-2.25-5.34a29.4,29.4,0,0,0-5-3.29,6.12,6.12,0,0,1-3.73-5.92c0-11.34,0-22.68,0-34,0-3.59,1.95-5.67,4.77-5.42,3.33.3,4.17,2.56,4.23,5.52.08,4.1-.41,8.21.29,12.29-.94,12.71-1.31,10.23,8.61,10.56.74,0,1.49,0,2.23,0,5.28-.35,5.29-.35,5.28-5.5C323.14,613.34,323.08,611.48,323,609.63ZM207.33,385.13a39.19,39.19,0,1,0,39.59-38.88A39.38,39.38,0,0,0,207.33,385.13Zm134.94,0a39.2,39.2,0,1,0,39.56-38.92A39.4,39.4,0,0,0,342.27,385.17Zm66.67,238.75a30.78,30.78,0,0,0,8.16-.25,2.72,2.72,0,0,0,2.3-1.71c.3-1.15-.68-1.8-1.47-2.39a30.7,30.7,0,0,0-9.8-4.52c-5.07-1.54-5.95-3.37-3.68-8.24A51.08,51.08,0,0,0,409,590.32c.61-6.11.6-12.26-2.79-17.77-2.34-3.82-4.6-4.68-8.78-3.27-2.59.88-5,2.17-7.57,3.21a4.78,4.78,0,0,0-3.06,3.86,58.62,58.62,0,0,1-10.88,23.55c-1.35,1.78-1.41,2.79.46,4.2,3.58,2.7,7,5.63,10.47,8.47,4.11,3.36,4.36,4.55,1.84,9.19a26.91,26.91,0,0,0-3.62,10.12c-.31,3,1.23,4.06,4,4,3.3-.11,5.37-2.21,6.62-4.82C398.55,625,403,622.44,408.94,623.92ZM230,568.31c-1.91-.32-3.69.72-5.09,2.47A18.93,18.93,0,0,0,221,581.11c-.86,9,1.1,17.56,4.85,25.75,2,4.34,1,6.48-3.5,7.87a34,34,0,0,0-9.83,4.46c-.88.62-2.11,1.23-1.77,2.57s1.57,1.6,2.63,1.83a23.93,23.93,0,0,0,7.83.09c5.74-.64,10.36.7,12.94,6.42a10.61,10.61,0,0,0,4.06,4.79c1.94,1.19,4.09,1.54,6,.31s1.46-3.18,1.07-5.08a30.15,30.15,0,0,0-3.75-8.91c-2.24-3.87-1.94-5.39,1.61-8.29,3.18-2.61,6.29-5.31,9.6-7.75,1.88-1.39,1.83-2.34.42-4.07a61.31,61.31,0,0,1-11.71-23.57C240,571.79,236.29,568.69,230,568.31Zm93.24,61.63-.32-.9c-5.25.92-10.57.62-16.63.43,3,2.39,5.26,4.13,7.43,5.95.68.56,1.19.77,1.93.2C318.12,633.71,320.66,631.83,323.19,629.94Z" transform="translate(-185.03 -337.11)" fill="#040403"/><path d="M427.4,435.23a62.53,62.53,0,0,1,6,24.5c-.56,3.8-.94,7.63-1.7,11.39-6,30-22.38,52.51-49.69,66.67-18.22,9.45-38,13.2-58.28,14.11a193.2,193.2,0,0,1-34.32-1.32c-17.34-2.33-33.85-7-49-15.88A89.26,89.26,0,0,1,208.94,504a101.88,101.88,0,0,1-14.36-44.28,59.79,59.79,0,0,1,5.39-23c.72-.31.77-.94.74-1.6l-.08.07c1.81-.7,2.23-2.56,3.25-3.92,2.89-3.84,5.1-8.24,9.17-11.1,7.17,6,15,10.48,24.37,12.25a48,48,0,0,0,57.26-49.22c0-.87,0-1.74,0-2.61a219.67,219.67,0,0,1,38.64,0c-.69,11.51,1.71,22.21,8.38,31.8a48.39,48.39,0,0,0,69.23,11c1.39-1,2.76-2.11,4.13-3.17,1.68.92,2.74,2.44,4,3.83C422.1,427.58,423.71,432.19,427.4,435.23ZM314,473.7a76.26,76.26,0,0,0,32.31-7,77.79,77.79,0,0,0,24.76-17.82c2-2.16,2.31-4.51.29-6.66s-4.47-1.68-6.56.31c-.9.86-1.76,1.77-2.65,2.65A69.06,69.06,0,0,1,263.64,443c-2.8-2.95-6.28-2.87-7.79.11-1.25,2.48-.24,4.46,1.6,6.34Q280.73,473.23,314,473.7Zm2.73-46.87c-.05,3.58,1.79,6.44,4,6.11,3.09-.48,3.77-3,3.75-5.59s-.6-5.37-3.76-5.48C317.37,421.75,317.1,424.68,316.73,426.83Zm-5.52.55c-.18-2.45-.43-5.06-3.61-5.58-2.24-.37-4.21,2.37-4.08,5.61.1,2.59.72,5.42,3.82,5.45S311,430.09,311.21,427.38Z" transform="translate(-185.03 -337.11)" fill="#8bc53f"/><path d="M362.45,592.72c-4.87-.77-6.65.56-6.67,5.26,0,11.21,0,22.43,0,33.65,0,2.79.93,4.73,3.5,6a25.42,25.42,0,0,1,5,3.29c1.64,1.41,3.85,2.88,2.32,5.57s-3.85,4.28-7.15,3.5c-3-.72-5.32-2.68-7.53-4.7-5.83-5.33-8.74-5.26-14.14.32a19,19,0,0,1-14.11,5.84c-2.1,0-4.07-.6-5-2.67s.4-3.57,1.7-5a29.15,29.15,0,0,1,8.42-6.14,6,6,0,0,0,3.5-6c-.09-11.21,0-22.43-.05-33.65,0-3.77-1.6-5.79-4.45-5.63-3.54.19-4.49,2.63-4.54,5.68-.06,3.86-.1,7.72-.16,11.58a71.45,71.45,0,0,1-16,.55c-.7-4.08-.21-8.19-.29-12.29-.06-3-.9-5.22-4.23-5.52-2.82-.25-4.75,1.83-4.77,5.42-.08,11.33,0,22.67,0,34a6.12,6.12,0,0,0,3.73,5.92,29.4,29.4,0,0,1,5,3.29c1.68,1.33,3.45,2.91,2.25,5.34s-3.22,4.14-6.27,3.77c-3.42-.42-5.92-2.52-8.31-4.72-5.95-5.49-8.68-5.4-14.4.37a18.91,18.91,0,0,1-14.18,5.67c-2.1,0-4-.73-4.83-2.86-.77-1.94.48-3.36,1.64-4.66a28.47,28.47,0,0,1,8.38-6.18,6.24,6.24,0,0,0,3.7-6.28c-.13-11.09,0-22.18-.06-33.26,0-5.27-2.57-6.92-7.43-4.92-1.52-.12-2.33-1.29-3.33-2.19-5.39-4.81-9.41-10.7-13.34-16.67-.44-1.81-.91-3.61-1.29-5.43a13.21,13.21,0,0,1,0-2.24c7.57,2.84,14.89,5.52,22.55,7.09,35.53,7.32,70.62,6.75,104.94-6.22,2.72-1,3.1-.34,2.39,2.11-.38,1.31-.65,2.64-1,4-1,.49-1.18,1.52-1.66,2.35A59.12,59.12,0,0,1,362.45,592.72Z" transform="translate(-185.03 -337.11)" fill="#8ac33e"/><path d="M207.33,385.13a39.19,39.19,0,1,1,39,39.56A39.27,39.27,0,0,1,207.33,385.13Zm48.17.41a9,9,0,0,0-18-.39,9,9,0,1,0,18,.39Z" transform="translate(-185.03 -337.11)" fill="#f0f0f0"/><path d="M342.27,385.17a39.2,39.2,0,1,1,39,39.52A39.29,39.29,0,0,1,342.27,385.17Zm48.18.27a9,9,0,0,0-18-.19,9,9,0,1,0,18,.19Z" transform="translate(-185.03 -337.11)" fill="#f0f0f0"/><path d="M194.58,459.72A101.88,101.88,0,0,0,208.94,504a89.26,89.26,0,0,0,31.48,30.7c15.14,8.9,31.65,13.55,49,15.88a193.2,193.2,0,0,0,34.32,1.32C344,551,363.79,547.24,382,537.79c27.31-14.16,43.65-36.65,49.69-66.67.76-3.76,1.14-7.59,1.7-11.39,1.28,6.7.44,13.4-.26,20-1.85,17.81-7.53,34.22-18.49,48.6-14.07,18.43-33.06,29.36-55.16,35-33.12,8.52-66.27,8.4-98.85-2.45-35.79-11.92-57.95-36.39-64.77-73.8C194.22,478.14,193.15,469,194.58,459.72Z" transform="translate(-185.03 -337.11)" fill="#59a119"/><path d="M408.94,623.92C403,622.44,398.55,625,395.66,631c-1.25,2.61-3.32,4.71-6.62,4.82-2.75.09-4.29-1-4-4a26.91,26.91,0,0,1,3.62-10.12c2.52-4.64,2.27-5.83-1.84-9.19-3.47-2.84-6.89-5.77-10.47-8.47-1.87-1.41-1.81-2.42-.46-4.2a58.62,58.62,0,0,0,10.88-23.55,4.78,4.78,0,0,1,3.06-3.86c2.54-1,5-2.33,7.57-3.21,4.18-1.41,6.44-.55,8.78,3.27,3.39,5.51,3.4,11.66,2.79,17.77a51.08,51.08,0,0,1-4.54,16.49c-2.27,4.87-1.39,6.7,3.68,8.24a30.7,30.7,0,0,1,9.8,4.52c.79.59,1.77,1.24,1.47,2.39a2.72,2.72,0,0,1-2.3,1.71A30.78,30.78,0,0,1,408.94,623.92Z" transform="translate(-185.03 -337.11)" fill="#8ac33e"/><path d="M230,568.31c6.34.38,10,3.48,11.49,9.22a61.31,61.31,0,0,0,11.71,23.57c1.41,1.73,1.46,2.68-.42,4.07-3.31,2.44-6.42,5.14-9.6,7.75-3.55,2.9-3.85,4.42-1.61,8.29a30.15,30.15,0,0,1,3.75,8.91c.39,1.9.82,3.89-1.07,5.08s-4.08.88-6-.31a10.61,10.61,0,0,1-4.06-4.79c-2.58-5.72-7.2-7.06-12.94-6.42a23.93,23.93,0,0,1-7.83-.09c-1.06-.23-2.33-.6-2.63-1.83s.89-2,1.77-2.57a34,34,0,0,1,9.83-4.46c4.54-1.39,5.48-3.53,3.5-7.87-3.75-8.19-5.71-16.7-4.85-25.75a18.93,18.93,0,0,1,3.89-10.33C226.26,569,228,568,230,568.31Z" transform="translate(-185.03 -337.11)" fill="#8ac33e"/><path d="M333.3,380.63a219.67,219.67,0,0,0-38.64,0c-1.19-7.75-1.19-7.72,6.65-8.18a189.45,189.45,0,0,1,29.75.42c3.21.31,3.7,1.43,2.86,4.11A27.54,27.54,0,0,0,333.3,380.63Z" transform="translate(-185.03 -337.11)" fill="#a8d755"/><path d="M307,610.18a71.45,71.45,0,0,0,16-.55c0,1.85.1,3.71.11,5.56,0,5.15,0,5.15-5.28,5.5-.74,0-1.49.07-2.23,0C305.72,620.41,306.09,622.89,307,610.18Z" transform="translate(-185.03 -337.11)" fill="#579b19"/><path d="M250.24,574.42c3.93,6,7.95,11.86,13.34,16.67,1,.9,1.81,2.07,3.33,2.19-1.89,2-1.47,4.59-1.84,7.86C257.46,593.17,252,584.84,250.24,574.42Z" transform="translate(-185.03 -337.11)" fill="#589e19"/><path d="M362.45,592.72a59.12,59.12,0,0,0,13.72-16.67c.48-.83.69-1.86,1.66-2.35-1.46,9.47-6.2,17.27-12.54,24.82C364.51,596.18,364.32,594,362.45,592.72Z" transform="translate(-185.03 -337.11)" fill="#589e19"/><path d="M213.05,420.21c-4.07,2.86-6.28,7.26-9.17,11.1-1,1.36-1.44,3.22-3.25,3.92,1.8-5.49,5-10.2,8.08-15C210.35,417.58,211.62,417.55,213.05,420.21Z" transform="translate(-185.03 -337.11)" fill="#a1cf51"/><path d="M427.4,435.23c-3.69-3-5.3-7.65-8.39-11.16-1.23-1.39-2.29-2.91-4-3.83,1.23-2.17,2.36-3,4.09-.25C422.23,424.89,425.5,429.69,427.4,435.23Z" transform="translate(-185.03 -337.11)" fill="#a1cf51"/><path d="M200.71,435.16c0,.66,0,1.29-.74,1.6C200,436.14,200.05,435.51,200.71,435.16Z" transform="translate(-185.03 -337.11)" fill="#a1cf51"/><path d="M314,473.7q-33.27-.46-56.55-24.25c-1.84-1.88-2.85-3.86-1.6-6.34,1.51-3,5-3.06,7.79-.11a69.06,69.06,0,0,0,98.51,2.17c.89-.88,1.75-1.79,2.65-2.65,2.09-2,4.43-2.58,6.56-.31s1.74,4.5-.29,6.66a77.79,77.79,0,0,1-24.76,17.82A76.26,76.26,0,0,1,314,473.7Z" transform="translate(-185.03 -337.11)" fill="#030401"/><path d="M316.73,426.83c.37-2.15.64-5.08,3.95-5,3.16.11,3.75,2.91,3.76,5.48s-.66,5.11-3.75,5.59C318.52,433.27,316.68,430.41,316.73,426.83Z" transform="translate(-185.03 -337.11)" fill="#050702"/><path d="M311.21,427.38c-.18,2.71-.73,5.51-3.87,5.48s-3.72-2.86-3.82-5.45c-.13-3.24,1.84-6,4.08-5.61C310.78,422.32,311,424.93,311.21,427.38Z" transform="translate(-185.03 -337.11)" fill="#050702"/><path d="M255.5,385.54a9,9,0,1,1-18-.39,9,9,0,0,1,18,.39Z" transform="translate(-185.03 -337.11)" fill="#050505"/><path d="M390.45,385.44a9,9,0,1,1-18-.19,9,9,0,0,1,18,.19Z" transform="translate(-185.03 -337.11)" fill="#050505"/></svg>