<svg id="Capa_1" data-name="Capa 1" xmlns="http://www.w3.org/2000/svg" viewBox="0 0 353.47 456.94"><path d="M337.86,259.24c-8.64-12.86-22-19.08-35.43-25.11a22.39,22.39,0,0,0-19.39.28,133.77,133.77,0,0,1-18.82,7.27l11.67,12.21-18.74,14.28c.54.37,1.08.75,1.61,1.16a60.6,60.6,0,0,0,5.18,3.46c10.18,6.25,16,15.34,18.9,26.9,1.78,7.07.24,12.46-4.8,17.33s-10.05,9.71-14.9,14.74a58.48,58.48,0,0,0-8.41,10.83l78.72-15.71q4.29-7.85,8.28-15.84C350.63,293.05,349,275.79,337.86,259.24Z" transform="translate(-204.35 -232.06)" fill="#232323"/><path d="M254.08,244.06a77.48,77.48,0,0,1-17.32,1.12c-9.74-.48-19.58.92-29.37,1.49-1.16.06-2.63-.06-3,1.3-.31,1.2.9,1.74,1.88,2.12,11.3,4.36,22.05,10.65,34.26,12a36.85,36.85,0,0,1,9.52,2.28l10.88-10.47Z" transform="translate(-204.35 -232.06)" fill="#232323"/><path d="M369.48,641.41c-12.55,1.32-24.51,5.27-36.8,8.83,2.44.31,4.87.67,7.31.93a150.82,150.82,0,0,0,40.82-.69c2.88-.47,4-1.12,1.67-4C379,642.14,374.68,640.87,369.48,641.41Z" transform="translate(-204.35 -232.06)" fill="none"/><path d="M369.48,641.41c-12.55,1.32-24.51,5.27-36.8,8.83,2.44.31,4.87.67,7.31.93l40.82-.69c2.88-.47,4-1.12,1.67-4C379,642.14,374.68,640.87,369.48,641.41Z" transform="translate(-204.35 -232.06)" fill="none"/><path d="M320.11,372.52c-5.05-6.47-4.71-14.39,1-24.09q4.42-7.47,8.69-15l-79.38,19.41a34.53,34.53,0,0,0-1.05,6.66c-.43,7.45-2,14.63-2.92,21.95a24.71,24.71,0,0,0-.11,3.1c0,.9,0,1.8.07,2.69l19.55-3.9Z" transform="translate(-204.35 -232.06)" fill="#213945"/><circle cx="91.24" cy="29.33" r="7.5" fill="#7e1c19"/><circle cx="91" cy="29.47" r="1.73"/><path d="M369.48,641.41l-36.8,8.83c2.44.31,4.87.67,7.31.93l40.82-.69c2.88-.47,4-1.12,1.67-4C379,642.14,374.68,640.87,369.48,641.41Z" transform="translate(-204.35 -232.06)" fill="#1c1c1c"/><path d="M330.18,380.37a41.68,41.68,0,0,1-4.22-2.54l-64.27,15.72-14.64,3.58c.45,5.25,1,10.49,1.4,15.74a377.1,377.1,0,0,0,8.17,55.86c3.9,17.06,10.22,33.08,17.47,48.84,13.27,28.88,32.05,54,52.84,77.82a41.24,41.24,0,0,1,6.2,8.66,35.06,35.06,0,0,0,6.3,8.83l-6.31-230.94C332.15,381.41,331.17,380.88,330.18,380.37Z" transform="translate(-204.35 -232.06)" fill="#c6c2c2"/><path d="M554,651.66a168.13,168.13,0,0,1-55.09-37.73c-4.24-4.4-7.65-8.9-9.32-14.81a385.09,385.09,0,0,0-44.45-100.95c-12.24-19.46-22.75-40-36.39-58.57-14.32-19.53-31.1-36.21-53.71-46.26-4.91-2.18-9.65-4.71-14.38-7.3l6.61,233.57c4.46,3.76,8.52,8,13.15,11.77a8.8,8.8,0,0,1-3.28.53c-12.43.61-24.54-1.82-36.69-3.89a39.1,39.1,0,0,0-13.73-.11c-1.51.28-3.57.92-3.25,3,.26,1.72,2.11,1,3.35,1.12.69,0,1.53-.16,1.77,1-1.23,2.32-3.84,2.93-5.87,4.31-1.18.8-3,1.39-2.19,3.29.7,1.69,2.17,1,3.46.58,2.46-.71,4,.82,5.18,2.55,1.34,1.93-.1,3.25-1.33,4.62-.95,1.06-2.13,2.1-1.85,3.91,3.76.42,7.41-1.58,11.24-.75-.26,2.45-6.06,4.61.26,6.74-3.61,1.62-6.89,3-10,4.54-1.31.64-2.85,1.7-2.24,3.42s2.4,1.18,3.86.92a23.17,23.17,0,0,1,4-.49c9.33,0,14.91,6.35,20.69,12.29,1.67,1.71.89,3.7-.49,5.21-1.67,1.83-1.48,3.32.29,4.83h1.78a11.85,11.85,0,0,1,7.63-4.93c7.1-1.41,13.35-4.67,19.46-8.43,6.56-4,13.11-8.21,20.08-11.45,8.36-3.89,17.81-4.07,26.69-6.26,5.22-1.29,10.66-2.66,16.29-1.7a90.37,90.37,0,0,0,21.31.94c7.7-.52,15.22-2.48,23-2.1,14.05.68,28.16-.68,42.11,2.53,9.9,2.28,19.68-.69,29.49-2,5.45-.71,11-.83,16.46-1.22A10.17,10.17,0,0,0,554,651.66Zm-173.16-1.18-40.82.69c-2.44-.26-4.87-.62-7.31-.93l36.8-8.83c5.2-.54,9.54.73,13,5C384.84,649.36,383.69,650,380.81,650.48Z" transform="translate(-204.35 -232.06)" fill="#1c1c1c"/></svg>