<svg id="Capa_1" data-name="Capa 1" xmlns="http://www.w3.org/2000/svg" viewBox="0 0 383.88 383.14"><path d="M212.79,595.62c.58-.13.67-.62.85-1.08,3.27-8.12,9.32-11.8,18.07-11.78,35.86.09,71.72,0,107.58,0,4.88,0,9.76-.16,14.62.06,2.8.12,3.95-.48,3.79-3.6-.29-5.47-.09-11-.08-16.46,0-5.71,1.69-7.43,7.32-7.45,6.5,0,13-.12,19.49,0,2.42.06,3.1-.59,3.12-3.06.07-7.72-.76-15.48.48-23.15,3.61-22.21,20.82-36.94,43.39-37.07,19.86-.1,39.73,0,59.6,0a26.92,26.92,0,0,0,4.84-.35,8.55,8.55,0,0,0,.53-16.7,17.88,17.88,0,0,0-4.44-.48c-9.62,0-19.25-.14-28.86,0-4,.07-6.48-1.34-7.21-5.37.79-3.08,2.52-5.15,5.94-5.15,11.12,0,22.26-.38,33.35.15a19,19,0,0,1,17.51,24.25c-2.39,8.74-9.92,14.07-20.12,14.1-21.23.07-42.47-.16-63.69.2-13.76.24-25.5,9.93-29.5,23.11-1.89,6.23-1.36,12.59-1.35,18.93,0,3.44-1.58,8.28.67,10s6.94.43,10.54.61c1.85.09,2.31-.61,2.28-2.36-.09-5.35,0-10.72,0-16.08,0-13.07,7.82-20.85,21-20.88,13.86,0,27.73.06,41.59,0,8,0,16,.5,24-.36a32.49,32.49,0,0,0,27.68-41.13c-4.2-14.76-16.81-23.93-33.14-23.94q-71.58-.06-143.15,0c-13.77,0-21.32-7.52-21.34-21.22,0-10.47-.08-20.94.05-31.41,0-2.31-.61-3.09-2.93-2.92a60.63,60.63,0,0,1-7.86,0c-2-.1-2.84.35-2.81,2.6.12,11.59-.12,23.19.14,34.78.34,15.34,10.9,27.78,26,30.94,6.91,1.45,13.94.51,20.92.66,3.62.09,6,1.46,6.63,5.18-.46,3.72-2.56,5.49-6.32,5.34-8.71-.34-17.47.83-26.09-1.53-17.92-4.89-31.19-21-31.64-39.52-.35-14.33-.14-28.68-.1-43,0-4,1.95-5.82,6.08-5.86,7.12-.05,14.24,0,21.36,0,5.22,0,7,1.74,7,6.93,0,12.6,0,25.19,0,37.78,0,7.93,2.89,10.79,10.86,10.79q71.6,0,143.19,0c21.11,0,38.33,12.77,43.32,31.84,7.41,28.34-13,54.31-43.1,54.54-19.87.15-39.74,0-59.6,0-8.4,0-11.27,2.86-11.27,11.19,0,5,.1,10-.05,15-.06,2.12.57,2.74,2.7,2.7,6.74-.13,13.49-.08,20.24,0,5.15,0,6.94,1.87,7,7,0,5.61.2,11.23-.07,16.83-.14,3,.89,3.64,3.75,3.63,39.73-.09,79.46.16,119.19-.21,10.79-.1,18.27,3.34,22,13.71V746.77c-1.64,1.21-2.9,3-5.22,3.1-4.17-.65-5.33-3.3-5.32-7.21q.09-70,0-139.92c0-7.5-2-9.46-9.58-9.46H232.84c-7.59,0-9.55,2-9.55,9.47V747.54c0,7.78,1.92,9.7,9.72,9.7H471.8q51,0,102,0c3.9,0,6.59,1.11,7.25,5.28,0,2.34-1.87,3.61-3.1,5.24H225.53A24.61,24.61,0,0,1,212.79,755Zm192-12.81c11.24,0,22.47-.06,33.71.05,2.3,0,3.06-.63,2.95-3-.18-3.85-.13-7.72,0-11.58.06-2-.64-2.56-2.58-2.55q-34.08.08-68.16,0c-2,0-2.64.61-2.57,2.56.12,3.74.2,7.49,0,11.21-.16,2.67.76,3.35,3.35,3.32C382.52,582.73,393.63,582.81,404.74,582.81Z" transform="translate(-212.79 -384.58)" fill="#252122"/><path d="M368.25,469.2c-.65-3.72-3-5.09-6.63-5.18-7-.15-14,.79-20.92-.66-15.13-3.16-25.69-15.6-26-30.94-.26-11.59,0-23.19-.14-34.78,0-2.25.82-2.7,2.81-2.6a60.63,60.63,0,0,0,7.86,0c2.32-.17,3,.61,2.93,2.92-.13,10.47-.07,20.94-.05,31.41,0,13.7,7.57,21.22,21.34,21.22q71.58,0,143.15,0c16.33,0,28.94,9.18,33.14,23.94A32.49,32.49,0,0,1,498,515.67c-8,.86-16,.31-24,.36-13.86.09-27.73,0-41.59,0-13.18,0-21,7.81-21,20.88,0,5.36-.06,10.73,0,16.08,0,1.75-.43,2.45-2.28,2.36-3.6-.18-8.18,1.13-10.54-.61s-.66-6.52-.67-10c0-6.34-.54-12.7,1.35-18.93,4-13.18,15.74-22.87,29.5-23.11,21.22-.36,42.46-.13,63.69-.2,10.2,0,17.73-5.36,20.12-14.1a19,19,0,0,0-17.51-24.25c-11.09-.53-22.23-.16-33.35-.15-3.42,0-5.15,2.07-5.94,5.15l-27.51,0c-.61-3.74-3-5.16-6.58-5.14-6.21,0-12.43.12-18.64,0-3.88-.09-6.5,1.24-7.44,5.17Z" transform="translate(-212.79 -384.58)" fill="#fd6f96"/><path d="M395.71,469.18c.94-3.93,3.56-5.26,7.44-5.17,6.21.15,12.43.07,18.64,0,3.6,0,6,1.4,6.58,5.14-.41,4-2.73,5.46-6.59,5.39-6.32-.12-12.65-.17-19,0C398.78,474.71,396.44,473.12,395.71,469.18Z" transform="translate(-212.79 -384.58)" fill="#262323"/><path d="M591.45,749.87c-.34,6.94-3.22,10.42-10.43,12.61-.66-4.17-3.35-5.29-7.25-5.28q-51,.1-102,0H233c-7.8,0-9.72-1.92-9.72-9.7V602.75c0-7.52,2-9.47,9.55-9.47H576.59c7.6,0,9.57,2,9.58,9.46q0,70,0,139.92C586.12,746.57,587.28,749.22,591.45,749.87Zm-186.33-46.5q-36.35,0-72.69,0c-4.79,0-6.54,1.74-6.57,6.51,0,7.23-.05,14.46,0,21.69,0,4.33,1.85,6.19,6.13,6.19q72.71,0,145.39,0c4.32,0,6.15-1.83,6.19-6.14.07-7,0-14,0-20.94,0-5.78-1.55-7.32-7.28-7.32Zm-125.26-11c10.48,0,21,0,31.44,0,4.57,0,6.37-1.82,6.4-6.32q.09-10.83,0-21.66c0-4.44-1.92-6.4-6.42-6.41q-31.06-.09-62.12,0c-4.52,0-6.35,2-6.38,6.43q-.06,10.64,0,21.29c0,5,1.68,6.66,6.77,6.68C259.65,692.41,269.76,692.38,279.86,692.38Zm249.18,0c10.35,0,20.71,0,31.06,0,4.81,0,6.55-1.77,6.57-6.51q.06-10.65,0-21.29c0-4.71-1.82-6.59-6.58-6.6q-30.87-.08-61.75,0c-4.74,0-6.56,1.92-6.59,6.61-.05,7,0,13.94,0,20.91,0,5.19,1.71,6.86,7,6.88C508.83,692.4,518.94,692.38,529,692.38ZM242.77,629.74c0,3.74,0,7.48,0,11.22.06,4.22,2,6.14,6.22,6.18q10.49.11,21,0c4.1,0,6.13-1.84,6.21-5.85q.21-11.4,0-22.8c-.07-3.92-2-5.69-5.87-5.73q-10.86-.12-21.72,0c-3.85,0-5.71,2-5.8,5.77S242.77,626,242.77,629.74Zm323.91.31c0-3.61,0-7.22,0-10.83,0-4.57-1.79-6.43-6.25-6.47q-10.49-.09-21,0c-4.19,0-6.1,1.71-6.17,5.81-.15,7.59-.15,15.2,0,22.79.07,3.84,2.07,5.73,5.88,5.78q10.86.14,21.72,0c3.78-.06,5.69-2.07,5.78-5.87S566.68,633.79,566.68,630.05Zm-199.42-.38c0,3.86-.08,7.72,0,11.58s2,5.82,5.78,5.87c7.24.11,14.48.1,21.72,0,3.8,0,5.84-2,5.91-5.76.15-7.72.16-15.45,0-23.17-.07-3.61-2.11-5.4-5.78-5.44q-10.86-.12-21.72,0c-4,0-5.83,2-5.91,6.07C367.21,622.44,367.26,626.05,367.26,629.67Zm-49.55.08c0-3.74.08-7.48,0-11.21s-2-5.74-5.83-5.78q-10.86-.12-21.72,0c-3.83,0-5.82,1.9-5.89,5.73q-.19,11.4,0,22.8c.07,3.84,2.07,5.79,5.85,5.84q10.86.15,21.72,0c3.94-.06,5.8-2.09,5.88-6.17C317.77,637.22,317.72,633.49,317.71,629.75Zm124.48.13c0-3.61,0-7.22,0-10.84-.06-4.33-1.86-6.24-6.07-6.29q-10.68-.11-21.35,0c-4,0-6,1.89-6,6-.11,7.48-.13,14.95,0,22.42.07,4.05,2.06,5.94,6.09,6q10.67.12,21.34,0c4,0,5.92-2,6-6C442.26,637.36,442.19,633.62,442.19,629.88Zm49.55-.39c0,3.86-.07,7.72,0,11.58.08,4,2,6,6,6.06q10.67.14,21.34,0c4,0,6-1.94,6.12-6,.13-7.48.11-14.95,0-22.43-.06-4.09-2-6-6-6q-10.68-.12-21.35,0c-4.22,0-6,2-6.1,6.27C491.69,622.51,491.74,626,491.74,629.49Zm-249,90.79c0,3.74,0,7.47,0,11.21.05,4.3,1.89,6.24,6.09,6.28q10.67.11,21.34,0c3.86,0,5.86-1.85,5.94-5.69.15-7.6.14-15.2,0-22.79-.07-4.06-2-5.87-6.11-5.91-7.11-.06-14.23-.07-21.34,0-4,0-5.86,2-5.93,6.05C242.73,713.06,242.78,716.67,242.78,720.28Zm323.9.3c0-3.61,0-7.22,0-10.83-.06-4.47-1.93-6.34-6.4-6.37q-10.29-.07-20.59,0c-4.38,0-6.35,1.75-6.42,6-.14,7.47-.13,14.94,0,22.41.07,4.1,2,6,6,6q10.66.11,21.34,0c4,0,6-2,6-6C566.74,728.06,566.68,724.32,566.68,720.58Zm-249-.07c0-3.61.05-7.22,0-10.83-.08-4.43-2-6.28-6.48-6.3q-10.31-.07-20.59,0c-4.33,0-6.32,1.82-6.38,6q-.18,11.21,0,22.42c.07,4,2.06,5.89,6.11,5.93q10.68.11,21.35,0c4,0,5.89-2,6-6C317.78,728,317.71,724.25,317.71,720.51Zm174-.1c0,3.74-.06,7.48,0,11.21.08,4.21,2,6.12,6.25,6.15q10.49.09,21,0c4.1,0,6.14-1.83,6.21-5.83q.21-11.38,0-22.79c-.07-3.84-2.09-5.72-5.89-5.76q-10.86-.12-21.72,0c-3.78.05-5.71,2-5.81,5.81S491.74,716.68,491.74,720.41Zm-8.14-45.2c0-3.73.06-7.47,0-11.2-.08-3.93-1.79-5.93-5.59-6q-11-.22-22.08,0c-3.66.07-5.51,2-5.55,5.65q-.12,11.58,0,23.16c0,3.69,1.82,5.47,5.57,5.52q11,.17,22.08,0c3.73-.05,5.46-1.84,5.56-5.54C483.68,682.93,483.6,679.07,483.6,675.21Zm-124.49.47c0-4,.07-8,0-11.95-.08-3.63-1.87-5.65-5.49-5.72-7.48-.15-15-.16-22.45,0-3.3.08-5.28,2-5.29,5.53,0,7.84,0,15.68,0,23.52,0,3.26,1.83,5.18,5.1,5.23q11.41.16,22.82,0c3.45,0,5.25-2,5.3-5.45C359.14,683.15,359.11,679.42,359.11,675.68Zm8.15-.49c0,3.74-.06,7.48,0,11.21.08,3.93,1.83,5.87,5.63,5.93,7.37.12,14.73.11,22.09,0,3.65-.05,5.64-1.89,5.71-5.52.15-7.72.12-15.44,0-23.16-.05-3.53-2.12-5.61-5.66-5.66-7.36-.12-14.73-.15-22.09,0-3.82.08-5.59,2.11-5.68,6S367.26,671.46,367.26,675.19Zm74.94.25c0-3.74.05-7.47,0-11.21-.07-4.1-1.83-6.15-5.81-6.23-7.23-.15-14.48-.14-21.71,0-3.84.06-5.85,2-5.91,5.79q-.21,11.4,0,22.79c.06,3.89,2,5.73,5.83,5.78q10.86.14,21.72,0c4-.05,5.81-2,5.88-6.07C442.25,682.67,442.2,679.05,442.2,675.44ZM359.1,630c0-3.85.07-7.72,0-11.57-.09-3.69-1.86-5.57-5.5-5.62-7.35-.11-14.71-.1-22.07,0-3.7,0-5.57,1.86-5.62,5.5-.1,7.71-.09,15.43,0,23.15,0,3.62,1.93,5.64,5.49,5.69,7.36.13,14.72.12,22.08,0,3.75-.06,5.57-2.08,5.64-5.94S359.11,633.71,359.1,630Zm124.5,0c0-3.61,0-7.22,0-10.83-.06-4.63-1.73-6.38-6.25-6.42q-10.47-.09-21,0c-4.17,0-6,1.8-6,5.86q-.11,11.39,0,22.78c0,3.76,2,5.69,5.84,5.74q10.67.14,21.33,0c4.08,0,6-1.92,6-5.93C483.67,637.47,483.6,633.74,483.6,630Z" transform="translate(-212.79 -384.58)" fill="#6f69ac"/><path d="M404.74,582.81c-11.11,0-22.22-.08-33.33.06-2.59,0-3.51-.65-3.35-3.32.22-3.72.14-7.47,0-11.21-.07-2,.61-2.57,2.57-2.56q34.08.08,68.16,0c1.94,0,2.64.57,2.58,2.55-.12,3.86-.17,7.73,0,11.58.11,2.32-.65,3-2.95,3C427.21,582.75,416,582.81,404.74,582.81Z" transform="translate(-212.79 -384.58)" fill="#ffeba1"/><path d="M405.12,703.37h71.2c5.73,0,7.26,1.54,7.28,7.32,0,7,0,14,0,20.94,0,4.31-1.87,6.14-6.19,6.14q-72.69,0-145.39,0c-4.28,0-6.09-1.86-6.13-6.19-.06-7.23-.05-14.46,0-21.69,0-4.77,1.78-6.51,6.57-6.51Q368.78,703.35,405.12,703.37Zm-.38,10.47c-19.6,0-39.2,0-58.81,0-3.08,0-7.09-1.36-9,.59s-.18,5.95-.64,9c-.54,3.6,1.16,3.93,4.18,3.92q61.42-.14,122.86-.07c3.1,0,7.21,1,9-.55,2.14-1.83.33-6.08.78-9.24.47-3.35-1.08-3.75-4-3.73C447.7,713.9,426.22,713.84,404.74,713.84Z" transform="translate(-212.79 -384.58)" fill="#231f20"/><path d="M279.86,692.38c-10.1,0-20.21,0-30.31,0-5.09,0-6.75-1.69-6.77-6.68q0-10.65,0-21.29c0-4.47,1.86-6.41,6.38-6.43q31.05-.09,62.12,0c4.5,0,6.39,2,6.42,6.41q.09,10.83,0,21.66c0,4.5-1.83,6.3-6.4,6.32C300.82,692.42,290.34,692.38,279.86,692.38Zm0-10.48c5.73,0,11.47,0,17.2,0,3.22,0,7.51,1.07,9.4-.56,2.2-1.91.4-6.33.77-9.62.3-2.62-.66-3.36-3.29-3.34-13.46.13-26.92,0-40.38.09-3.32,0-7.77-1.48-9.68.65s-.37,6.65-.64,10.1c-.17,2.1.56,2.77,2.69,2.74C263.92,681.84,271.9,681.9,279.87,681.9Z" transform="translate(-212.79 -384.58)" fill="#262323"/><path d="M529,692.38c-10.1,0-20.21,0-30.31,0-5.28,0-7-1.69-7-6.88,0-7,0-13.94,0-20.91,0-4.69,1.85-6.6,6.59-6.61q30.87-.09,61.75,0c4.76,0,6.56,1.89,6.58,6.6q.06,10.63,0,21.29c0,4.74-1.76,6.49-6.57,6.51C549.75,692.41,539.39,692.38,529,692.38Zm.37-10.48c5.61,0,11.22.07,16.82,0,3.2-.06,7.37,1.38,9.34-.61s.3-6.16.65-9.35c.3-2.74-.55-3.6-3.44-3.56-13.45.16-26.92,0-40.37.11-3.32,0-7.84-1.54-9.62.74-1.65,2.13-.37,6.44-.59,9.78-.16,2.28.6,3,2.91,3C513.21,681.82,521.31,681.9,529.41,681.9Z" transform="translate(-212.79 -384.58)" fill="#262323"/><path d="M242.77,629.74c0-3.73-.06-7.47,0-11.21s2-5.72,5.8-5.77q10.86-.12,21.72,0c3.88,0,5.8,1.81,5.87,5.73q.22,11.4,0,22.8c-.08,4-2.11,5.81-6.21,5.85q-10.49.11-21,0c-4.26,0-6.16-2-6.22-6.18C242.73,637.22,242.77,633.48,242.77,629.74Zm23,.08c0-6.62,0-6.62-6.31-6.62s-6.17,0-6.17,7.79c0,5.7,0,5.7,5.66,5.7C265.75,636.69,265.75,636.69,265.75,629.82Z" transform="translate(-212.79 -384.58)" fill="#252223"/><path d="M566.68,630.05c0,3.74.07,7.48,0,11.21s-2,5.81-5.78,5.87q-10.86.15-21.72,0c-3.81,0-5.81-1.94-5.88-5.78-.15-7.59-.15-15.2,0-22.79.07-4.1,2-5.77,6.17-5.81q10.49-.09,21,0c4.46,0,6.21,1.9,6.25,6.47C566.71,622.83,566.68,626.44,566.68,630.05Zm-10.49-.13c0-6.72,0-6.72-5.74-6.72-6.74,0-6.74,0-6.73,7.69,0,5.8,0,5.8,5.63,5.8C556.19,636.69,556.19,636.69,556.19,629.92Z" transform="translate(-212.79 -384.58)" fill="#252223"/><path d="M367.26,629.67c0-3.62-.05-7.23,0-10.84.08-4.08,1.92-6,5.91-6.07q10.86-.12,21.72,0c3.67,0,5.71,1.83,5.78,5.44.17,7.72.16,15.45,0,23.17-.07,3.81-2.11,5.71-5.91,5.76-7.24.09-14.48.1-21.72,0-3.78,0-5.69-2.06-5.78-5.87S367.26,633.53,367.26,629.67Zm10.49.14c0,6.88,0,6.88,6,6.88,6.5,0,6.5,0,6.5-7.56,0-5.93,0-5.93-5.88-5.93C377.75,623.2,377.75,623.2,377.75,629.81Z" transform="translate(-212.79 -384.58)" fill="#252223"/><path d="M317.71,629.75c0,3.74.06,7.47,0,11.21-.08,4.08-1.94,6.11-5.88,6.17q-10.86.15-21.72,0c-3.78,0-5.78-2-5.85-5.84q-.19-11.4,0-22.8c.07-3.83,2.06-5.69,5.89-5.73q10.86-.12,21.72,0c3.82,0,5.73,2,5.83,5.78S317.71,626,317.71,629.75Zm-10.49.3c0-6.85,0-6.85-5.93-6.85-6.59,0-6.59,0-6.59,6.62,0,6.87,0,6.87,6,6.87C307.22,636.69,307.22,636.69,307.22,630.05Z" transform="translate(-212.79 -384.58)" fill="#252223"/><path d="M442.19,629.88c0,3.74.07,7.48,0,11.21-.08,4-2,6-6,6q-10.67.14-21.34,0c-4,0-6-1.94-6.09-6-.13-7.47-.11-14.94,0-22.42.06-4.09,2-5.93,6-6q10.68-.11,21.35,0c4.21,0,6,2,6.07,6.29C442.23,622.66,442.19,626.27,442.19,629.88Zm-10.49.06c0-6.74,0-6.74-5.37-6.74-7.14,0-7.14,0-7.13,7.29,0,6.2,0,6.2,5.62,6.2C431.7,636.69,431.7,636.69,431.7,629.94Z" transform="translate(-212.79 -384.58)" fill="#252223"/><path d="M491.74,629.49c0-3.49-.05-7,0-10.47.07-4.32,1.88-6.23,6.1-6.27q10.66-.11,21.35,0c4,0,5.95,1.9,6,6,.11,7.48.13,15,0,22.43-.07,4-2.09,5.91-6.12,6q-10.67.12-21.34,0c-4,0-5.91-2-6-6.06C491.67,637.21,491.74,633.35,491.74,629.49Zm23,.53c0-6.82,0-6.82-6.39-6.82-6.13,0-6.13,0-6.13,6.65,0,6.84,0,6.84,6.34,6.84C514.75,636.69,514.75,636.69,514.75,630Z" transform="translate(-212.79 -384.58)" fill="#252223"/><path d="M242.78,720.28c0-3.61-.05-7.22,0-10.84.07-4,2-6,5.93-6.05,7.11-.08,14.23-.07,21.34,0,4.07,0,6,1.85,6.11,5.91.13,7.59.14,15.19,0,22.79-.08,3.84-2.08,5.65-5.94,5.69q-10.67.11-21.34,0c-4.2,0-6-2-6.09-6.28C242.74,727.75,242.78,724,242.78,720.28Zm23,.62c0-7.06,0-7.06-5-7.06-7.45,0-7.45,0-7.45,7.53,0,6,0,6,6,6C265.74,727.32,265.74,727.32,265.73,720.9Z" transform="translate(-212.79 -384.58)" fill="#242022"/><path d="M566.68,720.58c0,3.74.06,7.48,0,11.21-.08,4-2,5.94-6,6q-10.67.11-21.34,0c-4,0-6-1.9-6-6-.12-7.47-.13-14.94,0-22.41.07-4.23,2-6,6.42-6q10.29-.07,20.59,0c4.47,0,6.34,1.9,6.4,6.37C566.71,713.36,566.68,717,566.68,720.58Zm-10.5.17c0-6.91,0-6.91-5.83-6.91-6.64,0-6.64,0-6.64,7.31,0,6.17,0,6.17,5.91,6.17C556.18,727.32,556.18,727.32,556.18,720.75Z" transform="translate(-212.79 -384.58)" fill="#242022"/><path d="M317.71,720.51c0,3.74.07,7.48,0,11.21-.09,4-2,6-6,6q-10.68.11-21.35,0c-4.05,0-6-1.88-6.11-5.93q-.19-11.21,0-22.42c.06-4.22,2.05-6,6.38-6q10.29-.07,20.59,0c4.51,0,6.4,1.87,6.48,6.3C317.76,713.29,317.71,716.9,317.71,720.51Zm-23,0c0,6.78,0,6.78,5.69,6.78,6.83,0,6.83,0,6.83-7.82,0-5.66,0-5.66-5.63-5.66C294.7,713.84,294.7,713.84,294.7,720.54Z" transform="translate(-212.79 -384.58)" fill="#242022"/><path d="M491.74,720.41c0-3.73-.08-7.47,0-11.21s2-5.76,5.81-5.81q10.86-.12,21.72,0c3.8,0,5.82,1.92,5.89,5.76q.21,11.4,0,22.79c-.07,4-2.11,5.8-6.21,5.83q-10.49.09-21,0c-4.25,0-6.17-1.94-6.25-6.15C491.68,727.89,491.74,724.15,491.74,720.41Zm23,.27c0-6.84,0-6.84-6.37-6.84-6.15,0-6.15,0-6.15,6.64,0,6.84,0,6.84,5.95,6.84C514.75,727.32,514.75,727.32,514.75,720.68Z" transform="translate(-212.79 -384.58)" fill="#242022"/><path d="M483.6,675.21c0,3.86.08,7.72,0,11.58-.1,3.7-1.83,5.49-5.56,5.54q-11,.17-22.08,0c-3.75-.05-5.53-1.83-5.57-5.52q-.12-11.58,0-23.16c0-3.61,1.89-5.58,5.55-5.65q11-.21,22.08,0c3.8.08,5.51,2.08,5.59,6C483.66,667.74,483.6,671.48,483.6,675.21Zm-10.49,0c0-6.8,0-6.8-5.73-6.8-6.54,0-6.54,0-6.54,7.46,0,6,0,6,5.72,6C473.11,681.9,473.11,681.9,473.11,675.23Z" transform="translate(-212.79 -384.58)" fill="#262223"/><path d="M359.11,675.68c0,3.74,0,7.47,0,11.2-.05,3.45-1.85,5.41-5.3,5.45q-11.4.13-22.82,0c-3.27,0-5.07-2-5.1-5.23-.06-7.84,0-15.68,0-23.52,0-3.5,2-5.45,5.29-5.53,7.48-.18,15-.17,22.45,0,3.62.07,5.41,2.09,5.49,5.72C359.18,667.71,359.11,671.7,359.11,675.68Zm-10.5-.52a22,22,0,0,1,0-3.35c.46-2.94-.91-3.47-3.57-3.44-8.73.09-8.73,0-8.73,9.08a10.58,10.58,0,0,1,0,1.49c-.28,2.16.4,3.34,2.83,3a18.91,18.91,0,0,1,2.61,0C348.61,681.91,348.61,681.91,348.61,675.16Z" transform="translate(-212.79 -384.58)" fill="#262223"/><path d="M367.26,675.19c0-3.73-.07-7.47,0-11.21s1.86-5.89,5.68-6c7.36-.16,14.73-.13,22.09,0,3.54,0,5.61,2.13,5.66,5.66.12,7.72.15,15.44,0,23.16-.07,3.63-2.06,5.47-5.71,5.52-7.36.1-14.72.11-22.09,0-3.8-.06-5.55-2-5.63-5.93C367.2,682.67,367.26,678.93,367.26,675.19Zm10.49-.42a44.61,44.61,0,0,1,0,4.48c-.21,2.1.55,2.73,2.69,2.78,9.88.26,9.88.33,9.85-9.54a4.7,4.7,0,0,1,0-.75c.4-2.61-.69-3.69-3.33-3.35a22.92,22.92,0,0,1-3,0C377.75,668.42,377.75,668.42,377.75,674.77Z" transform="translate(-212.79 -384.58)" fill="#262224"/><path d="M442.2,675.44c0,3.61.05,7.23,0,10.84-.07,4.11-1.84,6-5.88,6.07q-10.86.14-21.72,0c-3.86-.05-5.77-1.89-5.83-5.78q-.19-11.39,0-22.79c.06-3.78,2.07-5.73,5.91-5.79,7.23-.13,14.48-.14,21.71,0,4,.08,5.74,2.13,5.81,6.23C442.25,668,442.2,671.7,442.2,675.44Zm-10.49,0c0-7,0-7-5.93-7-6.58,0-6.58,0-6.58,6.8s0,6.76,6.58,6.76C431.71,682,431.71,682,431.71,675.4Z" transform="translate(-212.79 -384.58)" fill="#262224"/><path d="M359.1,630c0,3.74.06,7.47,0,11.21s-1.89,5.88-5.64,5.94c-7.36.11-14.72.12-22.08,0-3.56-.05-5.45-2.07-5.49-5.69-.08-7.72-.09-15.44,0-23.15.05-3.64,1.92-5.46,5.62-5.5,7.36-.09,14.72-.1,22.07,0,3.64.05,5.41,1.93,5.5,5.62C359.17,622.25,359.1,626.12,359.1,630Zm-10.49-.25c0-6.5,0-6.5-4.84-6.5-7.42,0-7.42,0-7.42,8,0,5.42,0,5.42,5.22,5.42C348.61,636.67,348.61,636.67,348.61,629.72Z" transform="translate(-212.79 -384.58)" fill="#252122"/><path d="M483.6,630c0,3.74.07,7.47,0,11.2-.08,4-2,5.89-6,5.93q-10.67.12-21.33,0c-3.85,0-5.8-2-5.84-5.74q-.12-11.39,0-22.78c0-4.06,1.86-5.82,6-5.86q10.47-.09,21,0c4.52,0,6.19,1.79,6.25,6.42C483.64,622.78,483.6,626.39,483.6,630Zm-22.74,0c0,1.62,0,3.24,0,4.85,0,1.22.48,1.64,1.74,1.82,9.59,1.4,10.51.67,10.51-8.75a9.25,9.25,0,0,1,0-1.49c.43-2.62-.63-3.67-3.26-3.26a15.2,15.2,0,0,1-2.24,0C460.85,623.22,460.85,623.22,460.86,630Z" transform="translate(-212.79 -384.58)" fill="#252122"/><path d="M404.74,713.84c21.48,0,43,.06,64.43-.06,2.9,0,4.45.38,4,3.73-.45,3.16,1.36,7.41-.78,9.24-1.83,1.57-5.94.55-9,.55q-61.43,0-122.86.07c-3,0-4.72-.32-4.18-3.92.46-3-1.25-7.06.64-9s5.92-.58,9-.59C365.54,713.81,385.14,713.84,404.74,713.84Z" transform="translate(-212.79 -384.58)" fill="#95dac1"/><path d="M279.87,681.9c-8,0-15.95-.06-23.93.05-2.13,0-2.86-.64-2.69-2.74.27-3.45-1.38-7.85.64-10.1s6.36-.63,9.68-.65c13.46-.07,26.92,0,40.38-.09,2.63,0,3.59.72,3.29,3.34-.37,3.29,1.43,7.71-.77,9.62-1.89,1.63-6.18.54-9.4.56C291.34,681.93,285.6,681.9,279.87,681.9Z" transform="translate(-212.79 -384.58)" fill="#95dac1"/><path d="M529.41,681.9c-8.1,0-16.2-.08-24.3.05-2.31,0-3.07-.68-2.91-3,.22-3.34-1.06-7.65.59-9.78,1.78-2.28,6.3-.72,9.62-.74,13.45-.1,26.92,0,40.37-.11,2.89,0,3.74.82,3.44,3.56-.35,3.19,1.32,7.36-.65,9.35s-6.14.55-9.34.61C540.63,682,535,681.9,529.41,681.9Z" transform="translate(-212.79 -384.58)" fill="#95dac1"/><path d="M265.75,629.82c0,6.87,0,6.87-6.82,6.87-5.66,0-5.66,0-5.66-5.7,0-7.79,0-7.79,6.17-7.79S265.75,623.2,265.75,629.82Z" transform="translate(-212.79 -384.58)" fill="#95dac1"/><path d="M556.19,629.92c0,6.77,0,6.77-6.84,6.77-5.63,0-5.63,0-5.63-5.8,0-7.69,0-7.69,6.73-7.69C556.19,623.2,556.19,623.2,556.19,629.92Z" transform="translate(-212.79 -384.58)" fill="#95dac1"/><path d="M377.75,629.81c0-6.61,0-6.61,6.62-6.61,5.88,0,5.88,0,5.88,5.93,0,7.56,0,7.56-6.5,7.56C377.75,636.69,377.75,636.69,377.75,629.81Z" transform="translate(-212.79 -384.58)" fill="#95dac1"/><path d="M307.22,630.05c0,6.64,0,6.64-6.54,6.64-6,0-6,0-6-6.87,0-6.62,0-6.62,6.59-6.62C307.22,623.2,307.22,623.2,307.22,630.05Z" transform="translate(-212.79 -384.58)" fill="#95dac1"/><path d="M431.7,629.94c0,6.75,0,6.75-6.88,6.75-5.62,0-5.62,0-5.62-6.2,0-7.29,0-7.29,7.13-7.29C431.7,623.2,431.7,623.2,431.7,629.94Z" transform="translate(-212.79 -384.58)" fill="#95dac1"/><path d="M514.75,630c0,6.67,0,6.67-6.18,6.67-6.34,0-6.34,0-6.34-6.84,0-6.65,0-6.65,6.13-6.65C514.75,623.2,514.75,623.2,514.75,630Z" transform="translate(-212.79 -384.58)" fill="#95dac1"/><path d="M265.73,720.9c0,6.42,0,6.42-6.41,6.42-6,0-6,0-6-6,0-7.53,0-7.53,7.45-7.53C265.73,713.84,265.73,713.84,265.73,720.9Z" transform="translate(-212.79 -384.58)" fill="#95dac1"/><path d="M556.18,720.75c0,6.57,0,6.57-6.56,6.57-5.91,0-5.91,0-5.91-6.17,0-7.31,0-7.31,6.64-7.31C556.18,713.84,556.18,713.84,556.18,720.75Z" transform="translate(-212.79 -384.58)" fill="#95dac1"/><path d="M294.7,720.54c0-6.7,0-6.7,6.89-6.7,5.63,0,5.63,0,5.63,5.66,0,7.82,0,7.82-6.83,7.82C294.7,727.32,294.7,727.32,294.7,720.54Z" transform="translate(-212.79 -384.58)" fill="#95dac1"/><path d="M514.75,720.68c0,6.64,0,6.64-6.57,6.64-5.95,0-5.95,0-5.95-6.84,0-6.64,0-6.64,6.15-6.64C514.75,713.84,514.75,713.84,514.75,720.68Z" transform="translate(-212.79 -384.58)" fill="#95dac1"/><path d="M473.11,675.23c0,6.67,0,6.67-6.55,6.67-5.72,0-5.72,0-5.72-6,0-7.46,0-7.46,6.54-7.46C473.11,668.43,473.11,668.43,473.11,675.23Z" transform="translate(-212.79 -384.58)" fill="#95dac1"/><path d="M348.61,675.16c0,6.75,0,6.75-6.84,6.74a18.91,18.91,0,0,0-2.61,0c-2.43.36-3.11-.82-2.83-3a10.58,10.58,0,0,0,0-1.49c0-9.1,0-9,8.73-9.08,2.66,0,4,.5,3.57,3.44A22,22,0,0,0,348.61,675.16Z" transform="translate(-212.79 -384.58)" fill="#95dac1"/><path d="M377.75,674.77c0-6.35,0-6.35,6.19-6.35a22.92,22.92,0,0,0,3,0c2.64-.34,3.73.74,3.33,3.35a4.7,4.7,0,0,0,0,.75c0,9.87,0,9.8-9.85,9.54-2.14,0-2.9-.68-2.69-2.78A44.61,44.61,0,0,0,377.75,674.77Z" transform="translate(-212.79 -384.58)" fill="#95dac1"/><path d="M431.71,675.4c0,6.58,0,6.58-5.93,6.58-6.58,0-6.58,0-6.58-6.76s0-6.8,6.58-6.8C431.71,668.42,431.71,668.42,431.71,675.4Z" transform="translate(-212.79 -384.58)" fill="#95dac1"/><path d="M348.61,629.72c0,6.95,0,6.95-7,6.95-5.22,0-5.22,0-5.22-5.42,0-8,0-8,7.42-8C348.61,623.22,348.61,623.22,348.61,629.72Z" transform="translate(-212.79 -384.58)" fill="#95dac1"/><path d="M460.85,630c0-6.81,0-6.81,6.76-6.81a15.2,15.2,0,0,0,2.24,0c2.63-.41,3.69.64,3.26,3.26a9.25,9.25,0,0,0,0,1.49c0,9.42-.92,10.15-10.51,8.75-1.26-.18-1.77-.6-1.74-1.82C460.88,633.27,460.86,631.65,460.85,630Z" transform="translate(-212.79 -384.58)" fill="#95dac1"/></svg>