<svg id="Capa_1" data-name="Capa 1" xmlns="http://www.w3.org/2000/svg" viewBox="0 0 244.24 379.2"><path d="M505.79,139.77c5.51,2.55,6.63,5.73,4,11.54q-32.2,70.27-64.43,140.55c-.6,1.31-1.14,2.66-1.89,4.42h67.64a30.79,30.79,0,0,1,3.33.07c3,.35,5.34,1.69,6.36,4.8s-.08,5.37-2.18,7.33c-4.7,4.37-9.49,8.64-14.25,12.95L290.88,514.81a25.89,25.89,0,0,1-4,3.21,6,6,0,0,1-7.54-.83,6.11,6.11,0,0,1-1.87-7.33,29.22,29.22,0,0,1,2.05-3.92q45.66-75.78,91.34-151.56c.61-1,1.16-2.07,2-3.56h-4c-16.67,0-33.33,0-50,0-3.44,0-6.43-.64-8-4.1-1.63-3.63.08-6.33,2.54-8.91Q405.45,240.95,497.48,144a24,24,0,0,1,5.35-4.24Zm-173,197.45c14.66,0,28.32,0,42,0,3.7,0,7.43-.16,11.1.19,4.71.45,7.16,4.9,5.31,9.25a28.59,28.59,0,0,1-1.95,3.56q-35.67,59.22-71.35,118.43c-.72,1.19-1.74,2.29-1.15,4.37l180-163h-4.56c-18.76,0-37.53-.29-56.28.13-7.77.18-12-4.57-8.24-12.55,17.28-36.91,34.09-74,51.05-111.08.49-1.07,1.49-2.08.95-3.85Zm-17.16,136.6.53-.67c-.15-.11-.37-.35-.44-.31a4,4,0,0,0-.7.55Z" transform="translate(-276.9 -139.77)" fill="#030302"/><path d="M332.77,337.22l146.8-154.54c.54,1.77-.46,2.78-.95,3.85-17,37.05-33.77,74.17-51.05,111.08-3.73,8,.47,12.73,8.24,12.55,18.75-.42,37.52-.13,56.28-.13h4.56L316.7,473c-.59-2.08.43-3.18,1.15-4.37q35.65-59.22,71.35-118.43a28.59,28.59,0,0,0,1.95-3.56c1.85-4.35-.6-8.8-5.31-9.25-3.67-.35-7.4-.19-11.1-.19C361.09,337.21,347.43,337.22,332.77,337.22Z" transform="translate(-276.9 -139.77)" fill="#fbd837"/><path d="M315.61,473.82l-.61-.43a4,4,0,0,1,.7-.55c.07,0,.29.2.44.31Z" transform="translate(-276.9 -139.77)" fill="#fbd837"/></svg>