<svg id="Capa_1" data-name="Capa 1" xmlns="http://www.w3.org/2000/svg" viewBox="0 0 345.28 383.11"><path d="M321,773.27c-3.47-1.54-7.21-1.11-10.83-1.45-24.7-2.34-48.89-6.8-71.6-17.28-44.26-20.41-63.3-56.9-61.93-102.07.59-19.45,4.78-38.24,11-56.59.82-2.39.66-3.56-1.69-5A29.63,29.63,0,0,1,215,539.21c15.27,7.92,31.12,13.91,48.12,16.76a5,5,0,0,0,3.07.06,95.06,95.06,0,0,1-12.09-31.51,91.57,91.57,0,0,1,49-98.52,5.8,5.8,0,0,0,3.58-4.59,38.31,38.31,0,0,1,75.3-.07,5.55,5.55,0,0,0,3.18,4.49c47.8,24.2,65.06,81.93,38.41,128.2-.36.64-.71,1.28-1.31,2.37A130.55,130.55,0,0,0,442.53,552c11.09-3.1,21.39-8.06,31.7-13.07a29.6,29.6,0,0,1,28.33,51.91c-2.3,1.41-2.57,2.54-1.74,5,7.47,22.24,12.1,44.94,10.81,68.56-2.29,41.64-22.53,71.3-60,89.35-20.68,10-42.79,14.74-65.46,17.23-6.33.7-12.69,1.07-19,1.58-.52,0-1,.12-1.12.71H330.78c-1-.31-2-.94-3,0ZM414.93,546l.82-1.45.73-1.51c6.44-12.08,8.59-25,8.26-38.58-.08-3-1-4.23-3.92-5.06-25.93-7.31-52.39-10.05-79.24-9.82-21.16.17-42.12,2.1-62.72,7.13-4.21,1.09-8.39,2.26-12.63,3.25a2.51,2.51,0,0,0-2.3,2.73c-.76,14.15,1.48,27.69,8.14,40.34l.77,1.51.78,1.45c.11.57.19,1.16.81,1.45,6.17,11.73,15.23,20.82,26.25,28,8.3,5.38,17.22,9.4,27.12,10.88a63.06,63.06,0,0,0,25.5,1.44q40.57-5.46,61.23-40.8Zm41.55,64.68c-11.52,2.75-23.07,5.35-34.92,6.22-1,.08-1.58.34-1.8,1.41a71.84,71.84,0,0,1-9.44,23.5A93.56,93.56,0,0,0,438.68,628c6.75-4.89,13.28-10.07,18.11-17,.3-.06.67-.08.46-.52A4.29,4.29,0,0,0,456.48,610.65Zm-224.41,0a4.94,4.94,0,0,0-.76-.23c-.22.44.16.46.45.52,0,1,.83,1.49,1.39,2.12a96.92,96.92,0,0,0,36,25.49c2.76,1.12,5.47,2.49,8.88,2.82A68.53,68.53,0,0,1,269,619c-.21-1.06-.38-2-2-2.15C255.14,616,243.59,613.4,232.07,610.66Zm97.21-181.57c-17.38,2.87-31.7,11.2-43.37,24.45l14.85-2.62a377.13,377.13,0,0,1,54.59-2.44c4.62.16,6.08,1.36,7,6-.71,3.49-2.82,4.77-6.39,4.84-22.22.41-44.44,1-66.38,5.19-4.37.9-8.73,1.83-13.11,2.67a3.35,3.35,0,0,0-2.67,1.71,74,74,0,0,0-7.51,19.18l15.76-3.85a303.05,303.05,0,0,1,32.58-4.65,340.47,340.47,0,0,1,73.25,1.6c11.27,1.5,22.31,4,33.38,6.48l.57.37.1-.95a72.88,72.88,0,0,0-6.76-17.31,4.93,4.93,0,0,0-3.64-2.73,259.18,259.18,0,0,0-32-5.61c-3.86-.46-5.85-2.4-6.14-6.2,1.78-4.6,3.42-5.56,8.23-4.86,2.34.34,4.69.62,7,1,4.66.7,9.32,1.44,14.13,2.19-.27-1.71-1.44-2.35-2.29-3.19a75.2,75.2,0,0,0-24.73-16.49C360.79,427.7,345.3,425.66,329.28,429.09ZM244.12,714.43c2.54-4.34,4-4.88,9.24-2.95,19.7,7.3,40.2,10.74,61,12.31a382.21,382.21,0,0,0,67.74-.7c20.56-2.11,40.71-6.09,59.77-14.34,24.16-10.47,43-26.42,52.48-51.79,2.43-6.54,5.05-13.25,4.67-20.22-.4-7.53-2.27-15-4.43-22.28-1-3.46-1.83-7-2.9-10.38-2-6.31-2.07-6.39-8-3.59-2.64,1.25-6.06,1.41-7.77,4.06a151.19,151.19,0,0,1-18.49,22.81C444.13,639.3,429.2,648.65,411.68,653a95,95,0,0,0-24.75,10.31c-12.82,7.32-26.59,13-39.95,19.34a6.24,6.24,0,0,1-5.73-.16C328.44,676.37,315.1,671.18,303,664a115.29,115.29,0,0,0-29-11.82c-16.4-4.49-30.36-13.54-43-24.78-6.81-7.08-13.26-14.45-18.42-22.85a4.67,4.67,0,0,0-2.34-1.74c-3.06-1.36-6.21-2.54-9.18-4.08-2-1.05-2.55-.23-3,1.5-1.34,4.77-2.77,9.52-4.16,14.27-.85,3.5-1.9,7-2.51,10.5-.84,4.86-2.67,9.67-1.83,14.69C194,666,207.69,686.1,230.32,700.2c3.13,2,5.25,4.2,4.2,8.19-3.33,4.09-5.31,4.39-9.86,1.57-13.34-8.29-24.54-18.74-32.88-32.14-.5-.8-.72-2.31-2.49-1.63.15.57.33,1.12.43,1.68,4.9,27.54,20,47.84,44.15,61.59,23.46,13.37,49.29,18.53,75.79,21a366.87,366.87,0,0,0,75.91-.68c20.41-2.32,40.36-6.57,59.13-15.19,23.74-10.89,41.79-27.35,50.49-52.65a62.8,62.8,0,0,0,3.75-15.84c-.65.11-1,.06-1.09.2a10.51,10.51,0,0,0-1.1,1.48c-9.93,16-23.72,27.74-40.29,36.42-25.57,13.39-53.28,18.55-81.67,20.78a387.59,387.59,0,0,1-68.47-.65c-19.67-2-39-5.66-57.55-12.58C245.15,720.42,243.47,718.26,244.12,714.43ZM505.56,567.35c.05-15.67-14.47-24.62-27.1-18-19.65,10.32-40.31,17.1-62.46,19.17a8.63,8.63,0,0,0-5.74,2.91C376,607,319.45,609,282.92,575.79c-5-4.56-9.78-7.35-16.68-8.12-19.9-2.24-38.47-9-56.14-18.34A18.37,18.37,0,0,0,185,557.08a18.19,18.19,0,0,0,7.34,24.56c21,11.73,43.23,19.77,67.1,23.14,2.46.35,5.44,1.46,7.31.51,2.15-1.09.59-4.49,1.19-6.81a10.65,10.65,0,0,0,.21-1.1c1-6,3-7.32,9-6.26,23.93,4.24,45.29,14.24,64.47,29,2.1,1.61,3.22,1.61,5.29,0A146.16,146.16,0,0,1,407,592c11.77-2.56,13.35-1.37,13.73,10.61.08,2.38.57,3.17,3.17,2.88,25.64-2.94,49.48-11.26,72-23.66C502.18,578.36,505.36,572.87,505.56,567.35Zm-96,43.45c.11-8.75.59-8.12-5.1-6.61-20.42,5.38-38.92,14.53-55,28.29-4.14,3.54-6.15,3.48-10.4-.13-16.55-14-35.55-23.25-56.49-28.69-3.19-.83-3.75.21-3.61,3.1.94,20.82,10.21,36.82,28.41,46.93,11.41,6.34,23.53,11.37,35.3,17.06a3.63,3.63,0,0,0,3.49-.07c11.35-5.41,22.94-10.38,34-16.29C398.39,644.66,407.84,628.92,409.53,610.8ZM369.79,419.68a27.05,27.05,0,0,0-26.94-18.27c-10.72.45-21.27,8.37-23.83,18.26a100.87,100.87,0,0,1,25.19-3.42A105.65,105.65,0,0,1,369.79,419.68Z" transform="translate(-171.64 -390.16)" fill="#040303"/><path d="M327.78,773.27c1-.94,2-.31,3,0Z" transform="translate(-171.64 -390.16)" fill="#f8718c"/><path d="M231.06,627.36c12.6,11.24,26.56,20.29,43,24.78A115.29,115.29,0,0,1,303,664c12.13,7.22,25.47,12.41,38.28,18.51a6.24,6.24,0,0,0,5.73.16c13.36-6.37,27.13-12,39.95-19.34A95,95,0,0,1,411.68,653c17.52-4.33,32.45-13.68,45.81-25.62A109.48,109.48,0,0,0,474.88,622c6.59-2.5,13.17-5,19.75-7.58,2.16,7.3,4,14.75,4.43,22.28.38,7-2.24,13.68-4.67,20.22-9.45,25.37-28.32,41.32-52.48,51.79C422.85,717,402.7,721,382.14,723.09a382.21,382.21,0,0,1-67.74.7c-20.84-1.57-41.34-5-61-12.31-5.21-1.93-6.7-1.39-9.25,2.95-2.65-2.87-7.13-2.85-9.59-6,1-4-1.07-6.23-4.2-8.19C207.69,686.1,194,666,189.58,639.65c-.84-5,1-9.83,1.83-14.69.61-3.54,1.66-7,2.51-10.5,1.81,0,3.32.94,4.91,1.65A171.73,171.73,0,0,0,231.06,627.36Z" transform="translate(-171.64 -390.16)" fill="#fd6f96"/><path d="M278.86,496.68c20.6-5,41.56-7,62.72-7.13,26.85-.23,53.31,2.51,79.24,9.82,2.93.83,3.84,2.07,3.92,5.06.33,13.55-1.82,26.5-8.26,38.58l-.24-.22c0-3.29.44-6.64-1.68-9.61-3.83-5.35-9.32-6.83-15.49-6.84a43,43,0,0,0-.9-4.38c-2.12-6.87-9-11-16.42-9.85a14.63,14.63,0,0,0-12,13.76c0,2.64,1,4.62,3.44,5.66a5.32,5.32,0,0,0,5.91-1,5.58,5.58,0,0,0,1.88-3.93c.14-2,1.13-3.31,3.23-3.37,2.34-.06,3.2,1.44,3.53,3.53a23,23,0,0,0,.93,3.18c-3.27,4-5.62,8.45-3.07,13.62,2.73,5.52,7.83,7.66,13.69,8.21,5.7.54,10.36-1.92,14.71-5.22a2.75,2.75,0,0,0,.53.36q-20.61,35.36-61.23,40.8a63.06,63.06,0,0,1-25.5-1.44A13,13,0,0,0,326,585a89.54,89.54,0,0,1-27-21.26c-3.13-3.6-6.54-7.15-8-11.94l2.86-.81c6.52-1.91,10.45-7.15,9.92-13.12-.29-3.17-2.3-5.43-3.92-7.91a11.23,11.23,0,0,0,.85-2.44c.24-2.28.78-4.31,3.61-4.25,2.58.06,3,1.95,3.36,4.09a5.35,5.35,0,0,0,6.22,4.58c3.31-.58,4.87-2.7,4.87-6,0-6.83-5.83-13.16-12.75-13.84-8.89-.86-15,4.39-16.56,14.31-3.12-.39-6,.66-8.92,1.46-1.49-7.37-2.65-14.77-2.26-22.32C278.46,502.54,278.67,499.61,278.86,496.68Zm65.57,50a17.48,17.48,0,0,0,13-5.55c2.45-2.5,2.57-5.73.49-8s-5.3-2.38-8-.25c-4.54,3.54-6.71,3.55-11.18,0-2.74-2.15-5.94-2.09-8,.16s-2,5.49.4,8A17.51,17.51,0,0,0,344.43,546.7Z" transform="translate(-171.64 -390.16)" fill="#fddacc"/><path d="M505.56,567.35c-.2,5.52-3.38,11-9.68,14.49-22.49,12.4-46.33,20.72-72,23.66-2.6.29-3.09-.5-3.17-2.88-.38-12-2-13.17-13.73-10.61a146.16,146.16,0,0,0-60.07,28.07c-2.07,1.62-3.19,1.62-5.29,0-19.18-14.73-40.54-24.73-64.47-29-6-1.06-8,.3-9,6.26a10.65,10.65,0,0,1-.21,1.1c-.6,2.32,1,5.72-1.19,6.81-1.87,1-4.85-.16-7.31-.51-23.87-3.37-46.14-11.41-67.1-23.14A18.19,18.19,0,0,1,185,557.08a18.37,18.37,0,0,1,25.07-7.75c17.67,9.37,36.24,16.1,56.14,18.34,6.9.77,11.68,3.56,16.68,8.12C319.45,609,376,607,410.26,571.44a8.63,8.63,0,0,1,5.74-2.91c22.15-2.07,42.81-8.85,62.46-19.17C491.09,542.73,505.61,551.68,505.56,567.35Z" transform="translate(-171.64 -390.16)" fill="#fcd2c8"/><path d="M234.52,708.39c2.46,3.19,6.94,3.17,9.59,6-.64,3.83,1,6,4.66,7.34,18.59,6.92,37.88,10.63,57.55,12.58a387.59,387.59,0,0,0,68.47.65c28.39-2.23,56.1-7.39,81.67-20.78,16.57-8.68,30.36-20.42,40.29-36.42a10.51,10.51,0,0,1,1.1-1.48c.12-.14.44-.09,1.09-.2A62.8,62.8,0,0,1,495.19,692c-8.7,25.3-26.75,41.76-50.49,52.65-18.77,8.62-38.72,12.87-59.13,15.19a366.87,366.87,0,0,1-75.91.68c-26.5-2.49-52.33-7.65-75.79-21-24.13-13.75-39.25-34.05-44.15-61.59-.1-.56-.28-1.11-.43-1.68,1.77-.68,2,.83,2.49,1.63,8.34,13.4,19.54,23.85,32.88,32.14C229.21,712.78,231.19,712.48,234.52,708.39Z" transform="translate(-171.64 -390.16)" fill="#e3e3e3"/><path d="M409.53,610.8c-1.69,18.12-11.14,33.86-29.41,43.59-11.08,5.91-22.67,10.88-34,16.29a3.63,3.63,0,0,1-3.49.07c-11.77-5.69-23.89-10.72-35.3-17.06-18.2-10.11-27.47-26.11-28.41-46.93-.14-2.89.42-3.93,3.61-3.1,20.94,5.44,39.94,14.65,56.49,28.69,4.25,3.61,6.26,3.67,10.4.13,16.11-13.76,34.61-22.91,55-28.29C410.12,602.68,409.64,602.05,409.53,610.8Z" transform="translate(-171.64 -390.16)" fill="#fd6f96"/><path d="M421.29,487.64c-11.07-2.44-22.11-5-33.38-6.48a340.47,340.47,0,0,0-73.25-1.6,303.05,303.05,0,0,0-32.58,4.65c-.23-1.69.5-3.17,1-4.71,1.61-5.25,4.43-10,6.56-15,21.94-4.19,44.16-4.78,66.38-5.19,3.57-.07,5.68-1.35,6.39-4.84l11,.74c.29,3.8,2.28,5.74,6.14,6.2a259.18,259.18,0,0,1,32,5.61,4.93,4.93,0,0,1,3.64,2.73A72.88,72.88,0,0,1,422,487.06Z" transform="translate(-171.64 -390.16)" fill="#fd6f96"/><path d="M373.41,455.21l-11-.74c-.95-4.63-2.41-5.83-7-6a377.13,377.13,0,0,0-54.59,2.44c2-5.05,6.89-7.28,10.61-10.63,5.29-4.75,11.76-7.75,17.91-11.2,16-3.43,31.51-1.39,46.51,4.75a75.2,75.2,0,0,1,24.73,16.49c.85.84,2,1.48,2.29,3.19-4.81-.75-9.47-1.49-14.13-2.19-2.35-.36-4.7-.64-7-1C376.83,449.65,375.19,450.61,373.41,455.21Z" transform="translate(-171.64 -390.16)" fill="#ffeba1"/><path d="M369.79,419.68a105.65,105.65,0,0,0-25.58-3.43A100.87,100.87,0,0,0,319,419.67c2.56-9.89,13.11-17.81,23.83-18.26A27.05,27.05,0,0,1,369.79,419.68Z" transform="translate(-171.64 -390.16)" fill="#f0c554"/><path d="M278.86,496.68c-.19,2.93-.4,5.86-.55,8.8-.39,7.55.77,14.95,2.26,22.32-6.64,2.87-9.08,8-8.24,15l-.26.21c-6.66-12.65-8.9-26.19-8.14-40.34a2.51,2.51,0,0,1,2.3-2.73C270.47,498.94,274.65,497.77,278.86,496.68Z" transform="translate(-171.64 -390.16)" fill="#fcc7bb"/><path d="M231.06,627.36a171.73,171.73,0,0,1-32.23-11.25c-1.59-.71-3.1-1.61-4.91-1.65,1.39-4.75,2.82-9.5,4.16-14.27.49-1.73,1-2.55,3-1.5,3,1.54,6.12,2.72,9.18,4.08a4.67,4.67,0,0,1,2.34,1.74C217.8,612.91,224.25,620.28,231.06,627.36Z" transform="translate(-171.64 -390.16)" fill="#fa9aad"/><path d="M494.63,614.46c-6.58,2.53-13.16,5.08-19.75,7.58a109.48,109.48,0,0,1-17.39,5.32A151.19,151.19,0,0,0,476,604.55c1.71-2.65,5.13-2.81,7.77-4.06,5.91-2.8,6-2.72,8,3.59C492.8,607.51,493.67,611,494.63,614.46Z" transform="translate(-171.64 -390.16)" fill="#fa9aad"/><path d="M291,551.76c1.42,4.79,4.83,8.34,8,11.94A89.54,89.54,0,0,0,326,585a13,13,0,0,1,1.77,1.3c-9.9-1.48-18.82-5.5-27.12-10.88-11-7.15-20.08-16.24-26.25-28l.16-.15C279.76,549.9,284.88,552.71,291,551.76Z" transform="translate(-171.64 -390.16)" fill="#fcc7bb"/><path d="M289.61,464.5c-2.13,5-4.95,9.75-6.56,15-.47,1.54-1.2,3-1,4.71l-15.76,3.85a74,74,0,0,1,7.51-19.18,3.35,3.35,0,0,1,2.67-1.71C280.88,466.33,285.24,465.4,289.61,464.5Z" transform="translate(-171.64 -390.16)" fill="#f8718c"/><path d="M329.28,429.09c-6.15,3.45-12.62,6.45-17.91,11.2-3.72,3.35-8.6,5.58-10.61,10.63l-14.85,2.62C297.58,440.29,311.9,432,329.28,429.09Z" transform="translate(-171.64 -390.16)" fill="#f1cb6d"/><path d="M273.62,546l-.78-1.45.24-.22a1.59,1.59,0,0,1,.75,1.49Z" transform="translate(-171.64 -390.16)" fill="#fcc7bb"/><path d="M416.48,543l-.73,1.51-.26-.23a1.51,1.51,0,0,1,.75-1.5Z" transform="translate(-171.64 -390.16)" fill="#fddacc"/><path d="M272.84,544.51l-.77-1.51.26-.21a1.6,1.6,0,0,1,.75,1.5Z" transform="translate(-171.64 -390.16)" fill="#fcc7bb"/><path d="M274.43,547.41c-.62-.29-.7-.88-.81-1.45l.21-.18a1.57,1.57,0,0,1,.76,1.48Z" transform="translate(-171.64 -390.16)" fill="#fcc7bb"/><path d="M415.75,544.52l-.82,1.45-.19-.19a1.48,1.48,0,0,1,.75-1.49Z" transform="translate(-171.64 -390.16)" fill="#fddacc"/><path d="M414.93,546c-.13.31-.26.62-.4.93a2.75,2.75,0,0,1-.53-.36c.24-.26.49-.51.74-.76Z" transform="translate(-171.64 -390.16)" fill="#fddacc"/><path d="M231.76,611c-.29-.06-.67-.08-.45-.52a4.94,4.94,0,0,1,.76.23Z" transform="translate(-171.64 -390.16)" fill="#f9f9f9"/><path d="M456.48,610.65a4.29,4.29,0,0,1,.77-.22c.21.44-.16.46-.46.52Z" transform="translate(-171.64 -390.16)" fill="#f9f9f9"/><path d="M422,487.06l-.1.95-.57-.37Z" transform="translate(-171.64 -390.16)" fill="#fb9bad"/><path d="M414.74,545.78c-.25.25-.5.5-.74.76-4.35,3.3-9,5.76-14.71,5.22-5.86-.55-11-2.69-13.69-8.21-2.55-5.17-.2-9.58,3.07-13.62,5.07,3.69,8.57,2.48,10.4-3.59,6.17,0,11.66,1.49,15.49,6.84,2.12,3,1.66,6.32,1.68,9.61a1.51,1.51,0,0,0-.75,1.5A1.48,1.48,0,0,0,414.74,545.78Z" transform="translate(-171.64 -390.16)" fill="#fd9daf"/><path d="M274.59,547.26a1.57,1.57,0,0,0-.76-1.48,623.87,623.87,0,0,1-1.5-3c-.84-7,1.6-12.12,8.24-15,2.92-.8,5.8-1.85,8.92-1.46,1.81,6.06,5.32,7.27,10.4,3.58,1.62,2.48,3.63,4.74,3.92,7.91.53,6-3.4,11.21-9.92,13.12l-2.86.81C284.88,552.71,279.76,549.9,274.59,547.26Z" transform="translate(-171.64 -390.16)" fill="#fd9daf"/><path d="M299.89,529.92c-5.08,3.69-8.59,2.48-10.4-3.58,1.59-9.92,7.67-15.17,16.56-14.31,6.92.68,12.73,7,12.75,13.84,0,3.33-1.56,5.45-4.87,6a5.35,5.35,0,0,1-6.22-4.58c-.39-2.14-.78-4-3.36-4.09-2.83-.06-3.37,2-3.61,4.25A11.23,11.23,0,0,1,299.89,529.92Z" transform="translate(-171.64 -390.16)" fill="#040303"/><path d="M399.07,526.34c-1.83,6.07-5.33,7.28-10.4,3.59a23,23,0,0,1-.93-3.18c-.33-2.09-1.19-3.59-3.53-3.53-2.1.06-3.09,1.34-3.23,3.37a5.58,5.58,0,0,1-1.88,3.93,5.32,5.32,0,0,1-5.91,1c-2.42-1-3.46-3-3.44-5.66a14.63,14.63,0,0,1,12-13.76c7.43-1.11,14.3,3,16.42,9.85A43,43,0,0,1,399.07,526.34Z" transform="translate(-171.64 -390.16)" fill="#040303"/><path d="M344.43,546.7a17.51,17.51,0,0,1-13.35-5.61c-2.43-2.53-2.51-5.75-.4-8s5.29-2.31,8-.16c4.47,3.51,6.64,3.5,11.18,0,2.73-2.13,6-2,8,.25s2,5.53-.49,8A17.48,17.48,0,0,1,344.43,546.7Z" transform="translate(-171.64 -390.16)" fill="#040303"/></svg>